<?xml version="1.0" encoding="UTF-8" standalone="no"?>
<!DOCTYPE svg PUBLIC "-//W3C//DTD SVG 1.1//EN" "http://www.w3.org/Graphics/SVG/1.1/DTD/svg11.dtd">
<svg width="100%" height="100%" viewBox="0 0 349 148" version="1.1" xmlns="http://www.w3.org/2000/svg" xmlns:xlink="http://www.w3.org/1999/xlink" xml:space="preserve" xmlns:serif="http://www.serif.com/" style="fill-rule:evenodd;clip-rule:evenodd;">
    <g id="画板1" transform="matrix(1,0,0,1,115.764,-19.1274)">
        <g transform="matrix(-1,-1.22465e-16,1.22465e-16,-1,116.586,185.326)">
            <rect x="-115.764" y="19.127" width="348.11" height="147.321" style="fill:none;"/>
        </g>
        <g id="chedeng" transform="matrix(-2.8206e-16,1,-1,-2.8206e-16,153.404,43.2373)">
            <path d="M70.9,5.2C70.9,5.2 83.8,7 86.1,8.2C90.6,10.6 88.5,17.7 88.5,17.7C88.5,17.7 86.2,18.7 81.8,16.3C79.4,15 70.9,5.2 70.9,5.2ZM30.8,5.2C30.8,5.2 17.6,8.4 15.2,9.7C10.6,12.2 12.8,19.7 12.8,19.7C12.8,19.7 15.1,20.7 19.7,18.2C22.1,16.9 30.8,5.2 30.8,5.2Z" style="fill:rgb(231,231,231);fill-rule:nonzero;stroke:rgb(181,181,181);stroke-width:1px;"/>
        </g>
        <g id="di" transform="matrix(-2.8206e-16,1,-1,-2.8206e-16,153.404,43.2373)">
            <path d="M90.8,39L90.8,159.2C90.8,173 89.7,177.6 86.2,185.2C82.8,192.4 61,195.9 52.4,195.9C41,195.9 22,195 15.5,186.7C11.6,181.8 9.3,180.9 9.3,169.9L9.3,39C9.3,26 9.2,23.3 13.9,16.8C19,9.7 32.1,0.1 50.8,0.1C63.3,0.1 81.6,7.1 86.2,13.8C91,20.9 90.8,25.4 90.8,39Z" style="fill:rgb(8,100,247);fill-rule:nonzero;"/>
        </g>
        <g id="形状_1" transform="matrix(-2.8206e-16,1,-1,-2.8206e-16,153.404,43.2373)">
            <path d="M90,71L86,63L49,52L15,63L12,75L18,93L18,141L13,152C13,152 14.2,157 49,157C97,157 87,150 87,150L82,139L82,92L90,71Z" style="fill:rgb(161,160,160);fill-rule:nonzero;"/>
        </g>
        <g id="chepai" transform="matrix(-2.8206e-16,1,-1,-2.8206e-16,153.404,43.2373)">
            <path d="M72.3,4.6C72.3,5.4 71.6,6.1 70.8,6.1C64.5,4.2 57.9,3.2 51.3,3C44.4,3.2 37.5,4.2 30.8,6.1C30,6.1 29.3,5.4 29.3,4.6C29.3,3.8 30,3.1 30.8,3.1C37.5,1.2 44.3,0.2 51.3,0C57.9,0.1 64.5,1.2 70.8,3.1C71.6,3.1 72.3,3.7 72.3,4.6Z" style="fill:rgb(13,21,34);fill-rule:nonzero;"/>
        </g>
        <g id="chepai2" transform="matrix(-2.8206e-16,1,-1,-2.8206e-16,153.404,43.2373)">
            <path d="M61.5,194.5C61.5,194.9 56.5,196 56.1,196L43.8,196C43.4,196 38.4,194.9 38.4,194.5C38.4,194.1 43.4,193 43.8,193L56.2,193C56.6,192.9 61.5,194 61.5,194.5Z" style="fill:rgb(13,21,34);fill-rule:nonzero;"/>
        </g>
        <g id="weigai" transform="matrix(-2.8206e-16,1,-1,-2.8206e-16,153.404,43.2373)">
            <path d="M83.1,166.9L83.1,179.2C83.1,179.2 74.8,186.9 50.8,186.9C24.7,186.9 17,179.2 17,179.2L17,166.9C17,166.9 34.1,173 50.8,173C67.1,173 83.1,166.9 83.1,166.9Z" style="fill:rgb(0,0,255);fill-rule:nonzero;"/>
        </g>
        <g id="gai-2" transform="matrix(-2.8206e-16,1,-1,-2.8206e-16,153.404,43.2373)">
            <path d="M86.2,46.7L86.2,64.3C86.2,64.3 66.2,54.7 49.3,55.1C30.9,55.5 13.9,64.3 13.9,64.3L13.9,45.9C13.9,36.4 13.2,24.4 18.5,18.3C24,12.1 37.4,7.8 49.2,7.8C61.7,7.8 74.6,11.9 80,16.9C86.3,22.7 86.2,33 86.2,46.7Z" style="fill:rgb(0,0,255);fill-rule:nonzero;"/>
        </g>
        <g id="ding" transform="matrix(-2.8206e-16,1,-1,-2.8206e-16,153.404,43.2373)">
            <path d="M81.5,90.3L81.5,147C81.5,147 66.2,151.6 50.7,151.6C34.7,151.6 18.4,147 18.4,147L18.4,90.3C18.4,90.3 34.9,84.2 50.7,84.2C66.5,84.2 81.5,90.3 81.5,90.3Z" style="fill:rgb(0,0,255);fill-rule:nonzero;"/>
        </g>
        <g id="ding_拷贝" transform="matrix(-2.8206e-16,1,-1,-2.8206e-16,153.404,43.2373)">
            <path d="M75.2,95.9L81,146C81,146 63.4,149 51,149C38.2,149 19,147 19,147L24.8,95.9C24.8,95.9 38,91 50.6,91C63.2,91 75.2,95.9 75.2,95.9Z" style="fill:rgb(0,0,255);fill-opacity:0.5;fill-rule:nonzero;"/>
        </g>
        <g id="houshijing" transform="matrix(-2.8206e-16,1,-1,-2.8206e-16,153.404,43.2373)">
            <path d="M100,75L97.7,75L90,75C88.7,75 87.7,72.4 87.7,71.2C87.7,69.9 88.7,68.9 90,68.9L95.7,68.9C98.9,69 100,72.7 100,75ZM0,75L10,75C11.3,75 12.3,72.4 12.3,71.2C12.3,69.9 11.3,68.9 10,68.9L4.3,68.9C1.1,69 0,72.7 0,75Z" style="fill:rgb(0,0,255);fill-rule:nonzero;"/>
        </g>
        <g id="chechuang01" transform="matrix(-2.8206e-16,1,-1,-2.8206e-16,153.404,43.2373)">
            <path d="M84.6,64.3L80,90.3C71.2,85.3 61.2,82.7 51.1,82.6C34.1,82.6 20,90.3 20,90.3L16.9,64.3C16.9,64.3 33.8,55.1 50.7,55.1C67.6,55.1 84.6,64.3 84.6,64.3Z" style="fill:url(#_Linear1);fill-rule:nonzero;"/>
        </g>
        <g id="chechuang02" transform="matrix(-2.8206e-16,1,-1,-2.8206e-16,153.404,43.2373)">
            <path d="M87.7,70.4L81.5,93.4L81.5,116.4L87.7,116.4L87.7,70.4M87.7,153.1L81.5,140.1L81.5,117.9L87.7,117.9L87.7,153.1" style="fill:rgb(37,50,63);fill-rule:nonzero;"/>
        </g>
        <g id="chechuang03" transform="matrix(-2.8206e-16,1,-1,-2.8206e-16,153.404,43.2373)">
            <path d="M12.3,70.4L18.5,93.4L18.5,116.4L12.3,116.4L12.3,70.4M12.3,153.1L18.5,140.1L18.5,117.9L12.3,117.9L12.3,153.1" style="fill:rgb(13,16,24);fill-rule:nonzero;"/>
        </g>
        <g id="chechuang04" transform="matrix(-2.8206e-16,1,-1,-2.8206e-16,153.404,43.2373)">
            <path d="M81.5,151.6L83,165.4C83,165.4 68.2,173.1 50.7,173.1C33.6,173.1 16.9,165.4 16.9,165.4L18.4,151.6C18.4,151.6 33.5,153.1 50.7,153.1C61,153.1 71.3,152.6 81.5,151.6Z" style="fill:url(#_Linear2);fill-rule:nonzero;"/>
        </g>
        <g id="cheweideng" transform="matrix(-2.8206e-16,1,-1,-2.8206e-16,153.404,43.2373)">
            <path d="M80.3,187.5C80.9,187.9 81,188.8 80.5,189.3C79.5,190.5 78.3,191.4 77,192C75.5,192.6 74,193.1 72.4,193.3C71.7,193.4 71.1,192.9 71,192.2C70.9,191.5 71.4,190.9 72.1,190.8L72.4,190.8C73.7,190.7 74.9,190.3 76,189.8C78.3,188.7 78.6,187.9 78.6,187.9C78.9,187.3 79.7,187.1 80.3,187.5ZM17.4,187C16.9,187.5 16.8,188.3 17.2,188.9C18.1,190.1 19.2,191 20.5,191.7C21.9,192.4 23.3,192.8 24.8,193C25.5,193 26.1,192.5 26.1,191.8C26.1,191.1 25.6,190.5 24.9,190.5L24.8,190.5C23.6,190.4 22.5,190 21.4,189.4C19.2,188.3 19,187.5 19,187.5C18.8,186.9 18.1,186.6 17.4,187C17.5,187 17.5,187 17.4,187Z" style="fill:rgb(255,16,16);fill-rule:nonzero;"/>
        </g>
        <g id="chemenbashou" transform="matrix(-2.8206e-16,1,-1,-2.8206e-16,153.404,43.2373)">
            <path d="M90.8,107.7L90.8,112.8C90.8,113.1 90.6,113.3 90.3,113.3L89.7,113.3C89.4,113.3 89.2,113.1 89.2,112.8L89.2,107.7C89.2,107.4 89.4,107.2 89.7,107.2L90.3,107.2C90.6,107.2 90.8,107.4 90.8,107.7ZM90.8,121.5L90.8,126.6C90.8,126.9 90.6,127.1 90.3,127.1L89.7,127.1C89.4,127.1 89.2,126.9 89.2,126.6L89.2,121.5C89.2,121.2 89.4,121 89.7,121L90.3,121C90.6,121 90.8,121.2 90.8,121.5ZM10.8,107.7L10.8,112.8C10.8,113.1 10.6,113.3 10.3,113.3L9.7,113.3C9.4,113.3 9.2,113.1 9.2,112.8L9.2,107.7C9.2,107.4 9.4,107.2 9.7,107.2L10.3,107.2C10.6,107.2 10.8,107.4 10.8,107.7ZM10.8,121.5L10.8,126.6C10.8,126.9 10.6,127.1 10.3,127.1L9.7,127.1C9.4,127.1 9.2,126.9 9.2,126.6L9.2,121.5C9.2,121.2 9.4,121 9.7,121L10.3,121C10.6,121 10.8,121.2 10.8,121.5Z" style="fill:rgb(12,16,24);fill-rule:nonzero;"/>
        </g>
        <g id="教练" transform="matrix(-2.8206e-16,1,-1,-2.8206e-16,153.404,43.2373)">
            <path d="M57.2,39.5C57.4,37.9 57.7,36.3 58.2,34.7C58.7,36.3 59.1,37.9 59.4,39.5L57.2,39.5ZM66.7,37.1L67.4,36.9L68.2,36.9C67.9,37.2 67.6,37.5 67.3,37.9L64.6,37.9C64.9,37.4 65.3,36.8 65.7,36.3L66.7,37.1ZM69.8,42.5L68.4,42.5C68.7,42 69,41.6 69.3,41.2L69.8,41.2L69.8,42.5ZM51.7,39.5L51.7,43.1L58.4,43.1C58.1,44.5 57.8,45.9 57.5,47.3L61.4,47.9C61.8,44.8 62.6,41.8 63.9,39L63.9,41.1L64.9,41.1C63.9,42.7 63.1,44.4 62.4,46.2L66,47.2C66.4,46 67,44.9 67.6,43.8L67.6,45.7L69.8,45.7L69.8,47.9L73.4,47.9L73.4,45.7L76.1,45.7L76.1,42.5L73.4,42.5L73.4,41.2L77.1,41.2L77.1,37.9L72.3,37.9C72.7,37.6 73.1,37.2 73.5,36.9L74.8,36.9L74.8,36C75.7,35.4 76.7,34.8 77.7,34.3C76.8,33.4 75.9,32.4 75.1,31.3C73.8,32 72.5,32.9 71.4,33.9L70.3,33.9C70.9,33.3 71.5,32.8 72.1,32.3L72.1,31C74.1,30.9 75.9,30.8 77.4,30.7L77,27.3L72.1,27.7L72.1,26.3C72.1,26 72.2,26 72.6,26L75,26C74.5,25 74.1,23.9 73.9,22.7C72.5,22.6 71.1,22.8 69.8,23.2C68.7,23.7 68.5,24.6 68.5,26.2L68.5,28C67.1,28.1 65.6,28.2 64.2,28.3L64.2,31.6C65.6,31.5 67.1,31.4 68.5,31.3L68.5,31.8C67.3,32.8 66.1,34 65,35.2C64.3,34.6 63.7,34 63.1,33.3C62.8,33.7 62.5,34.1 62.2,34.6C61.8,33.1 61.3,31.6 60.7,30.2C62.1,28.4 64,26.9 66.1,26.1C65.2,25 64.5,23.8 63.9,22.6C61.9,23.6 60.1,24.9 58.6,26.6C57.5,25 56,23.7 54.4,22.7C53.7,24 52.8,25.1 51.7,26.1C53.5,27 55.1,28.4 56.2,30.1C54.8,33.1 53.9,36.3 53.5,39.6L51.7,39.5ZM46.6,29.5C45.9,29.9 44.7,30.4 39,31.6C39.1,32.7 39.1,33.8 38.9,34.8L41.9,34.2C40.5,36.2 39.3,38.2 38.2,40.4L41.3,42.3C41.6,41.4 42,40.6 42.4,39.7L43.6,39.6C42.3,41.8 41.2,44.2 40.4,46.6L44,48.2C44.5,45.7 45.3,43.3 46.4,40.9C46.7,40.2 47.2,39.6 47.8,39.3C47.3,38.2 46.9,37 46.6,35.8L46.6,36C45.8,36.3 45,36.5 44.1,36.5C44.5,35.8 45,35 45.5,34.3C45.9,33.5 46.6,33 47.4,32.6C47,31.6 46.6,30.6 46.3,29.5L46.6,29.5ZM39.7,30.3C42.7,29.2 45.8,28.1 47.7,27.4L46.8,23.6C44.5,24.7 41.7,26.1 39,27.4L39.7,30.3ZM36.5,31.2C37.3,29.2 38.5,27.3 40,25.7C39.1,25.1 38.2,24.4 37.3,23.6C35.5,25.6 34.1,27.8 33,30.2L36.5,31.2ZM33.9,35.4C33.7,35.9 33.5,36.4 33.4,36.9L32.1,36.9L32.1,35.4L33.9,35.4ZM23.7,32L23.7,35.5L28.4,35.5L28.4,40.5L32.2,40.5C32.1,41 31.9,41.5 31.8,42L23.5,42L23.5,45.5L30.9,45.5C30.7,46.2 30.6,47 30.4,47.7L34.2,48.2C34.3,47.3 34.5,46.4 34.6,45.5L38.4,45.5L38.4,42L35.4,42C35.5,41.5 35.7,41 35.8,40.5L38,40.5L38,37L36.9,37C37.4,35.7 37.8,35.1 38.4,34.8C37.9,33.7 37.6,32.7 37.3,31.6C36.5,32 35.6,32.1 34.7,32.1L32.2,32.1L32.2,26.7C32.2,26.4 32.3,26.3 32.7,26.3L35.2,26.3C34.7,25.2 34.4,24 34.2,22.9C32.7,22.8 31.3,23 29.9,23.5C28.8,24.1 28.5,25 28.5,26.7L28.5,32L23.7,32ZM28.1,29.7C27.2,27.8 26.1,25.3 25.6,23.8L22.4,25.5C23,27 24.2,29.4 25.1,31.1L28.1,29.7Z" style="fill:white;fill-rule:nonzero;"/>
        </g>
    </g>
    <defs>
        <linearGradient id="_Linear1" x1="0" y1="0" x2="1" y2="0" gradientUnits="userSpaceOnUse" gradientTransform="matrix(67.7,0,0,67.7,16.8999,72.7)"><stop offset="0" style="stop-color:rgb(12,16,24);stop-opacity:1"/><stop offset="0.49" style="stop-color:rgb(12,16,24);stop-opacity:1"/><stop offset="0.51" style="stop-color:rgb(37,50,63);stop-opacity:1"/><stop offset="1" style="stop-color:rgb(37,50,63);stop-opacity:1"/></linearGradient>
        <linearGradient id="_Linear2" x1="0" y1="0" x2="1" y2="0" gradientUnits="userSpaceOnUse" gradientTransform="matrix(66.1001,-2.84217e-14,2.84217e-14,66.1001,16.8999,162.35)"><stop offset="0" style="stop-color:rgb(12,16,24);stop-opacity:1"/><stop offset="0.49" style="stop-color:rgb(12,16,24);stop-opacity:1"/><stop offset="0.51" style="stop-color:rgb(37,50,63);stop-opacity:1"/><stop offset="1" style="stop-color:rgb(37,50,63);stop-opacity:1"/></linearGradient>
    </defs>
</svg>
