<?xml version="1.0" encoding="UTF-8" standalone="no"?>
<!DOCTYPE svg PUBLIC "-//W3C//DTD SVG 1.1//EN" "http://www.w3.org/Graphics/SVG/1.1/DTD/svg11.dtd">
<svg width="100%" height="100%" viewBox="0 0 1205 402" version="1.1" xmlns="http://www.w3.org/2000/svg" xmlns:xlink="http://www.w3.org/1999/xlink" xml:space="preserve" xmlns:serif="http://www.serif.com/" style="fill-rule:evenodd;clip-rule:evenodd;stroke-linejoin:round;stroke-miterlimit:2;">
    <g id="画板1" transform="matrix(1,0,0,1,428.652,-232.442)">
        <g transform="matrix(-1,-1.22465e-16,1.22465e-16,-1,321.983,875.896)">
            <rect x="-428.652" y="232.442" width="1204.34" height="401.67" style="fill:none;"/>
        </g>
        <g id="chelun" transform="matrix(-1,-1.22465e-16,1.22465e-16,-1,321.635,875.453)">
            <g id="圆角矩形_1_拷贝_3" transform="matrix(6.12323e-17,-1,1,6.12323e-17,-270.838,595.401)">
                <path d="M254.1,224.6L254.1,264.6C254.1,266.5 252.5,268.1 250.6,268.1C248.7,268.1 247.1,266.5 247.1,264.6L247.1,224.6C247.1,222.7 248.7,221.1 250.6,221.1C252.5,221.1 254.1,222.7 254.1,224.6ZM57.1,224.6L57.1,264.6C57.1,266.5 55.5,268.1 53.6,268.1C51.7,268.1 50.1,266.5 50.1,264.6L50.1,224.6C50.1,222.7 51.7,221.1 53.6,221.1C55.5,221.1 57.1,222.7 57.1,224.6ZM254.1,626.6L254.1,666.6C254.1,668.5 252.5,670.1 250.6,670.1C248.7,670.1 247.1,668.5 247.1,666.6L247.1,626.6C247.1,624.7 248.7,623.1 250.6,623.1C252.5,623.1 254.1,624.7 254.1,626.6ZM57.1,626.6L57.1,666.6C57.1,668.5 55.5,670.1 53.6,670.1C51.7,670.1 50.1,668.5 50.1,666.6L50.1,626.6C50.1,624.7 51.7,623.1 53.6,623.1C55.5,623.1 57.1,624.7 57.1,626.6Z" style="fill:rgb(107,107,107);fill-rule:nonzero;"/>
            </g>
            <g id="圆角矩形_1_拷贝" transform="matrix(6.12323e-17,-1,1,6.12323e-17,-270.838,595.401)">
                <path d="M251.9,207.1L251.9,284.1C251.9,289.6 247.4,294.1 241.9,294.1L62.3,294.1C56.8,294.1 52.3,289.6 52.3,284.1L52.3,207.1C52.3,201.6 56.8,197.1 62.3,197.1L241.9,197.1C247.4,197.1 251.9,201.6 251.9,207.1ZM251.9,608.1L251.9,685.1C251.9,690.6 247.4,695.1 241.9,695.1L62.3,695.1C56.8,695.1 52.3,690.6 52.3,685.1L52.3,608.1C52.3,602.6 56.8,598.1 62.3,598.1L241.9,598.1C247.4,598.1 251.9,602.6 251.9,608.1Z" style="fill:rgb(2,2,2);fill-rule:nonzero;"/>
            </g>
        </g>
        <g id="chechaung" transform="matrix(-1.83697e-16,1,-1,-1.83697e-16,592.474,280.053)">
            <path d="M241.1,41.1C241.1,53.3 197.3,63.1 149.2,63.1C101.1,63.1 62.1,53.3 62.1,41.1C62.1,28.9 101.1,19.1 149.2,19.1C197.3,19.1 241.1,29 241.1,41.1Z" style="fill-rule:nonzero;"/>
        </g>
        <g id="chedeng" transform="matrix(-1,-1.22465e-16,1.22465e-16,-1,321.635,875.453)">
            <g id="圆角矩形_8" transform="matrix(6.12323e-17,-1,1,6.12323e-17,-270.838,595.401)">
                <path d="M247.1,173.6L247.1,177.6C247.1,180.1 245.1,182.1 242.6,182.1C240.1,182.1 238.1,180.1 238.1,177.6L238.1,173.6C238.1,171.1 240.1,169.1 242.6,169.1C245.1,169.1 247.1,171.1 247.1,173.6Z" style="fill:rgb(255,120,0);fill-rule:nonzero;"/>
            </g>
            <g id="圆角矩形_8_拷贝" transform="matrix(6.12323e-17,-1,1,6.12323e-17,-270.838,595.401)">
                <path d="M65.1,173.6L65.1,177.6C65.1,180.1 63.1,182.1 60.6,182.1C58.1,182.1 56.1,180.1 56.1,177.6L56.1,173.6C56.1,171.1 58.1,169.1 60.6,169.1C63.1,169.1 65.1,171.1 65.1,173.6Z" style="fill:rgb(255,120,0);fill-rule:nonzero;"/>
            </g>
        </g>
        <g id="houshi" transform="matrix(-1,-1.22465e-16,1.22465e-16,-1,321.635,875.453)">
            <g id="圆角矩形_9" transform="matrix(6.12323e-17,-1,1,6.12323e-17,-270.838,595.401)">
                <path d="M260.1,58.1L260.1,65.1C260.1,66.8 258.8,68.1 257.1,68.1L241.1,68.1C239.4,68.1 238.1,66.8 238.1,65.1L238.1,58.1C238.1,56.4 239.4,55.1 241.1,55.1L257.1,55.1C258.8,55.1 260.1,56.4 260.1,58.1Z" style="fill:rgb(23,100,209);fill-rule:nonzero;"/>
            </g>
            <g id="圆角矩形_10" transform="matrix(6.12323e-17,-1,1,6.12323e-17,-270.838,595.401)">
                <path d="M254.1,61.1C254.1,61.7 253.7,62.1 253.1,62.1L252.1,62.1C251.5,62.1 251.1,61.7 251.1,61.1C251.1,60.5 251.5,60.1 252.1,60.1L253.1,60.1C253.7,60.1 254.1,60.5 254.1,61.1Z" style="fill:rgb(0,0,92);fill-opacity:0.5;fill-rule:nonzero;"/>
            </g>
        </g>
        <g id="ding" transform="matrix(-1,-1.22465e-16,1.22465e-16,-1,321.635,875.453)">
            <g id="圆角矩形_1" transform="matrix(6.12323e-17,-1,1,6.12323e-17,-270.838,595.401)">
                <path d="M244.1,46.1L244.1,884.1C244.1,890.7 238.7,896.1 232.1,896.1L71.1,896.1C64.5,896.1 59.1,890.7 59.1,884.1L59.1,46.1C59.1,39.5 64.5,34.1 71.1,34.1C71.1,34.1 111.3,26.1 152.4,26.1C191.7,26.1 232.1,34.1 232.1,34.1C238.7,34.1 244.1,39.5 244.1,46.1Z" style="fill:rgb(102,179,255);fill-rule:nonzero;"/>
            </g>
            <g id="圆角矩形_1_拷贝_2" transform="matrix(6.12323e-17,-1,1,6.12323e-17,-270.838,595.401)">
                <path d="M244.1,46.1L244.1,884.1C244.1,890.7 238.7,896.1 232.1,896.1L71.1,896.1C64.5,896.1 59.1,890.7 59.1,884.1L59.1,46.1C59.1,39.5 64.5,34.1 71.1,34.1C71.1,34.1 111.3,26.1 152.4,26.1C191.7,26.1 232.1,34.1 232.1,34.1C238.7,34.1 244.1,39.5 244.1,46.1Z" style="fill:url(#_Linear1);fill-rule:nonzero;"/>
            </g>
            <g id="圆角矩形_2" transform="matrix(6.12323e-17,-1,1,6.12323e-17,-270.838,595.401)">
                <path d="M244.1,865.1L244.1,883.1C244.1,887.5 240.5,891.1 236.1,891.1L67.1,891.1C62.7,891.1 59.1,887.5 59.1,883.1L59.1,865.1C59.1,860.7 62.7,857.1 67.1,857.1L236.1,857.1C240.5,857.1 244.1,860.7 244.1,865.1Z" style="fill:url(#_Linear2);fill-rule:nonzero;"/>
            </g>
        </g>
        <g id="houshi2" transform="matrix(-1,-1.22465e-16,1.22465e-16,-1,321.635,875.453)">
            <g id="形状_3" transform="matrix(6.12323e-17,-1,1,6.12323e-17,-270.838,595.401)">
                <path d="M249.1,68.1L248.1,68.1L248.1,65.1L249.1,65.1L249.1,68.1ZM249.1,64.1L249.1,65.1L241.1,65.1L241.1,64.1L249.1,64.1Z" style="fill:rgb(0,11,120);fill-opacity:0.5;fill-rule:nonzero;"/>
            </g>
            <g id="圆角矩形_13" transform="matrix(6.12323e-17,-1,1,6.12323e-17,-270.838,595.401)">
                <path d="M68.1,38.6L68.1,58.6C68.1,61.1 66.1,63.1 63.6,63.1C61.1,63.1 59.1,61.1 59.1,58.6L59.1,38.6C59.1,36.1 61.1,34.1 63.6,34.1C66.1,34.1 68.1,36.1 68.1,38.6Z" style="fill:rgb(0,10,119);fill-rule:nonzero;"/>
            </g>
            <g id="圆角矩形_12" transform="matrix(6.12323e-17,-1,1,6.12323e-17,-270.838,595.401)">
                <path d="M59.1,47C55,37.9 42.4,16 42.4,16C41,13 42.4,9.4 45.4,8.1L54.9,2.6C57.9,1.2 61.5,2.6 62.8,5.6L66.6,14.1C66.5,20.4 66,43.2 66,52.6L66,57.1C66,58.2 65.1,59.1 64,59.1L61,59.1C59.9,59.1 59,58.2 59,57.1C59.1,57.1 59.1,50.3 59.1,47Z" style="fill:rgb(16,92,202);fill-rule:nonzero;"/>
            </g>
        </g>
        <g id="gai01" transform="matrix(-1,-1.22465e-16,1.22465e-16,-1,321.635,875.453)">
            <g id="圆角矩形_4_拷贝_2" transform="matrix(6.12323e-17,-1,1,6.12323e-17,-270.838,595.401)">
                <path d="M234.1,80.2L230.4,145.1C230.4,154.5 222,162.2 211.7,162.2C211.7,162.2 213.7,152.8 208.9,152.8C187.4,152.8 116.1,153.7 95.5,153.7C91.1,153.7 94.6,162.2 94.6,162.2C84.3,162.2 75.9,154.6 75.9,145.1L71.1,80.2C71.1,70.8 79.5,63.1 89.8,63.1L215.4,63.1C225.7,63.1 234.1,70.7 234.1,80.2Z" style="fill:rgb(0,0,65);fill-rule:nonzero;"/>
            </g>
            <g id="圆角矩形_4_拷贝_3" transform="matrix(6.12323e-17,-1,1,6.12323e-17,-270.838,595.401)">
                <path d="M239.1,66.1L235.1,142.1C235.1,153.1 226.1,162.1 215.1,162.1C215.1,162.1 217.3,151.1 212.1,151.1C189.1,151.1 113,152.1 91.1,152.1C86.4,152.1 90.1,162.1 90.1,162.1C79.1,162.1 70.1,153.1 70.1,142.1L65.1,66.1C65.1,55.1 74.1,46.1 85.1,46.1L219.1,46.1C230.1,46.1 239.1,55.1 239.1,66.1Z" style="fill:rgb(14,91,200);fill-rule:nonzero;"/>
            </g>
            <g id="圆角矩形_4" transform="matrix(6.12323e-17,-1,1,6.12323e-17,-270.838,595.401)">
                <path d="M239.1,66.1L235.1,142.1C235.1,153.1 226.1,162.1 215.1,162.1C215.1,162.1 217.3,151.1 212.1,151.1C189.1,151.1 113,152.1 91.1,152.1C86.4,152.1 90.1,162.1 90.1,162.1C79.1,162.1 70.1,153.1 70.1,142.1L65.1,66.1C65.1,55.1 74.1,46.1 85.1,46.1L219.1,46.1C230.1,46.1 239.1,55.1 239.1,66.1Z" style="fill:url(#_Linear3);fill-rule:nonzero;"/>
            </g>
            <g id="圆角矩形_4_拷贝" transform="matrix(6.12323e-17,-1,1,6.12323e-17,-270.838,595.401)">
                <path d="M239.1,66.1L235.1,142.1C235.1,153.1 226.1,162.1 215.1,162.1C215.1,162.1 217.3,151.1 212.1,151.1C189.1,151.1 113,152.1 91.1,152.1C86.4,152.1 90.1,162.1 90.1,162.1C79.1,162.1 70.1,153.1 70.1,142.1L65.1,66.1C65.1,55.1 74.1,46.1 85.1,46.1L219.1,46.1C230.1,46.1 239.1,55.1 239.1,66.1Z" style="fill:url(#_Linear4);fill-rule:nonzero;"/>
            </g>
        </g>
        <g id="gai02" transform="matrix(-1,-1.22465e-16,1.22465e-16,-1,321.635,875.453)">
            <g id="圆角矩形_3_拷贝" transform="matrix(6.12323e-17,-1,1,6.12323e-17,-270.838,595.401)">
                <path d="M234.1,48.1L234.1,63.1C234.1,65.3 232.3,67.1 230.1,67.1L76.1,67.1C73.9,67.1 72.1,65.3 72.1,63.1L72.1,48.1C72.1,45.9 73.9,44.1 76.1,44.1L230.1,44.1C232.3,44.1 234.1,45.9 234.1,48.1Z" style="fill:rgb(0,26,135);fill-rule:nonzero;"/>
            </g>
            <g id="圆角矩形_3" transform="matrix(6.12323e-17,-1,1,6.12323e-17,-270.838,595.401)">
                <path d="M233.1,47.1L233.1,62.1C233.1,64.3 231.3,66.1 229.1,66.1L75.1,66.1C72.9,66.1 71.1,64.3 71.1,62.1L71.1,47.1C71.1,44.9 72.9,43.1 75.1,43.1L229.1,43.1C231.3,43.1 233.1,44.9 233.1,47.1Z" style="fill:url(#_Linear5);fill-rule:nonzero;"/>
            </g>
        </g>
        <g id="dingchuang" transform="matrix(-1,-1.22465e-16,1.22465e-16,-1,321.635,875.453)">
            <g id="圆角矩形_5_拷贝" transform="matrix(6.12323e-17,-1,1,6.12323e-17,-270.838,595.401)">
                <path d="M176.1,400.1L176.1,458.1C176.1,460.3 174.3,462.1 172.1,462.1L125.1,462.1C122.9,462.1 121.1,460.3 121.1,458.1L121.1,400.1C121.1,397.9 122.9,396.1 125.1,396.1L172.1,396.1C174.3,396.1 176.1,397.9 176.1,400.1Z" style="fill:rgb(0,0,57);fill-opacity:0.5;fill-rule:nonzero;"/>
            </g>
            <g id="圆角矩形_5" transform="matrix(6.12323e-17,-1,1,6.12323e-17,-270.838,595.401)">
                <path d="M178.1,398.1L178.1,456.1C178.1,458.3 176.3,460.1 174.1,460.1L127.1,460.1C124.9,460.1 123.1,458.3 123.1,456.1L123.1,398.1C123.1,395.9 124.9,394.1 127.1,394.1L174.1,394.1C176.3,394.1 178.1,395.9 178.1,398.1Z" style="fill:url(#_Linear6);fill-rule:nonzero;"/>
            </g>
            <g id="椭圆_1" transform="matrix(6.12323e-17,-1,1,6.12323e-17,-270.838,595.401)">
                <circle cx="150.1" cy="456.1" r="6" style="fill:url(#_Linear7);"/>
            </g>
        </g>
        <g id="dingchuang2" transform="matrix(-1,-1.22465e-16,1.22465e-16,-1,321.635,875.453)">
            <g id="圆角矩形_5_拷贝-2" transform="matrix(6.12323e-17,-1,1,6.12323e-17,-270.838,595.401)">
                <path d="M176.1,718.1L176.1,776.1C176.1,778.3 174.3,780.1 172.1,780.1L125.1,780.1C122.9,780.1 121.1,778.3 121.1,776.1L121.1,718.1C121.1,715.9 122.9,714.1 125.1,714.1L172.1,714.1C174.3,714.1 176.1,715.9 176.1,718.1Z" style="fill:rgb(0,0,57);fill-opacity:0.5;fill-rule:nonzero;"/>
            </g>
            <g id="圆角矩形_5-2" transform="matrix(6.12323e-17,-1,1,6.12323e-17,-270.838,595.401)">
                <path d="M178.1,716.1L178.1,774.1C178.1,776.3 176.3,778.1 174.1,778.1L127.1,778.1C124.9,778.1 123.1,776.3 123.1,774.1L123.1,716.1C123.1,713.9 124.9,712.1 127.1,712.1L174.1,712.1C176.3,712.1 178.1,713.9 178.1,716.1Z" style="fill:url(#_Linear8);fill-rule:nonzero;"/>
            </g>
            <g id="椭圆_1-2" transform="matrix(6.12323e-17,-1,1,6.12323e-17,-270.838,595.401)">
                <circle cx="150.1" cy="774.1" r="6" style="fill:url(#_Linear9);"/>
            </g>
        </g>
        <g id="dingchuang3" transform="matrix(-1,-1.22465e-16,1.22465e-16,-1,321.635,875.453)">
            <g id="圆角矩形_6" transform="matrix(6.12323e-17,-1,1,6.12323e-17,-270.838,595.401)">
                <path d="M174.1,820.1L174.1,860.1C174.1,862.3 172.3,864.1 170.1,864.1L134.1,864.1C131.9,864.1 130.1,862.3 130.1,860.1L130.1,820.1L174.1,820.1Z" style="fill:url(#_Linear10);fill-rule:nonzero;"/>
            </g>
            <g id="矩形_1" transform="matrix(6.12323e-17,-1,1,6.12323e-17,-270.838,595.401)">
                <rect x="134.1" y="829.1" width="35" height="30" style="fill:rgb(22,99,208);"/>
            </g>
            <g id="形状_1" transform="matrix(6.12323e-17,-1,1,6.12323e-17,-270.838,595.401)">
                <path d="M174.1,820.1L169.1,829.1L134.1,829.1L130.1,820.1L174.1,820.1Z" style="fill:rgb(36,112,221);fill-rule:nonzero;"/>
            </g>
        </g>
        <g id="圆角矩形_7" transform="matrix(-1.83697e-16,1,-1,-1.83697e-16,592.474,280.053)">
            <path d="M161.1,876.1L161.1,885.1C161.1,888.4 158.4,891.1 155.1,891.1L148.1,891.1C144.8,891.1 142.1,888.4 142.1,885.1L142.1,876.1C142.1,872.8 144.8,870.1 148.1,870.1L155.1,870.1C158.4,870.1 161.1,872.8 161.1,876.1Z" style="fill:rgb(19,96,205);fill-rule:nonzero;"/>
        </g>
    </g>
    <defs>
        <linearGradient id="_Linear1" x1="0" y1="0" x2="1" y2="0" gradientUnits="userSpaceOnUse" gradientTransform="matrix(185,0,0,185,59.1,461.145)"><stop offset="0" style="stop-color:rgb(0,0,33);stop-opacity:0.6"/><stop offset="0.5" style="stop-color:rgb(22,99,208);stop-opacity:1"/><stop offset="1" style="stop-color:rgb(0,0,33);stop-opacity:0.6"/></linearGradient>
        <linearGradient id="_Linear2" x1="0" y1="0" x2="1" y2="0" gradientUnits="userSpaceOnUse" gradientTransform="matrix(2.0819e-15,34,-34,2.0819e-15,151.6,857.145)"><stop offset="0" style="stop-color:rgb(22,99,208);stop-opacity:0"/><stop offset="0.59" style="stop-color:rgb(22,99,208);stop-opacity:0.2"/><stop offset="1" style="stop-color:rgb(0,0,33);stop-opacity:0.5"/></linearGradient>
        <linearGradient id="_Linear3" x1="0" y1="0" x2="1" y2="0" gradientUnits="userSpaceOnUse" gradientTransform="matrix(174,0,0,174,65.1,104.145)"><stop offset="0" style="stop-color:rgb(0,0,33);stop-opacity:0.6"/><stop offset="0.5" style="stop-color:rgb(22,99,208);stop-opacity:1"/><stop offset="1" style="stop-color:rgb(0,0,33);stop-opacity:0.6"/></linearGradient>
        <linearGradient id="_Linear4" x1="0" y1="0" x2="1" y2="0" gradientUnits="userSpaceOnUse" gradientTransform="matrix(7.10295e-15,116,-116,7.10295e-15,152.1,46.1454)"><stop offset="0" style="stop-color:rgb(102,179,255);stop-opacity:0"/><stop offset="0.5" style="stop-color:rgb(102,179,255);stop-opacity:0.2"/><stop offset="1" style="stop-color:rgb(0,0,33);stop-opacity:0.6"/></linearGradient>
        <linearGradient id="_Linear5" x1="0" y1="0" x2="1" y2="0" gradientUnits="userSpaceOnUse" gradientTransform="matrix(1.40834e-15,23,-23,1.40834e-15,152.1,43.1454)"><stop offset="0" style="stop-color:rgb(22,99,208);stop-opacity:1"/><stop offset="0.49" style="stop-color:rgb(48,125,234);stop-opacity:1"/><stop offset="1" style="stop-color:rgb(22,99,208);stop-opacity:1"/></linearGradient>
        <linearGradient id="_Linear6" x1="0" y1="0" x2="1" y2="0" gradientUnits="userSpaceOnUse" gradientTransform="matrix(55,0,0,55,123.1,427.145)"><stop offset="0" style="stop-color:rgb(13,90,199);stop-opacity:1"/><stop offset="0.5" style="stop-color:rgb(35,112,221);stop-opacity:1"/><stop offset="1" style="stop-color:rgb(13,90,199);stop-opacity:1"/></linearGradient>
        <linearGradient id="_Linear7" x1="0" y1="0" x2="1" y2="0" gradientUnits="userSpaceOnUse" gradientTransform="matrix(12,0,0,12,144.1,456.145)"><stop offset="0" style="stop-color:rgb(22,98,208);stop-opacity:1"/><stop offset="0.2" style="stop-color:rgb(22,98,208);stop-opacity:1"/><stop offset="0.25" style="stop-color:rgb(22,98,208);stop-opacity:1"/><stop offset="0.65" style="stop-color:rgb(48,125,234);stop-opacity:1"/><stop offset="0.8" style="stop-color:rgb(48,125,234);stop-opacity:1"/><stop offset="1" style="stop-color:rgb(48,125,234);stop-opacity:1"/></linearGradient>
        <linearGradient id="_Linear8" x1="0" y1="0" x2="1" y2="0" gradientUnits="userSpaceOnUse" gradientTransform="matrix(55,0,0,55,123.1,745.145)"><stop offset="0" style="stop-color:rgb(13,90,199);stop-opacity:1"/><stop offset="0.5" style="stop-color:rgb(35,112,221);stop-opacity:1"/><stop offset="1" style="stop-color:rgb(13,90,199);stop-opacity:1"/></linearGradient>
        <linearGradient id="_Linear9" x1="0" y1="0" x2="1" y2="0" gradientUnits="userSpaceOnUse" gradientTransform="matrix(12,0,0,12,144.1,774.145)"><stop offset="0" style="stop-color:rgb(22,98,208);stop-opacity:1"/><stop offset="0.2" style="stop-color:rgb(22,98,208);stop-opacity:1"/><stop offset="0.25" style="stop-color:rgb(22,98,208);stop-opacity:1"/><stop offset="0.65" style="stop-color:rgb(48,125,234);stop-opacity:1"/><stop offset="0.8" style="stop-color:rgb(48,125,234);stop-opacity:1"/><stop offset="1" style="stop-color:rgb(48,125,234);stop-opacity:1"/></linearGradient>
        <linearGradient id="_Linear10" x1="0" y1="0" x2="1" y2="0" gradientUnits="userSpaceOnUse" gradientTransform="matrix(44,0,0,44,130.1,842.145)"><stop offset="0" style="stop-color:rgb(0,0,87);stop-opacity:1"/><stop offset="0.17" style="stop-color:rgb(0,77,186);stop-opacity:1"/><stop offset="0.99" style="stop-color:rgb(0,77,186);stop-opacity:1"/><stop offset="1" style="stop-color:rgb(0,77,186);stop-opacity:1"/></linearGradient>
    </defs>
</svg>
