<?xml version="1.0" encoding="utf-8"?>
<!-- Generator: Adobe Illustrator 22.1.0, SVG Export Plug-In . SVG Version: 6.00 Build 0)  -->
<svg version="1.1" id="组_1" xmlns="http://www.w3.org/2000/svg" xmlns:xlink="http://www.w3.org/1999/xlink" x="0px" y="0px"
	 viewBox="0 0 300 900" style="enable-background:new 0 0 300 900;" xml:space="preserve">
<style type="text/css">
	.st0{fill:#6B6B6B;}
	.st1{fill:#020202;}
	.st2{fill:#FF7800;}
	.st3{fill:#B0B0B0;}
	.st4{fill:#3C3C3B;fill-opacity:0.5;}
	.st5{fill:#FFFFFF;}
	.st6{fill:url(#圆角矩形_1_拷贝_2_1_);}
	.st7{fill:url(#圆角矩形_2_1_);}
	.st8{fill:#575757;fill-opacity:0.5;}
	.st9{fill:#565656;}
	.st10{fill:#A9A8A9;}
	.st11{fill:#202020;}
	.st12{fill:#A7A7A7;}
	.st13{fill:url(#圆角矩形_4_1_);}
	.st14{fill:url(#圆角矩形_4_拷贝_1_);}
	.st15{fill:#666666;}
	.st16{fill:url(#圆角矩形_3_1_);}
	.st17{fill:#181818;fill-opacity:0.5;}
	.st18{fill:url(#圆角矩形_5_1_);}
	.st19{fill:url(#椭圆_1_1_);}
	.st20{fill:url(#圆角矩形_5-2_1_);}
	.st21{fill:url(#椭圆_1-2_1_);}
	.st22{fill:url(#圆角矩形_6_1_);}
	.st23{fill:#AFAFAF;}
	.st24{fill:#BDBCBC;}
	.st25{fill:#ACACAC;}
</style>
<g id="chelun">
	<path id="圆角矩形_1_拷贝_3" class="st0" d="M254.1,224.6v40c0,1.9-1.6,3.5-3.5,3.5c-1.9,0-3.5-1.6-3.5-3.5v-40
		c0-1.9,1.6-3.5,3.5-3.5C252.5,221.1,254.1,222.7,254.1,224.6z M57.1,224.6v40c0,1.9-1.6,3.5-3.5,3.5s-3.5-1.6-3.5-3.5v-40
		c0-1.9,1.6-3.5,3.5-3.5S57.1,222.7,57.1,224.6z M254.1,626.6v40c0,1.9-1.6,3.5-3.5,3.5c-1.9,0-3.5-1.6-3.5-3.5v-40
		c0-1.9,1.6-3.5,3.5-3.5C252.5,623.1,254.1,624.7,254.1,626.6z M57.1,626.6v40c0,1.9-1.6,3.5-3.5,3.5s-3.5-1.6-3.5-3.5v-40
		c0-1.9,1.6-3.5,3.5-3.5S57.1,624.7,57.1,626.6z"/>
	<path id="圆角矩形_1_拷贝" class="st1" d="M251.9,207.1v77c0,5.5-4.5,10-10,10H62.3c-5.5,0-10-4.5-10-10v-77
		c0-5.5,4.5-10,10-10h179.6C247.4,197.1,251.9,201.6,251.9,207.1z M251.9,608.1v77c0,5.5-4.5,10-10,10H62.3c-5.5,0-10-4.5-10-10v-77
		c0-5.5,4.5-10,10-10h179.6C247.4,598.1,251.9,602.6,251.9,608.1z"/>
</g>
<path id="chechaung" d="M241.1,41.1c0,12.2-43.8,22-91.9,22s-87.1-9.8-87.1-22s39-22,87.1-22S241.1,29,241.1,41.1z"/>
<g id="chedeng">
	<path id="圆角矩形_8" class="st2" d="M247.1,173.6v4c0,2.5-2,4.5-4.5,4.5l0,0c-2.5,0-4.5-2-4.5-4.5v-4c0-2.5,2-4.5,4.5-4.5l0,0
		C245.1,169.1,247.1,171.1,247.1,173.6z"/>
	<path id="圆角矩形_8_拷贝" class="st2" d="M65.1,173.6v4c0,2.5-2,4.5-4.5,4.5l0,0c-2.5,0-4.5-2-4.5-4.5v-4
		c0-2.5,2-4.5,4.5-4.5l0,0C63.1,169.1,65.1,171.1,65.1,173.6z"/>
</g>
<g id="houshi">
	<path id="圆角矩形_9" class="st3" d="M260.1,58.1v7c0,1.7-1.3,3-3,3h-16c-1.7,0-3-1.3-3-3v-7c0-1.7,1.3-3,3-3h16
		C258.8,55.1,260.1,56.4,260.1,58.1z"/>
	<path id="圆角矩形_10" class="st4" d="M254.1,61.1L254.1,61.1c0,0.6-0.4,1-1,1h-1c-0.6,0-1-0.4-1-1l0,0c0-0.6,0.4-1,1-1h1
		C253.7,60.1,254.1,60.5,254.1,61.1z"/>
</g>
<g id="ding">
	<path id="圆角矩形_1" class="st5" d="M244.1,46.1v838c0,6.6-5.4,12-12,12h-161c-6.6,0-12-5.4-12-12v-838c0-6.6,5.4-12,12-12
		c0,0,40.2-8,81.3-8c39.3,0,79.7,8,79.7,8C238.7,34.1,244.1,39.5,244.1,46.1z"/>
	
		<linearGradient id="圆角矩形_1_拷贝_2_1_" gradientUnits="userSpaceOnUse" x1="163" y1="1083" x2="163" y2="897.9999" gradientTransform="matrix(6.123234e-17 1 -1 6.123234e-17 1142.1 298.1454)">
		<stop  offset="0" style="stop-color:#000000;stop-opacity:0.6"/>
		<stop  offset="0.5" style="stop-color:#AFAFAF"/>
		<stop  offset="1" style="stop-color:#000000;stop-opacity:0.6"/>
	</linearGradient>
	<path id="圆角矩形_1_拷贝_2" class="st6" d="M244.1,46.1v838c0,6.6-5.4,12-12,12h-161c-6.6,0-12-5.4-12-12v-838
		c0-6.6,5.4-12,12-12c0,0,40.2-8,81.3-8c39.3,0,79.7,8,79.7,8C238.7,34.1,244.1,39.5,244.1,46.1z"/>
	
		<linearGradient id="圆角矩形_2_1_" gradientUnits="userSpaceOnUse" x1="559" y1="990.4999" x2="593" y2="990.4999" gradientTransform="matrix(6.123234e-17 1 -1 6.123234e-17 1142.1 298.1454)">
		<stop  offset="0" style="stop-color:#AFAFAF;stop-opacity:0"/>
		<stop  offset="0.591" style="stop-color:#AFAFAF;stop-opacity:0.2"/>
		<stop  offset="1" style="stop-color:#000000;stop-opacity:0.502"/>
	</linearGradient>
	<path id="圆角矩形_2" class="st7" d="M244.1,865.1v18c0,4.4-3.6,8-8,8h-169c-4.4,0-8-3.6-8-8v-18c0-4.4,3.6-8,8-8h169
		C240.5,857.1,244.1,860.7,244.1,865.1z"/>
</g>
<g id="houshi2">
	<path id="形状_3" class="st8" d="M249.1,68.1h-1v-3h1V68.1z M249.1,64.1v1h-8v-1H249.1z"/>
	<path id="圆角矩形_13" class="st9" d="M68.1,38.6v20c0,2.5-2,4.5-4.5,4.5l0,0c-2.5,0-4.5-2-4.5-4.5v-20c0-2.5,2-4.5,4.5-4.5
		l0,0C66.1,34.1,68.1,36.1,68.1,38.6z"/>
	<path id="圆角矩形_12" class="st10" d="M59.1,47C55,37.9,42.4,16,42.4,16c-1.4-3,0-6.6,3-7.9l0,0l9.5-5.5c3-1.4,6.6,0,7.9,3
		l0,0l3.8,8.5C66.5,20.4,66,43.2,66,52.6v4.5c0,1.1-0.9,2-2,2h-3c-1.1,0-2-0.9-2-2C59.1,57.1,59.1,50.3,59.1,47z"/>
</g>
<g id="gai01">
	<path id="圆角矩形_4_拷贝_2" class="st11" d="M234.1,80.2l-3.7,64.9c0,9.4-8.4,17.1-18.7,17.1c0,0,2-9.4-2.8-9.4
		c-21.5,0-92.8,0.9-113.4,0.9c-4.4,0-0.9,8.5-0.9,8.5c-10.3,0-18.7-7.6-18.7-17.1l-4.8-64.9c0-9.4,8.4-17.1,18.7-17.1h125.6
		C225.7,63.1,234.1,70.7,234.1,80.2z"/>
	<path id="圆角矩形_4_拷贝_3" class="st12" d="M239.1,66.1l-4,76c0,11-9,20-20,20c0,0,2.2-11-3-11c-23,0-99.1,1-121,1
		c-4.7,0-1,10-1,10c-11,0-20-9-20-20l-5-76c0-11,9-20,20-20h134C230.1,46.1,239.1,55.1,239.1,66.1z"/>
	
		<linearGradient id="圆角矩形_4_1_" gradientUnits="userSpaceOnUse" x1="-194" y1="1077" x2="-194" y2="902.9999" gradientTransform="matrix(6.123234e-17 1 -1 6.123234e-17 1142.1 298.1454)">
		<stop  offset="0" style="stop-color:#000000;stop-opacity:0.6"/>
		<stop  offset="0.5" style="stop-color:#AFAFAF"/>
		<stop  offset="1" style="stop-color:#000000;stop-opacity:0.6"/>
	</linearGradient>
	<path id="圆角矩形_4" class="st13" d="M239.1,66.1l-4,76c0,11-9,20-20,20c0,0,2.2-11-3-11c-23,0-99.1,1-121,1c-4.7,0-1,10-1,10
		c-11,0-20-9-20-20l-5-76c0-11,9-20,20-20h134C230.1,46.1,239.1,55.1,239.1,66.1z"/>
	
		<linearGradient id="圆角矩形_4_拷贝_1_" gradientUnits="userSpaceOnUse" x1="-252" y1="989.9999" x2="-136" y2="989.9999" gradientTransform="matrix(6.123234e-17 1 -1 6.123234e-17 1142.1 298.1454)">
		<stop  offset="0" style="stop-color:#FFFFFF;stop-opacity:0"/>
		<stop  offset="0.5" style="stop-color:#FFFFFF;stop-opacity:0.2"/>
		<stop  offset="1" style="stop-color:#000000;stop-opacity:0.6"/>
	</linearGradient>
	<path id="圆角矩形_4_拷贝" class="st14" d="M239.1,66.1l-4,76c0,11-9,20-20,20c0,0,2.2-11-3-11c-23,0-99.1,1-121,1
		c-4.7,0-1,10-1,10c-11,0-20-9-20-20l-5-76c0-11,9-20,20-20h134C230.1,46.1,239.1,55.1,239.1,66.1z"/>
</g>
<g id="gai02">
	<path id="圆角矩形_3_拷贝" class="st15" d="M234.1,48.1v15c0,2.2-1.8,4-4,4h-154c-2.2,0-4-1.8-4-4v-15c0-2.2,1.8-4,4-4h154
		C232.3,44.1,234.1,45.9,234.1,48.1z"/>
	
		<linearGradient id="圆角矩形_3_1_" gradientUnits="userSpaceOnUse" x1="-255" y1="989.9999" x2="-232" y2="989.9999" gradientTransform="matrix(6.123234e-17 1 -1 6.123234e-17 1142.1 298.1454)">
		<stop  offset="0" style="stop-color:#AFAFAF"/>
		<stop  offset="0.485" style="stop-color:#C9C9C9"/>
		<stop  offset="1" style="stop-color:#AFAFAF"/>
	</linearGradient>
	<path id="圆角矩形_3" class="st16" d="M233.1,47.1v15c0,2.2-1.8,4-4,4h-154c-2.2,0-4-1.8-4-4v-15c0-2.2,1.8-4,4-4h154
		C231.3,43.1,233.1,44.9,233.1,47.1z"/>
</g>
<g id="dingchuang">
	<path id="圆角矩形_5_拷贝" class="st17" d="M176.1,400.1v58c0,2.2-1.8,4-4,4h-47c-2.2,0-4-1.8-4-4v-58c0-2.2,1.8-4,4-4h47
		C174.3,396.1,176.1,397.9,176.1,400.1z"/>
	
		<linearGradient id="圆角矩形_5_1_" gradientUnits="userSpaceOnUse" x1="129" y1="1018.9999" x2="129" y2="963.9999" gradientTransform="matrix(6.123234e-17 1 -1 6.123234e-17 1142.1 298.1454)">
		<stop  offset="0" style="stop-color:#A6A6A6"/>
		<stop  offset="0.5" style="stop-color:#BCBCBC"/>
		<stop  offset="1" style="stop-color:#A6A6A6"/>
	</linearGradient>
	<path id="圆角矩形_5" class="st18" d="M178.1,398.1v58c0,2.2-1.8,4-4,4h-47c-2.2,0-4-1.8-4-4v-58c0-2.2,1.8-4,4-4h47
		C176.3,394.1,178.1,395.9,178.1,398.1z"/>
	
		<linearGradient id="椭圆_1_1_" gradientUnits="userSpaceOnUse" x1="158" y1="997.9999" x2="158" y2="985.9999" gradientTransform="matrix(6.123234e-17 1 -1 6.123234e-17 1142.1 298.1454)">
		<stop  offset="0.2" style="stop-color:#AFAEAF"/>
		<stop  offset="0.251" style="stop-color:#AFAEAF"/>
		<stop  offset="0.654" style="stop-color:#C9C9C9"/>
		<stop  offset="0.8" style="stop-color:#C9C9C9"/>
	</linearGradient>
	<circle id="椭圆_1" class="st19" cx="150.1" cy="456.1" r="6"/>
</g>
<g id="dingchuang2">
	<path id="圆角矩形_5_拷贝-2" class="st17" d="M176.1,718.1v58c0,2.2-1.8,4-4,4h-47c-2.2,0-4-1.8-4-4v-58c0-2.2,1.8-4,4-4h47
		C174.3,714.1,176.1,715.9,176.1,718.1z"/>
	
		<linearGradient id="圆角矩形_5-2_1_" gradientUnits="userSpaceOnUse" x1="447" y1="1018.9999" x2="447" y2="963.9999" gradientTransform="matrix(6.123234e-17 1 -1 6.123234e-17 1142.1 298.1454)">
		<stop  offset="0" style="stop-color:#A6A6A6"/>
		<stop  offset="0.5" style="stop-color:#BCBCBC"/>
		<stop  offset="1" style="stop-color:#A6A6A6"/>
	</linearGradient>
	<path id="圆角矩形_5-2" class="st20" d="M178.1,716.1v58c0,2.2-1.8,4-4,4h-47c-2.2,0-4-1.8-4-4v-58c0-2.2,1.8-4,4-4h47
		C176.3,712.1,178.1,713.9,178.1,716.1z"/>
	
		<linearGradient id="椭圆_1-2_1_" gradientUnits="userSpaceOnUse" x1="476" y1="997.9999" x2="476" y2="985.9999" gradientTransform="matrix(6.123234e-17 1 -1 6.123234e-17 1142.1 298.1454)">
		<stop  offset="0.2" style="stop-color:#AFAEAF"/>
		<stop  offset="0.251" style="stop-color:#AFAEAF"/>
		<stop  offset="0.654" style="stop-color:#C9C9C9"/>
		<stop  offset="0.8" style="stop-color:#C9C9C9"/>
	</linearGradient>
	<circle id="椭圆_1-2" class="st21" cx="150.1" cy="774.1" r="6"/>
</g>
<g id="dingchuang3">
	
		<linearGradient id="圆角矩形_6_1_" gradientUnits="userSpaceOnUse" x1="544" y1="1011.9999" x2="544" y2="967.9999" gradientTransform="matrix(6.123234e-17 1 -1 6.123234e-17 1142.1 298.1454)">
		<stop  offset="0" style="stop-color:#363636"/>
		<stop  offset="0.172" style="stop-color:#999999"/>
		<stop  offset="0.992" style="stop-color:#999999"/>
		<stop  offset="1" style="stop-color:#999999"/>
	</linearGradient>
	<path id="圆角矩形_6" class="st22" d="M174.1,820.1v40c0,2.2-1.8,4-4,4h-36c-2.2,0-4-1.8-4-4v-40l0,0H174.1L174.1,820.1z"/>
	<rect id="矩形_1" x="134.1" y="829.1" class="st23" width="35" height="30"/>
	<path id="形状_1" class="st24" d="M174.1,820.1l-5,9h-35l-4-9H174.1z"/>
</g>
<path id="圆角矩形_7" class="st25" d="M161.1,876.1v9c0,3.3-2.7,6-6,6h-7c-3.3,0-6-2.7-6-6v-9c0-3.3,2.7-6,6-6h7
	C158.4,870.1,161.1,872.8,161.1,876.1z"/>
</svg>
