<?xml version="1.0" encoding="utf-8"?>
<!-- Generator: Adobe Illustrator 22.1.0, SVG Export Plug-In . SVG Version: 6.00 Build 0)  -->
<svg version="1.1" id="组_1" xmlns="http://www.w3.org/2000/svg" xmlns:xlink="http://www.w3.org/1999/xlink" x="0px" y="0px"
	 viewBox="0 0 300 900" style="enable-background:new 0 0 300 900;" xml:space="preserve">
<style type="text/css">
	.st0{fill:#6B6B6B;}
	.st1{fill:#020202;}
	.st2{fill:#FF7800;}
	.st3{fill:#ACACAC;}
	.st4{fill:#FFFFFF;}
	.st5{fill:url(#圆角矩形_1_拷贝_2_1_);}
	.st6{fill:url(#圆角矩形_2_1_);}
	.st7{fill:#565656;}
	.st8{fill:#A9A8A9;}
	.st9{fill:#202020;}
	.st10{fill:#A7A7A7;}
	.st11{fill:url(#圆角矩形_4_1_);}
	.st12{fill:url(#圆角矩形_4_拷贝_1_);}
	.st13{fill:#7E7E7E;}
	.st14{fill:url(#圆角矩形_3_1_);}
	.st15{fill:#181818;fill-opacity:0.5;}
	.st16{fill:url(#圆角矩形_5_1_);}
	.st17{fill:url(#椭圆_1_1_);}
	.st18{fill:url(#圆角矩形_5-2_1_);}
	.st19{fill:url(#椭圆_1-2_1_);}
	.st20{fill:url(#圆角矩形_5-3_1_);}
	.st21{fill:#2C2C2C;}
	.st22{fill:#BCBCBC;}
	.st23{fill:#8E8E8E;}
	.st24{fill:#FFFFFF;fill-opacity:0.3;}
</style>
<g id="chelun">
	<path id="圆角矩形_1_拷贝_3" class="st0" d="M256.1,217.7v40c0,1.9-1.6,3.5-3.5,3.5c-1.9,0-3.5-1.6-3.5-3.5v-40
		c0-1.9,1.6-3.5,3.5-3.5C254.5,214.2,256.1,215.8,256.1,217.7z M59.1,217.7v40c0,1.9-1.6,3.5-3.5,3.5s-3.5-1.6-3.5-3.5v-40
		c0-1.9,1.6-3.5,3.5-3.5S59.1,215.8,59.1,217.7z M256.1,619.7v40c0,1.9-1.6,3.5-3.5,3.5c-1.9,0-3.5-1.6-3.5-3.5v-40
		c0-1.9,1.6-3.5,3.5-3.5C254.5,616.2,256.1,617.8,256.1,619.7z M59.1,619.7v40c0,1.9-1.6,3.5-3.5,3.5s-3.5-1.6-3.5-3.5v-40
		c0-1.9,1.6-3.5,3.5-3.5S59.1,617.8,59.1,619.7z"/>
	<path id="圆角矩形_1_拷贝" class="st1" d="M253.9,200.2v77c0,5.5-4.5,10-10,10H64.3c-5.5,0-10-4.5-10-10v-77
		c0-5.5,4.5-10,10-10h179.6C249.4,190.2,253.9,194.7,253.9,200.2z M253.9,601.2v77c0,5.5-4.5,10-10,10H64.3c-5.5,0-10-4.5-10-10v-77
		c0-5.5,4.5-10,10-10h179.6C249.4,591.2,253.9,595.7,253.9,601.2z"/>
</g>
<path id="chechaung" d="M243.1,34.2c0,12.2-43.8,22-91.9,22s-87.1-9.8-87.1-22s39-22,87.1-22S243.1,22.1,243.1,34.2z"/>
<g id="chedeng">
	<path id="圆角矩形_8" class="st2" d="M249.1,166.7v4c0,2.5-2,4.5-4.5,4.5l0,0c-2.5,0-4.5-2-4.5-4.5v-4c0-2.5,2-4.5,4.5-4.5l0,0
		C247.1,162.2,249.1,164.2,249.1,166.7z"/>
	<path id="圆角矩形_8_拷贝" class="st2" d="M67.1,166.7v4c0,2.5-2,4.5-4.5,4.5l0,0c-2.5,0-4.5-2-4.5-4.5v-4
		c0-2.5,2-4.5,4.5-4.5l0,0C65.1,162.2,67.1,164.2,67.1,166.7z"/>
</g>
<path id="椭圆_2" class="st3" d="M156.1,14.7c0,3.6-1.1,21.5-2.5,21.5s-2.5-17.9-2.5-21.5s1.1-2.5,2.5-2.5S156.1,11.1,156.1,14.7z
	"/>
<g id="ding">
	<path id="圆角矩形_1" class="st4" d="M246.1,39.2v838c0,6.6-5.4,12-12,12h-161c-6.6,0-12-5.4-12-12v-838c0-6.6,5.4-12,12-12
		c0,0,40.2-8,81.3-8c39.3,0,79.7,8,79.7,8C240.7,27.2,246.1,32.6,246.1,39.2z"/>
	
		<linearGradient id="圆角矩形_1_拷贝_2_1_" gradientUnits="userSpaceOnUse" x1="161" y1="1083" x2="161" y2="897.9999" gradientTransform="matrix(6.123234e-17 1 -1 6.123234e-17 1144.1272 293.1727)">
		<stop  offset="0" style="stop-color:#000000;stop-opacity:0.6"/>
		<stop  offset="0.5" style="stop-color:#AFAFAF"/>
		<stop  offset="1" style="stop-color:#000000;stop-opacity:0.6"/>
	</linearGradient>
	<path id="圆角矩形_1_拷贝_2" class="st5" d="M246.1,39.2v838c0,6.6-5.4,12-12,12h-161c-6.6,0-12-5.4-12-12v-838
		c0-6.6,5.4-12,12-12c0,0,40.2-8,81.3-8c39.3,0,79.7,8,79.7,8C240.7,27.2,246.1,32.6,246.1,39.2z"/>
	
		<linearGradient id="圆角矩形_2_1_" gradientUnits="userSpaceOnUse" x1="557" y1="990.4999" x2="591" y2="990.4999" gradientTransform="matrix(6.123234e-17 1 -1 6.123234e-17 1144.1272 293.1727)">
		<stop  offset="0" style="stop-color:#AFAFAF;stop-opacity:0"/>
		<stop  offset="0.591" style="stop-color:#AFAFAF"/>
		<stop  offset="1" style="stop-color:#000000;stop-opacity:0.502"/>
	</linearGradient>
	<path id="圆角矩形_2" class="st6" d="M246.1,858.2v18c0,4.4-3.6,8-8,8h-169c-4.4,0-8-3.6-8-8v-18c0-4.4,3.6-8,8-8h169
		C242.5,850.2,246.1,853.8,246.1,858.2z"/>
</g>
<g id="houshi">
	<path id="圆角矩形_13" class="st7" d="M70.1,34.2v21c0,1.7-1.3,3-3,3h-6c-1.7,0-3-1.3-3-3v-21c0-1.7,1.3-3,3-3h6
		C68.8,31.2,70.1,32.5,70.1,34.2z"/>
	<path id="圆角矩形_12" class="st8" d="M58.1,44.1c-8.5-8-19.7-18-19.7-18c-1.4-3,0-6.6,3-7.9l0,0l11.7-10c3-1.4,7.6,0,9,3
		c2.5,3.5,4.7,7.1,6.6,11c-0.1,6.3-0.6,18.1-0.6,27.5v4.5c0,1.1-0.9,2-2,2h-6c-1.1,0-2-0.9-2-2C58.1,54.2,58.1,47.4,58.1,44.1z"/>
	<path id="圆角矩形_13_拷贝" class="st7" d="M251,33v21.2c0,1.7-1.3,3-3,3h-5.9c-1.7,0-3-1.3-3-3V33c0-1.7,1.3-3,3-3h5.9
		C249.7,30,251,31.3,251,33z"/>
	<path id="圆角矩形_12_拷贝" class="st8" d="M251,42.9c8.5-8.1,19.5-18.1,19.5-18.1c1.4-3,0-6.6-3-8L256,6.7
		c-3-1.4-7.6,0-8.9,3c-2.5,3.5-4.6,7.2-6.5,11.1c0.1,6.4,0.5,18.3,0.5,27.8v4.6c0,1.1,0.9,2,2,2l0,0h6c1.1,0,2-0.9,2-2l0,0
		C251,53.2,251,46.3,251,42.9z"/>
</g>
<g id="gai01">
	<path id="圆角矩形_4_拷贝_2" class="st9" d="M236.1,73.3l-3.7,64.9c0,9.4-8.4,17.1-18.7,17.1c0,0,2-9.4-2.8-9.4
		c-21.5,0-92.8,0.9-113.4,0.9c-4.4,0-0.9,8.5-0.9,8.5c-10.3,0-18.7-7.6-18.7-17.1l-4.8-64.9c0-9.4,8.4-17.1,18.7-17.1h125.6
		C227.7,56.2,236.1,63.8,236.1,73.3z"/>
	<path id="圆角矩形_4_拷贝_3" class="st10" d="M241.1,59.2l-4,76c0,11-9,20-20,20c0,0,2.2-11-3-11c-23,0-99.1,1-121,1
		c-4.7,0-1,10-1,10c-11,0-20-9-20-20l-5-76c0-11,9-20,20-20h134C232.1,39.2,241.1,48.2,241.1,59.2z"/>
	
		<linearGradient id="圆角矩形_4_1_" gradientUnits="userSpaceOnUse" x1="-196" y1="1077" x2="-196" y2="902.9999" gradientTransform="matrix(6.123234e-17 1 -1 6.123234e-17 1144.1272 293.1727)">
		<stop  offset="0" style="stop-color:#000000;stop-opacity:0.6"/>
		<stop  offset="0.5" style="stop-color:#AFAFAF"/>
		<stop  offset="1" style="stop-color:#000000;stop-opacity:0.6"/>
	</linearGradient>
	<path id="圆角矩形_4" class="st11" d="M241.1,59.2l-4,76c0,11-9,20-20,20c0,0,2.2-11-3-11c-23,0-99.1,1-121,1c-4.7,0-1,10-1,10
		c-11,0-20-9-20-20l-5-76c0-11,9-20,20-20h134C232.1,39.2,241.1,48.2,241.1,59.2z"/>
	
		<linearGradient id="圆角矩形_4_拷贝_1_" gradientUnits="userSpaceOnUse" x1="-254" y1="989.9999" x2="-138" y2="989.9999" gradientTransform="matrix(6.123234e-17 1 -1 6.123234e-17 1144.1272 293.1727)">
		<stop  offset="0.4644" style="stop-color:#FFFFFF;stop-opacity:0"/>
		<stop  offset="0.8067" style="stop-color:#FFFFFF;stop-opacity:0.2"/>
		<stop  offset="1" style="stop-color:#000000;stop-opacity:0.6"/>
	</linearGradient>
	<path id="圆角矩形_4_拷贝" class="st12" d="M241.1,59.2l-4,76c0,11-9,20-20,20c0,0,2.2-11-3-11c-23,0-99.1,1-121,1
		c-4.7,0-1,10-1,10c-11,0-20-9-20-20l-5-76c0-11,9-20,20-20h134C232.1,39.2,241.1,48.2,241.1,59.2z"/>
</g>
<g id="gai02">
	<path id="圆角矩形_3_拷贝_2" class="st13" d="M236.1,40.7c0,0,4,6.7,4,9.5c0,2.7-4,2-4,2c0,0.3-0.2,0-0.5,0h-161
		c-0.3,0-0.5,0.3-0.5,0c0,0-4,0.7-4-2c0-2.8,4-9.5,4-9.5c0-0.3,0.2-0.5,0.5-0.5h161C235.9,40.2,236.1,40.4,236.1,40.7z"/>
	
		<linearGradient id="圆角矩形_3_1_" gradientUnits="userSpaceOnUse" x1="-254" y1="989.9999" x2="-241.8667" y2="989.9999" gradientTransform="matrix(6.123234e-17 1 -1 6.123234e-17 1144.1272 293.1727)">
		<stop  offset="0" style="stop-color:#4E4E4E"/>
		<stop  offset="0.8142" style="stop-color:#C9C9C9;stop-opacity:0.1"/>
		<stop  offset="1" style="stop-color:#868685;stop-opacity:0.2"/>
	</linearGradient>
	<path id="圆角矩形_3" class="st14" d="M235.1,39.7c0,0,4,6.7,4,9.5c0,2.7-4,2-4,2c0,0.3-0.2,0-0.5,0h-161c-0.3,0-0.5,0.3-0.5,0
		c0,0-4,0.7-4-2c0-2.8,4-9.5,4-9.5c0-0.3,0.2-0.5,0.5-0.5h161C234.9,39.2,235.1,39.4,235.1,39.7z"/>
</g>
<g id="dingchuang">
	<path id="圆角矩形_5_拷贝" class="st15" d="M212.1,153.2v78c0,2.2-1.8,4-4,4h-107c-2.2,0-4-1.8-4-4v-78c0-2.2,1.8-4,4-4h107
		C210.3,149.2,212.1,151,212.1,153.2z"/>
	
		<linearGradient id="圆角矩形_5_1_" gradientUnits="userSpaceOnUse" x1="-103" y1="1045" x2="-103" y2="929.9999" gradientTransform="matrix(6.123234e-17 1 -1 6.123234e-17 1144.1272 293.1727)">
		<stop  offset="0" style="stop-color:#A6A6A6"/>
		<stop  offset="0.5" style="stop-color:#BCBCBC"/>
		<stop  offset="1" style="stop-color:#A6A6A6"/>
	</linearGradient>
	<path id="圆角矩形_5" class="st16" d="M214.1,151.2v78c0,2.2-1.8,4-4,4h-107c-2.2,0-4-1.8-4-4v-78c0-2.2,1.8-4,4-4h107
		C212.3,147.2,214.1,149,214.1,151.2z"/>
	
		<linearGradient id="椭圆_1_1_" gradientUnits="userSpaceOnUse" x1="-63" y1="993.9999" x2="-63" y2="981.9999" gradientTransform="matrix(6.123234e-17 1 -1 6.123234e-17 1144.1272 293.1727)">
		<stop  offset="0.2" style="stop-color:#AFAEAF"/>
		<stop  offset="0.251" style="stop-color:#AFAEAF"/>
		<stop  offset="0.654" style="stop-color:#C9C9C9"/>
		<stop  offset="0.8" style="stop-color:#C9C9C9"/>
	</linearGradient>
	<circle id="椭圆_1" class="st17" cx="156.1" cy="230.2" r="6"/>
</g>
<g id="dingchuang_拷贝">
	<path id="圆角矩形_5_拷贝-2" class="st15" d="M212.1,455.2v78c0,2.2-1.8,4-4,4h-107c-2.2,0-4-1.8-4-4v-78c0-2.2,1.8-4,4-4
		h107C210.3,451.2,212.1,453,212.1,455.2z"/>
	
		<linearGradient id="圆角矩形_5-2_1_" gradientUnits="userSpaceOnUse" x1="199" y1="1045" x2="199" y2="929.9999" gradientTransform="matrix(6.123234e-17 1 -1 6.123234e-17 1144.1272 293.1727)">
		<stop  offset="0" style="stop-color:#A6A6A6"/>
		<stop  offset="0.5" style="stop-color:#BCBCBC"/>
		<stop  offset="1" style="stop-color:#A6A6A6"/>
	</linearGradient>
	<path id="圆角矩形_5-2" class="st18" d="M214.1,453.2v78c0,2.2-1.8,4-4,4h-107c-2.2,0-4-1.8-4-4v-78c0-2.2,1.8-4,4-4h107
		C212.3,449.2,214.1,451,214.1,453.2z"/>
	
		<linearGradient id="椭圆_1-2_1_" gradientUnits="userSpaceOnUse" x1="239" y1="993.9999" x2="239" y2="981.9999" gradientTransform="matrix(6.123234e-17 1 -1 6.123234e-17 1144.1272 293.1727)">
		<stop  offset="0.2" style="stop-color:#AFAEAF"/>
		<stop  offset="0.251" style="stop-color:#AFAEAF"/>
		<stop  offset="0.654" style="stop-color:#C9C9C9"/>
		<stop  offset="0.8" style="stop-color:#C9C9C9"/>
	</linearGradient>
	<circle id="椭圆_1-2" class="st19" cx="156.1" cy="532.2" r="6"/>
</g>
<g id="kongtiao">
	<path id="圆角矩形_5_拷贝-3" class="st15" d="M230.1,776.2v78c0,2.2-1.8,4-4,4h-147c-2.2,0-4-1.8-4-4v-78c0-2.2,1.8-4,4-4
		h147C228.3,772.2,230.1,774,230.1,776.2z"/>
	
		<linearGradient id="圆角矩形_5-3_1_" gradientUnits="userSpaceOnUse" x1="526" y1="1069" x2="526" y2="913.9999" gradientTransform="matrix(6.123234e-17 1 -1 6.123234e-17 1144.1272 293.1727)">
		<stop  offset="0" style="stop-color:#000000"/>
		<stop  offset="0.228" style="stop-color:#BBBBBA"/>
		<stop  offset="0.495" style="stop-color:#BCBCBC"/>
		<stop  offset="0.823" style="stop-color:#BCBCBC"/>
		<stop  offset="1" style="stop-color:#636363"/>
	</linearGradient>
	<path id="圆角矩形_5-3" class="st20" d="M230.1,780.2v78c0,2.2-1.8,4-4,4h-147c-2.2,0-4-1.8-4-4v-78c0-2.2,1.8-4,4-4h147
		C228.3,776.2,230.1,778,230.1,780.2z"/>
	<path id="椭圆D" class="st21" d="M222.7,817.7c0,18.9-15.3,34.2-34.2,34.2s-34.2-15.3-34.2-34.2s15.3-34.2,34.2-34.2
		S222.7,798.8,222.7,817.7L222.7,817.7z M150.9,817.7c0,18.9-15.3,34.2-34.2,34.2s-34.2-15.3-34.2-34.2s15.3-34.2,34.2-34.2
		S150.9,798.8,150.9,817.7L150.9,817.7L150.9,817.7z"/>
	<path id="椭圆_2_拷贝" class="st22" d="M200.7,800.9l0.8,0.6l-24,33l-0.8-0.6L200.7,800.9z M209.2,814l0.2,1l-40.3,6.4l-0.2-1
		L209.2,814z M205.9,829.3l-0.6,0.8l-33-24l0.6-0.8L205.9,829.3z M192.8,837.8l-1,0.2l-6.4-40.3l1-0.2L192.8,837.8z M206.4,806.9
		l0.5,0.9l-35.2,20.7l-0.5-0.9L206.4,806.9z M209,822.3l-0.3,1l-39.5-10.2l0.3-1L209,822.3z M199.9,835l-0.9,0.5l-20.7-35.2l0.9-0.5
		L199.9,835z M184.5,837.6l-1-0.3l10.2-39.5l1,0.3L184.5,837.6z M197.9,818.2c0,5.4-4.4,9.8-9.8,9.8c-5.4,0-9.8-4.4-9.8-9.8
		c0-5.4,4.4-9.8,9.8-9.8l0,0C193.5,808.4,197.9,812.8,197.9,818.2z M128.7,800.9l0.8,0.6l-24,33l-0.8-0.6L128.7,800.9z M137.2,814
		l0.2,1l-40.3,6.4l-0.2-1L137.2,814z M133.9,829.3l-0.6,0.8l-33-24l0.6-0.8L133.9,829.3z M120.8,837.8l-1,0.2l-6.4-40.3l1-0.2
		L120.8,837.8z M134.4,806.9l0.5,0.9l-35.2,20.7l-0.5-0.9L134.4,806.9z M137,822.3l-0.3,1l-39.5-10.2l0.3-1L137,822.3z M127.9,835
		l-0.9,0.5l-20.7-35.2l0.9-0.5L127.9,835z M112.5,837.6l-1-0.3l10.2-39.5l1,0.3L112.5,837.6z M125.9,818.2c0,5.4-4.4,9.8-9.8,9.8
		c-5.4,0-9.8-4.4-9.8-9.8c0-5.4,4.4-9.8,9.8-9.8l0,0C121.5,808.4,125.9,812.8,125.9,818.2z"/>
	<path id="形状D0" class="st23" d="M188.6,848.2c-16.8,0-30.5-13.7-30.5-30.5s13.7-30.5,30.5-30.5s30.5,13.7,30.5,30.5
		S205.4,848.2,188.6,848.2z M208.4,817.7c0-10.9-8.9-19.8-19.8-19.8c-10.9,0-19.8,8.9-19.8,19.8c0,10.9,8.9,19.8,19.8,19.8
		C199.5,837.5,208.4,828.6,208.4,817.7L208.4,817.7z M116.6,848.2c-16.8,0-30.5-13.7-30.5-30.5s13.7-30.5,30.5-30.5
		s30.5,13.7,30.5,30.5S133.4,848.2,116.6,848.2L116.6,848.2z M136.4,817.7c0-10.9-8.9-19.8-19.8-19.8s-19.8,8.9-19.8,19.8
		c0,10.9,8.9,19.8,19.8,19.8C127.5,837.5,136.4,828.6,136.4,817.7L136.4,817.7z"/>
	<path id="形状D1" class="st10" d="M188.6,846.4c-15.8,0-28.7-12.8-28.7-28.7c0-15.8,12.8-28.7,28.7-28.7s28.7,12.8,28.7,28.7l0,0
		C217.3,833.5,204.4,846.4,188.6,846.4z M210,817.7c0-11.8-9.6-21.4-21.4-21.4l0,0c-11.8,0-19.8,10.5-19.8,21.4s8,21.4,19.8,21.4
		S210,829.5,210,817.7L210,817.7z M116.6,846.4c-15.8,0-28.7-12.8-28.7-28.7c0-15.8,12.8-28.7,28.7-28.7s28.7,12.8,28.7,28.7l0,0
		C145.3,833.5,132.4,846.4,116.6,846.4z M138,817.7c0-11.8-9.6-21.4-21.4-21.4l0,0c-11.8,0-19.8,10.5-19.8,21.4s8,21.4,19.8,21.4
		S138,829.5,138,817.7L138,817.7z"/>
	<path id="形状_D2" class="st24" d="M188.6,843.5c-14.2,0-25.8-11.6-25.8-25.8s11.6-25.8,25.8-25.8c14.2,0,25.8,11.6,25.8,25.8
		l0,0C214.4,831.9,202.8,843.5,188.6,843.5z M212.3,817.7c0-13.2-10.7-23.9-23.9-23.9c-13.2,0-22.1,11.7-22.1,23.9
		s8.9,23.9,22.1,23.9C201.6,841.6,212.3,830.9,212.3,817.7z M116.6,843.5c-14.2,0-25.8-11.6-25.8-25.8s11.6-25.8,25.8-25.8
		s25.8,11.6,25.8,25.8l0,0C142.4,831.9,130.8,843.5,116.6,843.5z M140.3,817.7c0-13.2-10.7-23.9-23.9-23.9s-22.1,11.7-22.1,23.9
		s8.9,23.9,22.1,23.9S140.3,830.9,140.3,817.7z"/>
</g>
<path id="圆角矩形_7" class="st3" d="M163.1,869.2v9c0,3.3-2.7,6-6,6h-7c-3.3,0-6-2.7-6-6v-9c0-3.3,2.7-6,6-6h7
	C160.4,863.2,163.1,865.9,163.1,869.2z"/>
</svg>
