<?xml version="1.0" encoding="UTF-8" standalone="no"?>
<!DOCTYPE svg PUBLIC "-//W3C//DTD SVG 1.1//EN" "http://www.w3.org/Graphics/SVG/1.1/DTD/svg11.dtd">
<svg width="100%" height="100%" viewBox="0 0 1780 531" version="1.1" xmlns="http://www.w3.org/2000/svg" xmlns:xlink="http://www.w3.org/1999/xlink" xml:space="preserve" xmlns:serif="http://www.serif.com/" style="fill-rule:evenodd;clip-rule:evenodd;stroke-linejoin:round;stroke-miterlimit:2;">
    <g id="画板1" transform="matrix(1,0,0,1,764.577,-228.818)">
        <g transform="matrix(-1,-1.22465e-16,1.22465e-16,-1,257.326,957.737)">
            <rect x="-764.577" y="228.818" width="1779.23" height="530.076" style="fill:none;"/>
        </g>
        <g id="chelun" transform="matrix(-1,-1.22465e-16,1.22465e-16,-1,256.903,956.919)">
            <g id="圆角矩形_1_拷贝_3" transform="matrix(6.12323e-17,-1,1,6.12323e-17,-258.321,621.878)">
                <path d="M256.1,217.7L256.1,257.7C256.1,259.6 254.5,261.2 252.6,261.2C250.7,261.2 249.1,259.6 249.1,257.7L249.1,217.7C249.1,215.8 250.7,214.2 252.6,214.2C254.5,214.2 256.1,215.8 256.1,217.7ZM59.1,217.7L59.1,257.7C59.1,259.6 57.5,261.2 55.6,261.2C53.7,261.2 52.1,259.6 52.1,257.7L52.1,217.7C52.1,215.8 53.7,214.2 55.6,214.2C57.5,214.2 59.1,215.8 59.1,217.7ZM256.1,619.7L256.1,659.7C256.1,661.6 254.5,663.2 252.6,663.2C250.7,663.2 249.1,661.6 249.1,659.7L249.1,619.7C249.1,617.8 250.7,616.2 252.6,616.2C254.5,616.2 256.1,617.8 256.1,619.7ZM59.1,619.7L59.1,659.7C59.1,661.6 57.5,663.2 55.6,663.2C53.7,663.2 52.1,661.6 52.1,659.7L52.1,619.7C52.1,617.8 53.7,616.2 55.6,616.2C57.5,616.2 59.1,617.8 59.1,619.7Z" style="fill:rgb(107,107,107);fill-rule:nonzero;"/>
            </g>
            <g id="圆角矩形_1_拷贝" transform="matrix(6.12323e-17,-1,1,6.12323e-17,-258.321,621.878)">
                <path d="M253.9,200.2L253.9,277.2C253.9,282.7 249.4,287.2 243.9,287.2L64.3,287.2C58.8,287.2 54.3,282.7 54.3,277.2L54.3,200.2C54.3,194.7 58.8,190.2 64.3,190.2L243.9,190.2C249.4,190.2 253.9,194.7 253.9,200.2ZM253.9,601.2L253.9,678.2C253.9,683.7 249.4,688.2 243.9,688.2L64.3,688.2C58.8,688.2 54.3,683.7 54.3,678.2L54.3,601.2C54.3,595.7 58.8,591.2 64.3,591.2L243.9,591.2C249.4,591.2 253.9,595.7 253.9,601.2Z" style="fill:rgb(2,2,2);fill-rule:nonzero;"/>
            </g>
        </g>
        <g id="chechaung" transform="matrix(-1.83697e-16,1,-1,-1.83697e-16,515.224,335.04)">
            <path d="M243.1,34.2C243.1,46.4 199.3,56.2 151.2,56.2C103.1,56.2 64.1,46.4 64.1,34.2C64.1,22 103.1,12.2 151.2,12.2C199.3,12.2 243.1,22.1 243.1,34.2Z" style="fill-rule:nonzero;"/>
        </g>
        <g id="chedeng" transform="matrix(-1,-1.22465e-16,1.22465e-16,-1,256.903,956.919)">
            <g id="圆角矩形_8" transform="matrix(6.12323e-17,-1,1,6.12323e-17,-258.321,621.878)">
                <path d="M249.1,166.7L249.1,170.7C249.1,173.2 247.1,175.2 244.6,175.2C242.1,175.2 240.1,173.2 240.1,170.7L240.1,166.7C240.1,164.2 242.1,162.2 244.6,162.2C247.1,162.2 249.1,164.2 249.1,166.7Z" style="fill:rgb(255,120,0);fill-rule:nonzero;"/>
            </g>
            <g id="圆角矩形_8_拷贝" transform="matrix(6.12323e-17,-1,1,6.12323e-17,-258.321,621.878)">
                <path d="M67.1,166.7L67.1,170.7C67.1,173.2 65.1,175.2 62.6,175.2C60.1,175.2 58.1,173.2 58.1,170.7L58.1,166.7C58.1,164.2 60.1,162.2 62.6,162.2C65.1,162.2 67.1,164.2 67.1,166.7Z" style="fill:rgb(255,120,0);fill-rule:nonzero;"/>
            </g>
        </g>
        <g id="椭圆_2" transform="matrix(-1.83697e-16,1,-1,-1.83697e-16,515.224,335.04)">
            <path d="M156.1,14.7C156.1,18.3 155,36.2 153.6,36.2C152.2,36.2 151.1,18.3 151.1,14.7C151.1,11.1 152.2,12.2 153.6,12.2C155,12.2 156.1,11.1 156.1,14.7Z" style="fill:rgb(0,73,208);fill-rule:nonzero;"/>
        </g>
        <g id="ding" transform="matrix(-1,-1.22465e-16,1.22465e-16,-1,256.903,956.919)">
            <g id="圆角矩形_1" transform="matrix(6.12323e-17,-1,1,6.12323e-17,-258.321,621.878)">
                <path d="M246.1,39.2L246.1,877.2C246.1,883.8 240.7,889.2 234.1,889.2L73.1,889.2C66.5,889.2 61.1,883.8 61.1,877.2L61.1,39.2C61.1,32.6 66.5,27.2 73.1,27.2C73.1,27.2 113.3,19.2 154.4,19.2C193.7,19.2 234.1,27.2 234.1,27.2C240.7,27.2 246.1,32.6 246.1,39.2Z" style="fill:rgb(59,156,255);fill-rule:nonzero;"/>
            </g>
            <g id="圆角矩形_1_拷贝_2" transform="matrix(6.12323e-17,-1,1,6.12323e-17,-258.321,621.878)">
                <path d="M246.1,39.2L246.1,877.2C246.1,883.8 240.7,889.2 234.1,889.2L73.1,889.2C66.5,889.2 61.1,883.8 61.1,877.2L61.1,39.2C61.1,32.6 66.5,27.2 73.1,27.2C73.1,27.2 113.3,19.2 154.4,19.2C193.7,19.2 234.1,27.2 234.1,27.2C240.7,27.2 246.1,32.6 246.1,39.2Z" style="fill:url(#_Linear1);fill-rule:nonzero;"/>
            </g>
            <g id="圆角矩形_2" transform="matrix(6.12323e-17,-1,1,6.12323e-17,-258.321,621.878)">
                <path d="M246.1,858.2L246.1,876.2C246.1,880.6 242.5,884.2 238.1,884.2L69.1,884.2C64.7,884.2 61.1,880.6 61.1,876.2L61.1,858.2C61.1,853.8 64.7,850.2 69.1,850.2L238.1,850.2C242.5,850.2 246.1,853.8 246.1,858.2Z" style="fill:url(#_Linear2);fill-rule:nonzero;"/>
            </g>
        </g>
        <g id="houshi" transform="matrix(-1,-1.22465e-16,1.22465e-16,-1,256.903,956.919)">
            <g id="圆角矩形_13" transform="matrix(6.12323e-17,-1,1,6.12323e-17,-258.321,621.878)">
                <path d="M70.1,34.2L70.1,55.2C70.1,56.9 68.8,58.2 67.1,58.2L61.1,58.2C59.4,58.2 58.1,56.9 58.1,55.2L58.1,34.2C58.1,32.5 59.4,31.2 61.1,31.2L67.1,31.2C68.8,31.2 70.1,32.5 70.1,34.2Z" style="fill:rgb(0,0,122);fill-rule:nonzero;"/>
            </g>
            <g id="圆角矩形_12" transform="matrix(6.12323e-17,-1,1,6.12323e-17,-258.321,621.878)">
                <path d="M58.1,44.1C49.6,36.1 38.4,26.1 38.4,26.1C37,23.1 38.4,19.5 41.4,18.2L53.1,8.2C56.1,6.8 60.7,8.2 62.1,11.2C64.6,14.7 66.8,18.3 68.7,22.2C68.6,28.5 68.1,40.3 68.1,49.7L68.1,54.2C68.1,55.3 67.2,56.2 66.1,56.2L60.1,56.2C59,56.2 58.1,55.3 58.1,54.2L58.1,44.1Z" style="fill:rgb(0,69,205);fill-rule:nonzero;"/>
            </g>
            <g id="圆角矩形_13_拷贝" transform="matrix(6.12323e-17,-1,1,6.12323e-17,-258.321,621.878)">
                <path d="M251,33L251,54.2C251,55.9 249.7,57.2 248,57.2L242.1,57.2C240.4,57.2 239.1,55.9 239.1,54.2L239.1,33C239.1,31.3 240.4,30 242.1,30L248,30C249.7,30 251,31.3 251,33Z" style="fill:rgb(0,0,122);fill-rule:nonzero;"/>
            </g>
            <g id="圆角矩形_12_拷贝" transform="matrix(6.12323e-17,-1,1,6.12323e-17,-258.321,621.878)">
                <path d="M251,42.9C259.5,34.8 270.5,24.8 270.5,24.8C271.9,21.8 270.5,18.2 267.5,16.8L256,6.7C253,5.3 248.4,6.7 247.1,9.7C244.6,13.2 242.5,16.9 240.6,20.8C240.7,27.2 241.1,39.1 241.1,48.6L241.1,53.2C241.1,54.3 242,55.2 243.1,55.2L249.1,55.2C250.2,55.2 251.1,54.3 251.1,53.2C251,53.2 251,46.3 251,42.9Z" style="fill:rgb(0,69,205);fill-rule:nonzero;"/>
            </g>
        </g>
        <g id="gai01" transform="matrix(-1,-1.22465e-16,1.22465e-16,-1,256.903,956.919)">
            <g id="圆角矩形_4_拷贝_2" transform="matrix(6.12323e-17,-1,1,6.12323e-17,-258.321,621.878)">
                <path d="M236.1,73.3L232.4,138.2C232.4,147.6 224,155.3 213.7,155.3C213.7,155.3 215.7,145.9 210.9,145.9C189.4,145.9 118.1,146.8 97.5,146.8C93.1,146.8 96.6,155.3 96.6,155.3C86.3,155.3 77.9,147.7 77.9,138.2L73.1,73.3C73.1,63.9 81.5,56.2 91.8,56.2L217.4,56.2C227.7,56.2 236.1,63.8 236.1,73.3Z" style="fill:rgb(0,0,68);fill-rule:nonzero;"/>
            </g>
            <g id="圆角矩形_4_拷贝_3" transform="matrix(6.12323e-17,-1,1,6.12323e-17,-258.321,621.878)">
                <path d="M241.1,59.2L237.1,135.2C237.1,146.2 228.1,155.2 217.1,155.2C217.1,155.2 219.3,144.2 214.1,144.2C191.1,144.2 115,145.2 93.1,145.2C88.4,145.2 92.1,155.2 92.1,155.2C81.1,155.2 72.1,146.2 72.1,135.2L67.1,59.2C67.1,48.2 76.1,39.2 87.1,39.2L221.1,39.2C232.1,39.2 241.1,48.2 241.1,59.2Z" style="fill:rgb(0,68,203);fill-rule:nonzero;"/>
            </g>
            <g id="圆角矩形_4" transform="matrix(6.12323e-17,-1,1,6.12323e-17,-258.321,621.878)">
                <path d="M241.1,59.2L237.1,135.2C237.1,146.2 228.1,155.2 217.1,155.2C217.1,155.2 219.3,144.2 214.1,144.2C191.1,144.2 115,145.2 93.1,145.2C88.4,145.2 92.1,155.2 92.1,155.2C81.1,155.2 72.1,146.2 72.1,135.2L67.1,59.2C67.1,48.2 76.1,39.2 87.1,39.2L221.1,39.2C232.1,39.2 241.1,48.2 241.1,59.2Z" style="fill:url(#_Linear3);fill-rule:nonzero;"/>
            </g>
            <g id="圆角矩形_4_拷贝" transform="matrix(6.12323e-17,-1,1,6.12323e-17,-258.321,621.878)">
                <path d="M241.1,59.2L237.1,135.2C237.1,146.2 228.1,155.2 217.1,155.2C217.1,155.2 219.3,144.2 214.1,144.2C191.1,144.2 115,145.2 93.1,145.2C88.4,145.2 92.1,155.2 92.1,155.2C81.1,155.2 72.1,146.2 72.1,135.2L67.1,59.2C67.1,48.2 76.1,39.2 87.1,39.2L221.1,39.2C232.1,39.2 241.1,48.2 241.1,59.2Z" style="fill:url(#_Linear4);fill-rule:nonzero;"/>
            </g>
        </g>
        <g id="gai02" transform="matrix(-1,-1.22465e-16,1.22465e-16,-1,256.903,956.919)">
            <g id="圆角矩形_3_拷贝_2" transform="matrix(6.12323e-17,-1,1,6.12323e-17,-258.321,621.878)">
                <path d="M236.1,40.7C236.1,40.7 240.1,47.4 240.1,50.2C240.1,52.9 236.1,52.2 236.1,52.2C236.1,52.5 235.9,52.2 235.6,52.2L74.6,52.2C74.3,52.2 74.1,52.5 74.1,52.2C74.1,52.2 70.1,52.9 70.1,50.2C70.1,47.4 74.1,40.7 74.1,40.7C74.1,40.4 74.3,40.2 74.6,40.2L235.6,40.2C235.9,40.2 236.1,40.4 236.1,40.7Z" style="fill:rgb(0,27,162);fill-rule:nonzero;"/>
            </g>
            <g id="圆角矩形_3" transform="matrix(6.12323e-17,-1,1,6.12323e-17,-258.321,621.878)">
                <path d="M235.1,39.7C235.1,39.7 239.1,46.4 239.1,49.2C239.1,51.9 235.1,51.2 235.1,51.2C235.1,51.5 234.9,51.2 234.6,51.2L73.6,51.2C73.3,51.2 73.1,51.5 73.1,51.2C73.1,51.2 69.1,51.9 69.1,49.2C69.1,46.4 73.1,39.7 73.1,39.7C73.1,39.4 73.3,39.2 73.6,39.2L234.6,39.2C234.9,39.2 235.1,39.4 235.1,39.7Z" style="fill:url(#_Linear5);fill-rule:nonzero;"/>
            </g>
        </g>
        <g id="dingchuang" transform="matrix(-1,-1.22465e-16,1.22465e-16,-1,256.903,956.919)">
            <g id="圆角矩形_5_拷贝" transform="matrix(6.12323e-17,-1,1,6.12323e-17,-258.321,621.878)">
                <path d="M212.1,153.2L212.1,231.2C212.1,233.4 210.3,235.2 208.1,235.2L101.1,235.2C98.9,235.2 97.1,233.4 97.1,231.2L97.1,153.2C97.1,151 98.9,149.2 101.1,149.2L208.1,149.2C210.3,149.2 212.1,151 212.1,153.2Z" style="fill:rgb(0,0,60);fill-opacity:0.5;fill-rule:nonzero;"/>
            </g>
            <g id="圆角矩形_5" transform="matrix(6.12323e-17,-1,1,6.12323e-17,-258.321,621.878)">
                <path d="M214.1,151.2L214.1,229.2C214.1,231.4 212.3,233.2 210.1,233.2L103.1,233.2C100.9,233.2 99.1,231.4 99.1,229.2L99.1,151.2C99.1,149 100.9,147.2 103.1,147.2L210.1,147.2C212.3,147.2 214.1,149 214.1,151.2Z" style="fill:url(#_Linear6);fill-rule:nonzero;"/>
            </g>
            <g id="椭圆_1" transform="matrix(6.12323e-17,-1,1,6.12323e-17,-258.321,621.878)">
                <circle cx="156.1" cy="230.2" r="6" style="fill:url(#_Linear7);"/>
            </g>
        </g>
        <g id="dingchuang_拷贝" transform="matrix(-1,-1.22465e-16,1.22465e-16,-1,256.903,956.919)">
            <g id="圆角矩形_5_拷贝-2" transform="matrix(6.12323e-17,-1,1,6.12323e-17,-258.321,621.878)">
                <path d="M212.1,455.2L212.1,533.2C212.1,535.4 210.3,537.2 208.1,537.2L101.1,537.2C98.9,537.2 97.1,535.4 97.1,533.2L97.1,455.2C97.1,453 98.9,451.2 101.1,451.2L208.1,451.2C210.3,451.2 212.1,453 212.1,455.2Z" style="fill:rgb(0,0,60);fill-opacity:0.5;fill-rule:nonzero;"/>
            </g>
            <g id="圆角矩形_5-2" transform="matrix(6.12323e-17,-1,1,6.12323e-17,-258.321,621.878)">
                <path d="M214.1,453.2L214.1,531.2C214.1,533.4 212.3,535.2 210.1,535.2L103.1,535.2C100.9,535.2 99.1,533.4 99.1,531.2L99.1,453.2C99.1,451 100.9,449.2 103.1,449.2L210.1,449.2C212.3,449.2 214.1,451 214.1,453.2Z" style="fill:url(#_Linear8);fill-rule:nonzero;"/>
            </g>
            <g id="椭圆_1-2" transform="matrix(6.12323e-17,-1,1,6.12323e-17,-258.321,621.878)">
                <circle cx="156.1" cy="532.2" r="6" style="fill:url(#_Linear9);"/>
            </g>
        </g>
        <g id="kongtiao" transform="matrix(-1,-1.22465e-16,1.22465e-16,-1,256.903,956.919)">
            <g id="圆角矩形_5_拷贝-3" transform="matrix(6.12323e-17,-1,1,6.12323e-17,-258.321,621.878)">
                <path d="M230.1,776.2L230.1,854.2C230.1,856.4 228.3,858.2 226.1,858.2L79.1,858.2C76.9,858.2 75.1,856.4 75.1,854.2L75.1,776.2C75.1,774 76.9,772.2 79.1,772.2L226.1,772.2C228.3,772.2 230.1,774 230.1,776.2Z" style="fill:rgb(0,0,60);fill-opacity:0.5;fill-rule:nonzero;"/>
            </g>
            <g id="圆角矩形_5-3" transform="matrix(6.12323e-17,-1,1,6.12323e-17,-258.321,621.878)">
                <path d="M230.1,780.2L230.1,858.2C230.1,860.4 228.3,862.2 226.1,862.2L79.1,862.2C76.9,862.2 75.1,860.4 75.1,858.2L75.1,780.2C75.1,778 76.9,776.2 79.1,776.2L226.1,776.2C228.3,776.2 230.1,778 230.1,780.2Z" style="fill:url(#_Linear10);fill-rule:nonzero;"/>
            </g>
            <g id="椭圆D" transform="matrix(6.12323e-17,-1,1,6.12323e-17,-258.321,621.878)">
                <path d="M222.7,817.7C222.7,836.6 207.4,851.9 188.5,851.9C169.6,851.9 154.3,836.6 154.3,817.7C154.3,798.8 169.6,783.5 188.5,783.5C207.4,783.5 222.7,798.8 222.7,817.7ZM150.9,817.7C150.9,836.6 135.6,851.9 116.7,851.9C97.8,851.9 82.5,836.6 82.5,817.7C82.5,798.8 97.8,783.5 116.7,783.5C135.6,783.5 150.9,798.8 150.9,817.7Z" style="fill:rgb(44,44,44);fill-rule:nonzero;"/>
            </g>
            <g id="椭圆_2_拷贝" transform="matrix(6.12323e-17,-1,1,6.12323e-17,-258.321,621.878)">
                <path d="M200.7,800.9L201.5,801.5L177.5,834.5L176.7,833.9L200.7,800.9ZM209.2,814L209.4,815L169.1,821.4L168.9,820.4L209.2,814ZM205.9,829.3L205.3,830.1L172.3,806.1L172.9,805.3L205.9,829.3ZM192.8,837.8L191.8,838L185.4,797.7L186.4,797.5L192.8,837.8ZM206.4,806.9L206.9,807.8L171.7,828.5L171.2,827.6L206.4,806.9ZM209,822.3L208.7,823.3L169.2,813.1L169.5,812.1L209,822.3ZM199.9,835L199,835.5L178.3,800.3L179.2,799.8L199.9,835ZM184.5,837.6L183.5,837.3L193.7,797.8L194.7,798.1L184.5,837.6ZM197.9,818.2C197.9,823.6 193.5,828 188.1,828C182.7,828 178.3,823.6 178.3,818.2C178.3,812.8 182.7,808.4 188.1,808.4C193.5,808.4 197.9,812.8 197.9,818.2ZM128.7,800.9L129.5,801.5L105.5,834.5L104.7,833.9L128.7,800.9ZM137.2,814L137.4,815L97.1,821.4L96.9,820.4L137.2,814ZM133.9,829.3L133.3,830.1L100.3,806.1L100.9,805.3L133.9,829.3ZM120.8,837.8L119.8,838L113.4,797.7L114.4,797.5L120.8,837.8ZM134.4,806.9L134.9,807.8L99.7,828.5L99.2,827.6L134.4,806.9ZM137,822.3L136.7,823.3L97.2,813.1L97.5,812.1L137,822.3ZM127.9,835L127,835.5L106.3,800.3L107.2,799.8L127.9,835ZM112.5,837.6L111.5,837.3L121.7,797.8L122.7,798.1L112.5,837.6ZM125.9,818.2C125.9,823.6 121.5,828 116.1,828C110.7,828 106.3,823.6 106.3,818.2C106.3,812.8 110.7,808.4 116.1,808.4C121.5,808.4 125.9,812.8 125.9,818.2Z" style="fill:rgb(188,188,188);fill-rule:nonzero;"/>
            </g>
            <g id="形状D0" transform="matrix(6.12323e-17,-1,1,6.12323e-17,-258.321,621.878)">
                <path d="M188.6,848.2C171.8,848.2 158.1,834.5 158.1,817.7C158.1,800.9 171.8,787.2 188.6,787.2C205.4,787.2 219.1,800.9 219.1,817.7C219.1,834.5 205.4,848.2 188.6,848.2ZM208.4,817.7C208.4,806.8 199.5,797.9 188.6,797.9C177.7,797.9 168.8,806.8 168.8,817.7C168.8,828.6 177.7,837.5 188.6,837.5C199.5,837.5 208.4,828.6 208.4,817.7ZM116.6,848.2C99.8,848.2 86.1,834.5 86.1,817.7C86.1,800.9 99.8,787.2 116.6,787.2C133.4,787.2 147.1,800.9 147.1,817.7C147.1,834.5 133.4,848.2 116.6,848.2ZM136.4,817.7C136.4,806.8 127.5,797.9 116.6,797.9C105.7,797.9 96.8,806.8 96.8,817.7C96.8,828.6 105.7,837.5 116.6,837.5C127.5,837.5 136.4,828.6 136.4,817.7Z" style="fill:rgb(0,43,178);fill-rule:nonzero;"/>
            </g>
            <g id="形状D1" transform="matrix(6.12323e-17,-1,1,6.12323e-17,-258.321,621.878)">
                <path d="M188.6,846.4C172.8,846.4 159.9,833.6 159.9,817.7C159.9,801.9 172.7,789 188.6,789C204.5,789 217.3,801.8 217.3,817.7C217.3,833.5 204.4,846.4 188.6,846.4ZM210,817.7C210,805.9 200.4,796.3 188.6,796.3C176.8,796.3 168.8,806.8 168.8,817.7C168.8,828.6 176.8,839.1 188.6,839.1C200.4,839.1 210,829.5 210,817.7ZM116.6,846.4C100.8,846.4 87.9,833.6 87.9,817.7C87.9,801.9 100.7,789 116.6,789C132.5,789 145.3,801.8 145.3,817.7C145.3,833.5 132.4,846.4 116.6,846.4ZM138,817.7C138,805.9 128.4,796.3 116.6,796.3C104.8,796.3 96.8,806.8 96.8,817.7C96.8,828.6 104.8,839.1 116.6,839.1C128.4,839.1 138,829.5 138,817.7Z" style="fill:rgb(0,68,203);fill-rule:nonzero;"/>
            </g>
            <g id="形状_D2" transform="matrix(6.12323e-17,-1,1,6.12323e-17,-258.321,621.878)">
                <path d="M188.6,843.5C174.4,843.5 162.8,831.9 162.8,817.7C162.8,803.5 174.4,791.9 188.6,791.9C202.8,791.9 214.4,803.5 214.4,817.7C214.4,831.9 202.8,843.5 188.6,843.5ZM212.3,817.7C212.3,804.5 201.6,793.8 188.4,793.8C175.2,793.8 166.3,805.5 166.3,817.7C166.3,829.9 175.2,841.6 188.4,841.6C201.6,841.6 212.3,830.9 212.3,817.7ZM116.6,843.5C102.4,843.5 90.8,831.9 90.8,817.7C90.8,803.5 102.4,791.9 116.6,791.9C130.8,791.9 142.4,803.5 142.4,817.7C142.4,831.9 130.8,843.5 116.6,843.5ZM140.3,817.7C140.3,804.5 129.6,793.8 116.4,793.8C103.2,793.8 94.3,805.5 94.3,817.7C94.3,829.9 103.2,841.6 116.4,841.6C129.6,841.6 140.3,830.9 140.3,817.7Z" style="fill:white;fill-opacity:0.3;fill-rule:nonzero;"/>
            </g>
        </g>
        <g id="圆角矩形_7" transform="matrix(-1.83697e-16,1,-1,-1.83697e-16,515.224,335.04)">
            <path d="M163.1,869.2L163.1,878.2C163.1,881.5 160.4,884.2 157.1,884.2L150.1,884.2C146.8,884.2 144.1,881.5 144.1,878.2L144.1,869.2C144.1,865.9 146.8,863.2 150.1,863.2L157.1,863.2C160.4,863.2 163.1,865.9 163.1,869.2Z" style="fill:rgb(0,73,208);fill-rule:nonzero;"/>
        </g>
    </g>
    <defs>
        <linearGradient id="_Linear1" x1="0" y1="0" x2="1" y2="0" gradientUnits="userSpaceOnUse" gradientTransform="matrix(185,0,0,185,61.1272,454.173)"><stop offset="0" style="stop-color:rgb(0,0,36);stop-opacity:0.6"/><stop offset="0.5" style="stop-color:rgb(0,76,211);stop-opacity:1"/><stop offset="1" style="stop-color:rgb(0,0,36);stop-opacity:0.6"/></linearGradient>
        <linearGradient id="_Linear2" x1="0" y1="0" x2="1" y2="0" gradientUnits="userSpaceOnUse" gradientTransform="matrix(2.0819e-15,34,-34,2.0819e-15,153.627,850.173)"><stop offset="0" style="stop-color:rgb(0,76,211);stop-opacity:0"/><stop offset="0.59" style="stop-color:rgb(0,76,211);stop-opacity:1"/><stop offset="1" style="stop-color:rgb(0,0,36);stop-opacity:0.5"/></linearGradient>
        <linearGradient id="_Linear3" x1="0" y1="0" x2="1" y2="0" gradientUnits="userSpaceOnUse" gradientTransform="matrix(174,0,0,174,67.1272,97.1727)"><stop offset="0" style="stop-color:rgb(0,0,36);stop-opacity:0.6"/><stop offset="0.5" style="stop-color:rgb(0,76,211);stop-opacity:1"/><stop offset="1" style="stop-color:rgb(0,0,36);stop-opacity:0.6"/></linearGradient>
        <linearGradient id="_Linear4" x1="0" y1="0" x2="1" y2="0" gradientUnits="userSpaceOnUse" gradientTransform="matrix(7.10295e-15,116,-116,7.10295e-15,154.127,39.1727)"><stop offset="0" style="stop-color:rgb(59,156,255);stop-opacity:0"/><stop offset="0.46" style="stop-color:rgb(59,156,255);stop-opacity:0"/><stop offset="0.81" style="stop-color:rgb(59,156,255);stop-opacity:0.2"/><stop offset="1" style="stop-color:rgb(0,0,36);stop-opacity:0.6"/></linearGradient>
        <linearGradient id="_Linear5" x1="0" y1="0" x2="1" y2="0" gradientUnits="userSpaceOnUse" gradientTransform="matrix(7.4295e-16,12.1333,-12.1333,7.4295e-16,154.127,39.1727)"><stop offset="0" style="stop-color:rgb(0,0,114);stop-opacity:1"/><stop offset="0.81" style="stop-color:rgb(5,102,237);stop-opacity:0.1"/><stop offset="1" style="stop-color:rgb(0,35,169);stop-opacity:0.2"/></linearGradient>
        <linearGradient id="_Linear6" x1="0" y1="0" x2="1" y2="0" gradientUnits="userSpaceOnUse" gradientTransform="matrix(115,0,0,115,99.1272,190.173)"><stop offset="0" style="stop-color:rgb(0,67,202);stop-opacity:1"/><stop offset="0.5" style="stop-color:rgb(0,89,224);stop-opacity:1"/><stop offset="1" style="stop-color:rgb(0,67,202);stop-opacity:1"/></linearGradient>
        <linearGradient id="_Linear7" x1="0" y1="0" x2="1" y2="0" gradientUnits="userSpaceOnUse" gradientTransform="matrix(12,0,0,12,150.127,230.173)"><stop offset="0" style="stop-color:rgb(0,75,211);stop-opacity:1"/><stop offset="0.2" style="stop-color:rgb(0,75,211);stop-opacity:1"/><stop offset="0.25" style="stop-color:rgb(0,75,211);stop-opacity:1"/><stop offset="0.65" style="stop-color:rgb(5,102,237);stop-opacity:1"/><stop offset="0.8" style="stop-color:rgb(5,102,237);stop-opacity:1"/><stop offset="1" style="stop-color:rgb(5,102,237);stop-opacity:1"/></linearGradient>
        <linearGradient id="_Linear8" x1="0" y1="0" x2="1" y2="0" gradientUnits="userSpaceOnUse" gradientTransform="matrix(115,0,0,115,99.1272,492.173)"><stop offset="0" style="stop-color:rgb(0,67,202);stop-opacity:1"/><stop offset="0.5" style="stop-color:rgb(0,89,224);stop-opacity:1"/><stop offset="1" style="stop-color:rgb(0,67,202);stop-opacity:1"/></linearGradient>
        <linearGradient id="_Linear9" x1="0" y1="0" x2="1" y2="0" gradientUnits="userSpaceOnUse" gradientTransform="matrix(12,0,0,12,150.127,532.173)"><stop offset="0" style="stop-color:rgb(0,75,211);stop-opacity:1"/><stop offset="0.2" style="stop-color:rgb(0,75,211);stop-opacity:1"/><stop offset="0.25" style="stop-color:rgb(0,75,211);stop-opacity:1"/><stop offset="0.65" style="stop-color:rgb(5,102,237);stop-opacity:1"/><stop offset="0.8" style="stop-color:rgb(5,102,237);stop-opacity:1"/><stop offset="1" style="stop-color:rgb(5,102,237);stop-opacity:1"/></linearGradient>
        <linearGradient id="_Linear10" x1="0" y1="0" x2="1" y2="0" gradientUnits="userSpaceOnUse" gradientTransform="matrix(155,0,0,155,75.1272,819.173)"><stop offset="0" style="stop-color:rgb(0,0,36);stop-opacity:1"/><stop offset="0.23" style="stop-color:rgb(0,88,222);stop-opacity:1"/><stop offset="0.5" style="stop-color:rgb(0,89,224);stop-opacity:1"/><stop offset="0.82" style="stop-color:rgb(0,89,224);stop-opacity:1"/><stop offset="1" style="stop-color:rgb(0,0,135);stop-opacity:1"/></linearGradient>
    </defs>
</svg>
