<?xml version="1.0" encoding="UTF-8" standalone="no"?>
<!DOCTYPE svg PUBLIC "-//W3C//DTD SVG 1.1//EN" "http://www.w3.org/Graphics/SVG/1.1/DTD/svg11.dtd">
<svg width="100%" height="100%" viewBox="0 0 1257 508" version="1.1" xmlns="http://www.w3.org/2000/svg" xmlns:xlink="http://www.w3.org/1999/xlink" xml:space="preserve" xmlns:serif="http://www.serif.com/" style="fill-rule:evenodd;clip-rule:evenodd;">
    <g id="画板1" transform="matrix(0.932527,0,0,1,513.792,-241.14)">
        <g transform="matrix(-1,-1.14202e-16,1.31326e-16,-1,199.831,999.302)">
            <rect x="-550.968" y="241.14" width="1347.19" height="507.27" style="fill:none;"/>
        </g>
        <g id="cheD" transform="matrix(-1.07236,-1.22465e-16,1.31326e-16,-1,257.408,999.163)">
            <g id="D" transform="matrix(6.12323e-17,-1,1,6.12323e-17,-354.182,660.313)">
                <path d="M293.5,361.5L293.5,900.8C293.5,906.3 289,910.8 283.5,910.8L16.6,910.8C11.1,910.8 6.6,906.3 6.6,900.8L6.6,361.5C6.6,356 11.1,351.5 16.6,351.5L283.5,351.5C289,351.5 293.5,355.9 293.5,361.5Z" style="fill:rgb(102,102,102);fill-rule:nonzero;"/>
            </g>
            <g id="D2" transform="matrix(6.12323e-17,-1,1,6.12323e-17,-354.182,660.313)">
                <rect x="59.8" y="351.5" width="182.6" height="559.3" style="fill:rgb(55,55,55);"/>
            </g>
            <g id="形状_1_拷贝_5" transform="matrix(6.12323e-17,-1,1,6.12323e-17,-354.182,660.313)">
                <path d="M272.8,507.1L272.8,509.3L23.9,509.3L23.9,507.1L272.8,507.1ZM272.8,575.5L272.8,577.7L23.9,577.7L23.9,575.5L272.8,575.5ZM272.8,643L272.8,645.2L23.9,645.2L23.9,643L272.8,643ZM272.8,711.5L272.8,713.7L23.9,713.7L23.9,711.5L272.8,711.5ZM272.8,779L272.8,781.2L23.9,781.2L23.9,779L272.8,779ZM272.8,847.7L272.8,849.9L23.9,849.9L23.9,847.7L272.8,847.7Z" style="fill-opacity:0.3;fill-rule:nonzero;"/>
            </g>
            <g id="椭圆_3" transform="matrix(6.12323e-17,-1,1,6.12323e-17,-354.182,660.313)">
                <path d="M289.1,466.8C289.1,471 286.5,474.4 282,474.4C277.5,474.4 275,471 275,466.8C275,462.6 277.6,459.2 282.1,459.2C286.6,459.2 289.1,462.6 289.1,466.8ZM289.1,504.9C289.1,509.1 286.5,512.5 282,512.5C277.5,512.5 274.9,509.1 274.9,504.9C274.9,500.7 277.5,497.3 282,497.3C286.5,497.3 289.1,500.7 289.1,504.9ZM289.1,541.9C289.1,546.1 286.5,549.5 282,549.5C277.5,549.5 274.9,546.1 274.9,541.9C274.9,537.7 277.5,534.3 282,534.3C286.5,534.3 289.1,537.7 289.1,541.9ZM289.1,580C289.1,584.2 286.5,587.6 282,587.6C277.5,587.6 275,584.2 275,580C275,575.8 277.6,572.4 282.1,572.4C286.6,572.4 289.1,575.8 289.1,580ZM289.1,618C289.1,622.2 286.5,625.6 282,625.6C277.5,625.6 274.9,622.2 274.9,618C274.9,613.8 277.5,610.4 282,610.4C286.5,610.4 289.1,613.9 289.1,618ZM289.1,655C289.1,659.2 286.5,662.6 282,662.6C277.5,662.6 274.9,659.2 274.9,655C274.9,650.8 277.5,647.4 282,647.4C286.5,647.4 289.1,650.9 289.1,655ZM289.1,693C289.1,697.2 286.5,700.6 282,700.6C277.5,700.6 274.9,697.2 274.9,693C274.9,688.8 277.5,685.4 282,685.4C286.5,685.4 289.1,688.9 289.1,693ZM289.1,730C289.1,734.2 286.5,737.6 282,737.6C277.5,737.6 274.9,734.2 274.9,730C274.9,725.8 277.5,722.4 282,722.4C286.5,722.4 289.1,725.9 289.1,730ZM289.1,768.2C289.1,772.4 286.5,775.8 282,775.8C277.5,775.8 274.9,772.4 274.9,768.2C274.9,764 277.5,760.6 282,760.6C286.5,760.6 289.1,764 289.1,768.2ZM289.1,806.3C289.1,810.5 286.5,813.9 282,813.9C277.5,813.9 274.9,810.5 274.9,806.3C274.9,802.1 277.5,798.7 282,798.7C286.5,798.7 289.1,802 289.1,806.3ZM289.1,843.3C289.1,847.5 286.5,850.9 282,850.9C277.5,850.9 274.9,847.5 274.9,843.3C274.9,839.1 277.5,835.7 282,835.7C286.5,835.7 289.1,839 289.1,843.3ZM289.1,881.4C289.1,885.6 286.5,889 282,889C277.5,889 274.9,885.6 274.9,881.4C274.9,877.2 277.5,873.8 282,873.8C286.5,873.8 289.1,877.2 289.1,881.4ZM25,466.8C25,471 22.4,474.4 17.9,474.4C13.4,474.4 10.8,471 10.8,466.8C10.8,462.6 13.4,459.2 17.9,459.2C22.4,459.2 25,462.6 25,466.8ZM25,504.9C25,509.1 22.4,512.5 17.9,512.5C13.4,512.5 10.8,509.1 10.8,504.9C10.8,500.7 13.4,497.3 17.9,497.3C22.4,497.3 25,500.7 25,504.9ZM25,541.9C25,546.1 22.4,549.5 17.9,549.5C13.4,549.5 10.8,546.1 10.8,541.9C10.8,537.7 13.4,534.3 17.9,534.3C22.4,534.3 25,537.7 25,541.9ZM25,580C25,584.2 22.4,587.6 17.9,587.6C13.4,587.6 10.8,584.2 10.8,580C10.8,575.8 13.4,572.4 17.9,572.4C22.4,572.4 25,575.8 25,580ZM25,618C25,622.2 22.4,625.6 17.9,625.6C13.4,625.6 10.8,622.2 10.8,618C10.8,613.8 13.4,610.4 17.9,610.4C22.4,610.4 25,613.9 25,618ZM25,655C25,659.2 22.4,662.6 17.9,662.6C13.4,662.6 10.8,659.2 10.8,655C10.8,650.8 13.4,647.4 17.9,647.4C22.4,647.4 25,650.9 25,655ZM25,693C25,697.2 22.4,700.6 17.9,700.6C13.4,700.6 10.8,697.2 10.8,693C10.8,688.8 13.4,685.4 17.9,685.4C22.4,685.4 25,688.9 25,693ZM25,730C25,734.2 22.4,737.6 17.9,737.6C13.4,737.6 10.8,734.2 10.8,730C10.8,725.8 13.4,722.4 17.9,722.4C22.4,722.4 25,725.9 25,730ZM25,768.2C25,772.4 22.4,775.8 17.9,775.8C13.4,775.8 10.8,772.4 10.8,768.2C10.8,764 13.4,760.6 17.9,760.6C22.4,760.6 25,764 25,768.2ZM25,806.3C25,810.5 22.4,813.9 17.9,813.9C13.4,813.9 10.8,810.5 10.8,806.3C10.8,802.1 13.4,798.7 17.9,798.7C22.4,798.7 25,802 25,806.3ZM25,843.3C25,847.5 22.4,850.9 17.9,850.9C13.4,850.9 10.8,847.5 10.8,843.3C10.8,839.1 13.4,835.7 17.9,835.7C22.4,835.7 25,839 25,843.3ZM25,881.4C25,885.6 22.4,889 17.9,889C13.4,889 10.8,885.6 10.8,881.4C10.8,877.2 13.4,873.8 17.9,873.8C22.4,873.8 25,877.2 25,881.4Z" style="fill:white;fill-opacity:0.3;fill-rule:nonzero;"/>
            </g>
            <g id="圆角矩形_9_拷贝" transform="matrix(6.12323e-17,-1,1,6.12323e-17,-354.182,660.313)">
                <path d="M291.3,441.1L291.3,903.9C291.3,904.7 290.6,905.4 289.8,905.4L289.5,905.4C288.7,905.4 288,904.7 288,903.9L288,441.1C288,440.3 288.7,439.6 289.5,439.6L289.8,439.6C290.6,439.6 291.3,440.3 291.3,441.1ZM12,441.1L12,903.9C12,904.7 11.3,905.4 10.5,905.4L10.2,905.4C9.4,905.4 8.7,904.7 8.7,903.9L8.7,441.1C8.7,440.3 9.4,439.6 10.2,439.6L10.5,439.6C11.3,439.6 12,440.3 12,441.1Z" style="fill-opacity:0.4;fill-rule:nonzero;"/>
            </g>
        </g>
        <g id="矩形_8" transform="matrix(-1.96988e-16,1,-1.07236,-1.83698e-16,637.217,338.85)">
            <rect x="81.6" y="941.3" width="139.1" height="21.8" style="fill:url(#_Linear1);"/>
        </g>
        <g id="chezhou" transform="matrix(-1.07236,-1.22465e-16,1.31326e-16,-1,257.408,999.163)">
            <g id="圆角矩形_7" transform="matrix(6.12323e-17,-1,1,6.12323e-17,-354.182,660.313)">
                <path d="M223.9,90L223.9,104.8C223.9,107 222.1,108.8 219.9,108.8L110.5,108.8C108.3,108.8 106.5,107 106.5,104.8L106.5,90C106.5,87.8 108.3,86 110.5,86L219.9,86C222.1,86 223.9,87.8 223.9,90Z" style="fill-rule:nonzero;"/>
            </g>
            <g id="圆角矩形_8_拷贝" transform="matrix(6.12323e-17,-1,1,6.12323e-17,-354.182,660.313)">
                <path d="M200,64L200,75.2C200,76.3 199.1,77.2 198,77.2L136.8,77.2C135.7,77.2 134.8,76.3 134.8,75.2L134.8,64C134.8,62.9 135.7,62 136.8,62L198,62C199.1,62 200,62.9 200,64Z" style="fill-rule:nonzero;"/>
            </g>
            <g id="圆角矩形_8" transform="matrix(6.12323e-17,-1,1,6.12323e-17,-354.182,660.313)">
                <path d="M189.1,60.6L189.1,78.7C189.1,80.9 187.3,82.7 185.1,82.7L149.6,82.7C147.4,82.7 145.6,80.9 145.6,78.7L145.6,60.6C145.6,58.4 147.4,56.6 149.6,56.6L185.1,56.6C187.3,56.6 189.1,58.4 189.1,60.6Z" style="fill:url(#_Linear2);fill-rule:nonzero;"/>
            </g>
        </g>
        <g id="jiashi" transform="matrix(-1.07236,-1.22465e-16,1.31326e-16,-1,257.408,999.163)">
            <g id="圆角矩形_9_拷贝_2" transform="matrix(6.12323e-17,-1,1,6.12323e-17,-354.182,660.313)">
                <path d="M129.3,768.2L129.3,858.5C129.3,860.9 127.4,862.9 125,862.9L28.3,862.9C25.9,862.9 24,860.9 24,858.5L24,782.3C24,779.9 32.5,763.8 34.9,763.8L125,763.8C127.4,763.9 129.3,765.8 129.3,768.2Z" style="fill:url(#_Linear3);fill-rule:nonzero;"/>
            </g>
            <g id="矩形_3" transform="matrix(6.12323e-17,-1,1,6.12323e-17,-354.182,660.313)">
                <path d="M128.3,768.2L128.3,788.9L26.1,788.9L8.8,768.2L128.3,768.2Z" style="fill:url(#_Linear4);fill-rule:nonzero;"/>
            </g>
            <g id="圆角矩形_9" transform="matrix(6.12323e-17,-1,1,6.12323e-17,-354.182,660.313)">
                <path d="M125,647.4L125,770.4C125,772.8 123.1,774.8 120.7,774.8L13,774.8C10.6,774.8 8.7,772.8 8.7,770.4L8.7,661.5C8.7,659.1 17.2,643 19.6,643L120.7,643C123.1,643 125,645 125,647.4Z" style="fill:url(#_Linear5);fill-rule:nonzero;"/>
            </g>
        </g>
        <g id="chejiashichanghu" transform="matrix(-1.96988e-16,1,-1.07236,-1.83698e-16,637.217,338.85)">
            <path d="M25,647.4L19.6,659.4L108.7,660.5L114.1,648.5L25,647.4ZM114.1,665.9L110.8,687.7L111.9,758.4L120.6,770.4L120.6,655L114.1,665.9Z" style="fill:rgb(17,17,17);fill-rule:nonzero;"/>
        </g>
        <g id="yinying01" transform="matrix(-1.96988e-16,1,-1.07236,-1.83698e-16,637.217,338.85)">
            <path d="M121.7,633.3L121.7,775.6C121.7,778.1 125,784.9 125,787.3C125,789.6 121.7,787.5 121.7,789.7L121.7,853.2L107.6,853.2L107.6,790.3C107.6,788.1 110.9,790.2 110.9,787.9C110.9,785.3 107.6,778.3 107.6,775.7L107.6,633.3L121.7,633.3Z" style="fill:url(#_Linear6);fill-rule:nonzero;"/>
        </g>
        <g id="yinying02" transform="matrix(-1.96988e-16,1,-1.07236,-1.83698e-16,637.217,338.85)">
            <rect x="24" y="834.6" width="259.8" height="14.1" style="fill:url(#_Linear7);"/>
        </g>
        <g id="tou" transform="matrix(-1.07236,-1.22465e-16,1.31326e-16,-1,257.408,999.163)">
            <g id="圆角矩形_11_拷贝" transform="matrix(6.12323e-17,-1,1,6.12323e-17,-354.182,660.313)">
                <path d="M238.3,167.6C238.3,169.4 236.5,170.9 234.3,170.9L68.3,170.9C66.1,170.9 64.3,169.4 64.3,167.6C64.3,165.8 66.1,164.3 68.3,164.3L234.3,164.3C236.6,164.3 238.3,165.8 238.3,167.6Z" style="fill:rgb(0,0,204);fill-rule:nonzero;"/>
            </g>
            <g id="圆角矩形_11" transform="matrix(6.12323e-17,-1,1,6.12323e-17,-354.182,660.313)">
                <path d="M280.4,174.1L298.9,194.8C298.9,197.2 297,202.4 294.6,202.4L4.4,202.4C2,202.4 0.1,197.2 0.1,194.8L26.2,174.1C26.2,171.7 28.1,169.7 30.5,169.7L276.1,169.7C278.5,169.7 280.4,171.7 280.4,174.1Z" style="fill:url(#_Linear8);fill-rule:nonzero;"/>
            </g>
            <g id="圆角矩形_10" transform="matrix(6.12323e-17,-1,1,6.12323e-17,-354.182,660.313)">
                <path d="M300,196.6L300,448.7C300,450.9 298.2,452.7 296,452.7L4,452.7C1.8,452.7 0,450.9 0,448.7L0,196.6C0,194.4 1.8,192.6 4,192.6L296,192.6C298.3,192.6 300,194.4 300,196.6Z" style="fill:url(#_Linear9);fill-rule:nonzero;"/>
            </g>
        </g>
        <g id="j" transform="matrix(-1.96988e-16,1,-1.07236,-1.83698e-16,637.217,338.85)">
            <path d="M247.8,361.3L258.7,452.7L42.4,452.7L53.3,361.3L247.8,361.3Z" style="fill:rgb(51,51,51);fill-rule:nonzero;"/>
        </g>
        <g id="tou2" transform="matrix(-1.07236,-1.22465e-16,1.31326e-16,-1,257.408,999.163)">
            <g id="矩形_4" transform="matrix(6.12323e-17,-1,1,6.12323e-17,-354.182,660.313)">
                <rect x="108.8" y="390.7" width="114.1" height="62" style="fill:url(#_Linear10);"/>
            </g>
            <g id="矩形_5" transform="matrix(6.12323e-17,-1,1,6.12323e-17,-354.182,660.313)">
                <path d="M263,195.9L245.7,296L56.6,296L35.9,195.9L263,195.9Z" style="fill:none;fill-rule:nonzero;stroke:rgb(0,0,205);stroke-width:4px;"/>
            </g>
            <g id="矩形_7" transform="matrix(6.12323e-17,-1,1,6.12323e-17,-354.182,660.313)">
                <path d="M232.6,303.6L232.6,335.2L200,335.2L200,303.6L232.6,303.6ZM103.2,304.7L103.2,333L65.2,333L65.2,304.7L103.2,304.7Z" style="fill:url(#_Linear11);fill-rule:nonzero;"/>
            </g>
        </g>
        <g id="cghetouchuNG" transform="matrix(-1.96988e-16,1,-1.07236,-1.83698e-16,637.217,338.85)">
            <path d="M280.4,174.1L291.3,186.1L10.9,186.1L26.1,174.1L280.4,174.1Z" style="fill:rgb(51,51,51);fill-rule:nonzero;"/>
        </g>
        <g id="GG" transform="matrix(-1.07236,-1.22465e-16,1.31326e-16,-1,257.408,999.163)">
            <g id="圆角矩形_6" transform="matrix(6.12323e-17,-1,1,6.12323e-17,-354.182,660.313)">
                <path d="M218.5,83.3L218.5,110.5C218.5,113.8 215.8,116.5 212.5,116.5L119,116.5C115.7,116.5 113,113.8 113,110.5L113,83.3C113,80 115.7,77.3 119,77.3L212.5,77.3C215.8,77.3 218.5,79.9 218.5,83.3Z" style="fill:url(#_Linear12);fill-rule:nonzero;"/>
            </g>
            <g id="矩形_2" transform="matrix(6.12323e-17,-1,1,6.12323e-17,-354.182,660.313)">
                <path d="M209.8,82.3L209.8,852.3C209.8,854.5 208,856.3 205.8,856.3L125.8,856.3C123.6,856.3 121.8,854.5 121.8,852.3L121.8,82.3C121.8,80.1 123.6,78.3 125.8,78.3L205.8,78.3C208,78.3 209.8,80.1 209.8,82.3Z" style="fill:url(#_Linear13);fill-rule:nonzero;"/>
            </g>
            <g id="圆角矩形_1" transform="matrix(6.12323e-17,-1,1,6.12323e-17,-354.182,660.313)">
                <path d="M283.8,852.5L283.8,940.6C283.8,943.9 281.1,946.6 277.8,946.6L25.6,946.6C22.3,946.6 19.6,943.9 19.6,940.6L19.6,852.5C19.6,849.2 22.3,846.5 25.6,846.5L277.7,846.5C281,846.5 283.8,849.2 283.8,852.5Z" style="fill:url(#_Linear14);fill-rule:nonzero;"/>
            </g>
            <g id="圆角矩形_2" transform="matrix(6.12323e-17,-1,1,6.12323e-17,-354.182,660.313)">
                <path d="M212,856.4L212,876C212,878.4 210.1,880.4 207.7,880.4L126.2,880.4C123.8,880.4 121.9,878.4 121.9,876L121.9,855.3C121.9,852.9 123.8,850.9 126.2,850.9L131.6,846.5L202.6,846.5L207.7,851.9C210,852 212,854 212,856.4Z" style="fill:url(#_Linear15);fill-rule:nonzero;"/>
            </g>
            <g id="矩形_1_拷贝" transform="matrix(6.12323e-17,-1,1,6.12323e-17,-354.182,660.313)">
                <path d="M203.3,848.8L203.3,880.4L201.1,880.4L201.1,848.8L203.3,848.8ZM132.6,848.8L132.6,880.4L130.4,880.4L130.4,848.8L132.6,848.8Z" style="fill:url(#_Linear16);fill-rule:nonzero;"/>
            </g>
            <g id="矩形_1" transform="matrix(6.12323e-17,-1,1,6.12323e-17,-354.182,660.313)">
                <rect x="132.6" y="854.2" width="68.5" height="26.1" style="fill:url(#_Linear17);"/>
            </g>
            <g id="椭圆_1" transform="matrix(6.12323e-17,-1,1,6.12323e-17,-354.182,660.313)">
                <circle cx="64.7" cy="908" r="12.5" style="fill:rgb(0,0,255);"/>
            </g>
            <g id="圆角矩形_5_拷贝" transform="matrix(6.12323e-17,-1,1,6.12323e-17,-354.182,660.313)">
                <path d="M173.9,41L173.9,841.5C173.9,843.7 172.1,845.5 169.9,845.5L164.9,845.5C162.7,845.5 160.9,843.7 160.9,841.5L160.9,41C160.9,38.8 162.7,37 164.9,37L169.9,37C172.1,37 173.9,38.8 173.9,41Z" style="fill:rgb(23,105,206);fill-rule:nonzero;"/>
            </g>
        </g>
        <g id="组_3" transform="matrix(-1.07236,-1.22465e-16,1.31326e-16,-1,257.408,999.163)">
            <g id="圆角矩形_3" transform="matrix(6.12323e-17,-1,1,6.12323e-17,-354.182,660.313)">
                <path d="M187,848.5L187,862C187,863.1 186.1,864 185,864L150.9,864C149.8,864 148.9,863.1 148.9,862L148.9,848.6C148.9,847.5 149.8,846.6 150.9,846.6L185,846.6C186.1,846.5 187,847.5 187,848.5Z" style="fill:rgb(31,42,52);fill-rule:nonzero;"/>
            </g>
            <g id="圆角矩形_3_拷贝" transform="matrix(6.12323e-17,-1,1,6.12323e-17,-354.182,660.313)">
                <path d="M183.7,848.5L183.7,858.7C183.7,859.8 182.8,860.7 181.7,860.7L154.2,860.7C153.1,860.7 152.2,859.8 152.2,858.7L152.2,848.5C152.2,847.4 153.1,846.5 154.2,846.5L181.7,846.5C182.8,846.5 183.7,847.5 183.7,848.5Z" style="fill:rgb(221,221,221);fill-rule:nonzero;"/>
            </g>
            <g id="圆角矩形_4" transform="matrix(6.12323e-17,-1,1,6.12323e-17,-354.182,660.313)">
                <path d="M192.4,819.9L192.4,840.5C192.4,843.8 189.7,846.5 186.4,846.5L148.4,846.5C145.1,846.5 142.4,843.8 142.4,840.5L142.4,819.9C142.4,816.6 145.1,813.9 148.4,813.9L186.4,813.9C189.7,813.9 192.4,816.5 192.4,819.9Z" style="fill:rgb(40,40,40);fill-rule:nonzero;"/>
            </g>
            <g id="多边形_1_拷贝" transform="matrix(6.12323e-17,-1,1,6.12323e-17,-354.182,660.313)">
                <path d="M179.4,835L175.5,832.7L175.5,828.1L179.5,825.8L183.4,828.1L183.4,832.7L179.4,835ZM155.5,835L151.6,832.7L151.6,828.1L155.6,825.8L159.5,828.1L159.5,832.7L155.5,835Z" style="fill:rgb(111,111,111);fill-rule:nonzero;"/>
            </g>
            <g id="圆角矩形_5" transform="matrix(6.12323e-17,-1,1,6.12323e-17,-354.182,660.313)">
                <path d="M171.7,43.2L171.7,841.5C171.7,843.7 169.9,845.5 167.7,845.5L167,845.5C164.8,845.5 163,843.7 163,841.5L163,43.2C163,41 164.8,39.2 167,39.2L167.7,39.2C170,39.2 171.7,41 171.7,43.2Z" style="fill-rule:nonzero;"/>
            </g>
            <g id="组_4" transform="matrix(6.12323e-17,-1,1,6.12323e-17,-354.182,660.313)">
                <path id="椭圆_2" d="M204.4,306.9C203.3,308.7 199.5,308.5 195.9,306.4C192.3,304.3 190.2,301.1 191.2,299.3C192.2,297.5 196.1,297.7 199.7,299.8C203.3,301.9 205.5,305 204.4,306.9Z" style="fill-rule:nonzero;"/>
                <path id="椭圆_2_拷贝" d="M204.4,360.2C203.3,362 199.5,361.8 195.9,359.7C192.3,357.6 190.2,354.4 191.2,352.6C192.2,350.8 196.1,351 199.7,353.1C203.3,355.2 205.5,358.4 204.4,360.2Z" style="fill-rule:nonzero;"/>
                <path id="椭圆_2_拷贝_2" d="M204.4,414.6C203.3,416.4 199.5,416.2 195.9,414.1C192.3,412 190.2,408.8 191.2,407C192.2,405.2 196.1,405.4 199.7,407.5C203.3,409.6 205.5,412.8 204.4,414.6Z" style="fill-rule:nonzero;"/>
                <path id="椭圆_2_拷贝_3" d="M204.4,467.9C203.3,469.7 199.5,469.5 195.9,467.4C192.3,465.3 190.2,462.1 191.2,460.3C192.2,458.5 196.1,458.7 199.7,460.8C203.3,462.9 205.5,466.1 204.4,467.9Z" style="fill-rule:nonzero;"/>
                <path id="椭圆_2_拷贝_4" d="M204.4,521.2C203.3,523 199.5,522.8 195.9,520.7C192.3,518.6 190.2,515.4 191.2,513.6C192.2,511.8 196.1,512 199.7,514.1C203.3,516.2 205.5,519.3 204.4,521.2Z" style="fill-rule:nonzero;"/>
                <path id="椭圆_2_拷贝_5" d="M204.4,575.5C203.3,577.3 199.5,577.1 195.9,575C192.3,572.9 190.2,569.7 191.2,567.9C192.2,566.1 196.1,566.3 199.7,568.4C203.3,570.5 205.5,573.8 204.4,575.5Z" style="fill-rule:nonzero;"/>
                <path id="椭圆_2_拷贝_6" d="M204.4,628.9C203.3,630.7 199.5,630.5 195.9,628.4C192.3,626.3 190.2,623.1 191.2,621.3C192.2,619.5 196.1,619.7 199.7,621.8C203.3,623.9 205.5,627 204.4,628.9Z" style="fill-rule:nonzero;"/>
                <path id="椭圆_2_拷贝_7" d="M204.4,682.3C203.3,684.1 199.5,683.9 195.9,681.8C192.3,679.7 190.2,676.5 191.2,674.7C192.2,672.9 196.1,673.1 199.7,675.2C203.3,677.3 205.5,680.4 204.4,682.3Z" style="fill-rule:nonzero;"/>
                <path id="椭圆_2_拷贝_8" d="M204.4,736.7C203.3,738.5 199.5,738.3 195.9,736.2C192.3,734.1 190.2,730.9 191.2,729.1C192.2,727.3 196.1,727.5 199.7,729.6C203.3,731.7 205.5,734.8 204.4,736.7Z" style="fill-rule:nonzero;"/>
                <path id="椭圆_2_拷贝_9" d="M204.4,790C203.3,791.8 199.5,791.6 195.9,789.5C192.3,787.4 190.2,784.2 191.2,782.4C192.2,780.6 196.1,780.8 199.7,782.9C203.3,785 205.5,788.2 204.4,790Z" style="fill-rule:nonzero;"/>
                <path id="椭圆_2_拷贝_10" d="M126.4,307C127.5,308.8 131.4,308.6 135.1,306.5C138.8,304.4 141,301.2 139.9,299.4C138.8,297.6 134.9,297.8 131.2,299.9C127.5,302 125.3,305.2 126.4,307Z" style="fill-rule:nonzero;"/>
                <path id="椭圆_2_拷贝_11" d="M126.4,360.3C127.5,362.1 131.4,361.9 135.1,359.8C138.8,357.7 141,354.5 139.9,352.7C138.8,350.9 134.9,351.1 131.2,353.2C127.5,355.3 125.3,358.5 126.4,360.3Z" style="fill-rule:nonzero;"/>
                <path id="椭圆_2_拷贝_12" d="M126.4,414.7C127.5,416.5 131.4,416.3 135.1,414.2C138.8,412.1 141,408.9 139.9,407.1C138.8,405.3 134.9,405.5 131.2,407.6C127.5,409.7 125.3,412.9 126.4,414.7Z" style="fill-rule:nonzero;"/>
                <path id="椭圆_2_拷贝_13" d="M126.4,468C127.5,469.8 131.4,469.6 135.1,467.5C138.8,465.4 141,462.2 139.9,460.4C138.8,458.6 134.9,458.8 131.2,460.9C127.5,463 125.3,466.1 126.4,468Z" style="fill-rule:nonzero;"/>
                <path id="椭圆_2_拷贝_14" d="M126.4,521.2C127.5,523 131.4,522.8 135.1,520.7C138.8,518.6 141,515.4 139.9,513.6C138.8,511.8 134.9,512 131.2,514.1C127.5,516.2 125.3,519.3 126.4,521.2Z" style="fill-rule:nonzero;"/>
                <path id="椭圆_2_拷贝_15" d="M126.4,575.5C127.5,577.3 131.4,577.1 135.1,575C138.8,572.9 141,569.7 139.9,567.9C138.8,566.1 134.9,566.3 131.2,568.4C127.5,570.5 125.3,573.8 126.4,575.5Z" style="fill-rule:nonzero;"/>
                <path id="椭圆_2_拷贝_16" d="M126.4,628.9C127.5,630.7 131.4,630.5 135.1,628.4C138.8,626.3 141,623.1 139.9,621.3C138.8,619.5 134.9,619.7 131.2,621.8C127.5,623.9 125.3,627 126.4,628.9Z" style="fill-rule:nonzero;"/>
                <path id="椭圆_2_拷贝_17" d="M126.4,682.2C127.5,684 131.4,683.8 135.1,681.7C138.8,679.6 141,676.4 139.9,674.6C138.8,672.8 134.9,673 131.2,675.1C127.5,677.2 125.3,680.3 126.4,682.2Z" style="fill-rule:nonzero;"/>
                <path id="椭圆_2_拷贝_18" d="M126.4,736.5C127.5,738.3 131.4,738.1 135.1,736C138.8,733.9 141,730.7 139.9,728.9C138.8,727.1 134.9,727.3 131.2,729.4C127.5,731.5 125.3,734.7 126.4,736.5Z" style="fill-rule:nonzero;"/>
                <path id="椭圆_2_拷贝_19" d="M126.4,789.8C127.5,791.6 131.4,791.4 135.1,789.3C138.8,787.2 141,784 139.9,782.2C138.8,780.4 134.9,780.6 131.2,782.7C127.5,784.8 125.3,788 126.4,789.8Z" style="fill-rule:nonzero;"/>
            </g>
        </g>
    </g>
    <defs>
        <linearGradient id="_Linear1" x1="0" y1="0" x2="1" y2="0" gradientUnits="userSpaceOnUse" gradientTransform="matrix(139.1,0,0,139.1,81.6499,952.15)"><stop offset="0" style="stop-color:black;stop-opacity:1"/><stop offset="1" style="stop-color:rgb(77,77,77);stop-opacity:1"/></linearGradient>
        <linearGradient id="_Linear2" x1="0" y1="0" x2="1" y2="0" gradientUnits="userSpaceOnUse" gradientTransform="matrix(1.59816e-15,26.1,-26.1,1.59816e-15,167.4,56.55)"><stop offset="0" style="stop-color:white;stop-opacity:1"/><stop offset="0.42" style="stop-color:rgb(219,219,219);stop-opacity:1"/><stop offset="1" style="stop-color:white;stop-opacity:1"/></linearGradient>
        <linearGradient id="_Linear3" x1="0" y1="0" x2="1" y2="0" gradientUnits="userSpaceOnUse" gradientTransform="matrix(105.435,0,0,105.435,24.0499,813.3)"><stop offset="0" style="stop-color:rgb(9,65,212);stop-opacity:1"/><stop offset="1" style="stop-color:rgb(26,108,204);stop-opacity:1"/></linearGradient>
        <linearGradient id="_Linear4" x1="0" y1="0" x2="1" y2="0" gradientUnits="userSpaceOnUse" gradientTransform="matrix(119.6,0,0,119.6,8.75,778.5)"><stop offset="0" style="stop-color:rgb(0,44,206);stop-opacity:1"/><stop offset="1" style="stop-color:rgb(0,73,209);stop-opacity:1"/></linearGradient>
        <linearGradient id="_Linear5" x1="0" y1="0" x2="1" y2="0" gradientUnits="userSpaceOnUse" gradientTransform="matrix(116.3,0,0,116.3,8.75,708.9)"><stop offset="0" style="stop-color:rgb(9,65,212);stop-opacity:1"/><stop offset="1" style="stop-color:rgb(26,108,204);stop-opacity:1"/></linearGradient>
        <linearGradient id="_Linear6" x1="0" y1="0" x2="1" y2="0" gradientUnits="userSpaceOnUse" gradientTransform="matrix(17.4,0,0,17.4,107.65,743.2)"><stop offset="0" style="stop-color:black;stop-opacity:0"/><stop offset="1" style="stop-color:black;stop-opacity:0.3"/></linearGradient>
        <linearGradient id="_Linear7" x1="0" y1="0" x2="1" y2="0" gradientUnits="userSpaceOnUse" gradientTransform="matrix(8.66193e-16,14.146,-14.146,8.66193e-16,153.85,834.55)"><stop offset="0" style="stop-color:black;stop-opacity:0"/><stop offset="1" style="stop-color:black;stop-opacity:0.3"/></linearGradient>
        <linearGradient id="_Linear8" x1="0" y1="0" x2="1" y2="0" gradientUnits="userSpaceOnUse" gradientTransform="matrix(298.8,-2.84217e-14,2.84217e-14,298.8,0.15,186)"><stop offset="0" style="stop-color:rgb(9,65,212);stop-opacity:1"/><stop offset="0.15" style="stop-color:rgb(16,35,213);stop-opacity:1"/><stop offset="0.88" style="stop-color:rgb(28,80,238);stop-opacity:1"/><stop offset="1" style="stop-color:rgb(26,108,204);stop-opacity:1"/></linearGradient>
        <linearGradient id="_Linear9" x1="0" y1="0" x2="1" y2="0" gradientUnits="userSpaceOnUse" gradientTransform="matrix(300,-5.68434e-14,5.68434e-14,300,0.0499,322.6)"><stop offset="0" style="stop-color:rgb(9,65,212);stop-opacity:1"/><stop offset="1" style="stop-color:rgb(26,108,204);stop-opacity:1"/></linearGradient>
        <linearGradient id="_Linear10" x1="0" y1="0" x2="1" y2="0" gradientUnits="userSpaceOnUse" gradientTransform="matrix(114.1,0,0,114.1,108.75,421.65)"><stop offset="0" style="stop-color:rgb(16,35,213);stop-opacity:1"/><stop offset="0.25" style="stop-color:rgb(26,108,204);stop-opacity:1"/><stop offset="0.84" style="stop-color:rgb(28,80,238);stop-opacity:1"/><stop offset="1" style="stop-color:rgb(16,35,213);stop-opacity:1"/></linearGradient>
        <linearGradient id="_Linear11" x1="0" y1="0" x2="1" y2="0" gradientUnits="userSpaceOnUse" gradientTransform="matrix(1.93262e-15,31.562,-31.562,1.93262e-15,148.95,303.55)"><stop offset="0" style="stop-color:rgb(0,0,204);stop-opacity:0.7"/><stop offset="0.81" style="stop-color:rgb(0,0,204);stop-opacity:0"/><stop offset="1" style="stop-color:rgb(0,0,204);stop-opacity:0"/></linearGradient>
        <linearGradient id="_Linear12" x1="0" y1="0" x2="1" y2="0" gradientUnits="userSpaceOnUse" gradientTransform="matrix(105.5,0,0,105.5,113.05,96.85)"><stop offset="0" style="stop-color:rgb(0,52,207);stop-opacity:1"/><stop offset="1" style="stop-color:rgb(28,126,255);stop-opacity:1"/></linearGradient>
        <linearGradient id="_Linear13" x1="0" y1="0" x2="1" y2="0" gradientUnits="userSpaceOnUse" gradientTransform="matrix(88,0,0,88,121.85,467.25)"><stop offset="0" style="stop-color:rgb(9,65,212);stop-opacity:1"/><stop offset="1" style="stop-color:rgb(26,108,204);stop-opacity:1"/></linearGradient>
        <linearGradient id="_Linear14" x1="0" y1="0" x2="1" y2="0" gradientUnits="userSpaceOnUse" gradientTransform="matrix(264.1,-2.27374e-13,2.27374e-13,264.1,19.65,896.6)"><stop offset="0" style="stop-color:rgb(9,65,212);stop-opacity:1"/><stop offset="1" style="stop-color:rgb(26,108,204);stop-opacity:1"/></linearGradient>
        <linearGradient id="_Linear15" x1="0" y1="0" x2="1" y2="0" gradientUnits="userSpaceOnUse" gradientTransform="matrix(2.06549e-15,33.732,-33.732,2.06549e-15,167,846.52)"><stop offset="0" style="stop-color:rgb(26,108,204);stop-opacity:1"/><stop offset="1" style="stop-color:rgb(0,0,204);stop-opacity:1"/></linearGradient>
        <linearGradient id="_Linear16" x1="0" y1="0" x2="1" y2="0" gradientUnits="userSpaceOnUse" gradientTransform="matrix(1.93268e-15,31.563,-31.563,1.93268e-15,166.9,848.7)"><stop offset="0" style="stop-color:rgb(16,155,255);stop-opacity:0"/><stop offset="1" style="stop-color:rgb(0,0,204);stop-opacity:0.2"/></linearGradient>
        <linearGradient id="_Linear17" x1="0" y1="0" x2="1" y2="0" gradientUnits="userSpaceOnUse" gradientTransform="matrix(1.59816e-15,26.1,-26.1,1.59816e-15,166.9,854.15)"><stop offset="0" style="stop-color:rgb(16,155,255);stop-opacity:0"/><stop offset="1" style="stop-color:rgb(0,0,242);stop-opacity:1"/></linearGradient>
    </defs>
</svg>
