<?xml version="1.0" encoding="utf-8"?>
<!-- Generator: Adobe Illustrator 22.1.0, SVG Export Plug-In . SVG Version: 6.00 Build 0)  -->
<svg version="1.1" id="组_2" xmlns="http://www.w3.org/2000/svg" xmlns:xlink="http://www.w3.org/1999/xlink" x="0px" y="0px"
	 viewBox="0 0 300 1000" style="enable-background:new 0 0 300 1000;" xml:space="preserve">
<style type="text/css">
	.st0{fill:#666666;}
	.st1{fill:#373737;}
	.st2{opacity:0.99;fill-opacity:0.3;enable-background:new    ;}
	.st3{fill:#FFFFFF;fill-opacity:0.3;}
	.st4{fill-opacity:0.4;}
	.st5{fill:url(#矩形_8_1_);}
	.st6{fill:url(#圆角矩形_8_1_);}
	.st7{fill:url(#圆角矩形_9_拷贝_2_1_);}
	.st8{fill:url(#矩形_3_1_);}
	.st9{fill:url(#圆角矩形_9_1_);}
	.st10{fill:#111111;}
	.st11{fill:url(#yinying01_1_);fill-opacity:0.3;}
	.st12{fill:url(#yinying02_1_);fill-opacity:0.3;}
	.st13{fill:#CC0000;}
	.st14{fill:url(#圆角矩形_11_1_);}
	.st15{fill:url(#圆角矩形_10_1_);}
	.st16{fill:#333333;}
	.st17{fill:url(#矩形_4_1_);}
	.st18{fill:none;stroke:#FF0000;stroke-width:4;}
	.st19{fill:url(#矩形_7_1_);fill-opacity:0.7;}
	.st20{fill:url(#圆角矩形_6_1_);}
	.st21{fill:url(#矩形_2_1_);}
	.st22{fill:url(#圆角矩形_1_1_);}
	.st23{fill:url(#圆角矩形_2_1_);}
	.st24{fill:url(#矩形_1_拷贝_1_);fill-opacity:0.2;}
	.st25{fill:url(#矩形_1_1_);}
	.st26{fill:#EB0009;}
	.st27{fill:#FF4F00;}
	.st28{fill:#1F2A34;}
	.st29{fill:#DDDDDD;}
	.st30{fill:#282828;}
	.st31{fill:#6F6F6F;}
</style>
<g id="cheD">
	<path id="D" class="st0" d="M294.5,361.5v539.3c0,5.5-4.5,10-10,10H17.6c-5.5,0-10-4.5-10-10V361.5c0-5.5,4.5-10,10-10h266.9
		C290,351.5,294.5,355.9,294.5,361.5z"/>
	<rect id="D2" x="60.8" y="351.5" class="st1" width="182.6" height="559.3"/>
	<path id="形状_1_拷贝_5" class="st2" d="M273.8,507.1v2.2H24.9v-2.2H273.8z M273.8,575.5v2.2H24.9v-2.2H273.8L273.8,575.5z
		 M273.8,643v2.2H24.9V643H273.8z M273.8,711.5v2.2H24.9v-2.2H273.8z M273.8,779v2.2H24.9V779H273.8z M273.8,847.7v2.2H24.9v-2.2
		H273.8z"/>
	<path id="椭圆_3" class="st3" d="M290.1,466.8c0,4.2-2.6,7.6-7.1,7.6s-7-3.4-7-7.6s2.6-7.6,7.1-7.6S290.1,462.6,290.1,466.8z
		 M290.1,504.9c0,4.2-2.6,7.6-7.1,7.6s-7.1-3.4-7.1-7.6s2.6-7.6,7.1-7.6S290.1,500.7,290.1,504.9L290.1,504.9z M290.1,541.9
		c0,4.2-2.6,7.6-7.1,7.6s-7.1-3.4-7.1-7.6s2.6-7.6,7.1-7.6S290.1,537.7,290.1,541.9L290.1,541.9z M290.1,580c0,4.2-2.6,7.6-7.1,7.6
		s-7-3.4-7-7.6s2.6-7.6,7.1-7.6S290.1,575.8,290.1,580L290.1,580z M290.1,618c0,4.2-2.6,7.6-7.1,7.6s-7.1-3.4-7.1-7.6
		s2.6-7.6,7.1-7.6S290.1,613.9,290.1,618L290.1,618z M290.1,655c0,4.2-2.6,7.6-7.1,7.6s-7.1-3.4-7.1-7.6s2.6-7.6,7.1-7.6
		S290.1,650.9,290.1,655L290.1,655z M290.1,693c0,4.2-2.6,7.6-7.1,7.6s-7.1-3.4-7.1-7.6s2.6-7.6,7.1-7.6S290.1,688.9,290.1,693
		L290.1,693z M290.1,730c0,4.2-2.6,7.6-7.1,7.6s-7.1-3.4-7.1-7.6s2.6-7.6,7.1-7.6S290.1,725.9,290.1,730L290.1,730z M290.1,768.2
		c0,4.2-2.6,7.6-7.1,7.6s-7.1-3.4-7.1-7.6s2.6-7.6,7.1-7.6S290.1,764,290.1,768.2L290.1,768.2z M290.1,806.3c0,4.2-2.6,7.6-7.1,7.6
		s-7.1-3.4-7.1-7.6s2.6-7.6,7.1-7.6S290.1,802,290.1,806.3L290.1,806.3z M290.1,843.3c0,4.2-2.6,7.6-7.1,7.6s-7.1-3.4-7.1-7.6
		s2.6-7.6,7.1-7.6S290.1,839,290.1,843.3L290.1,843.3z M290.1,881.4c0,4.2-2.6,7.6-7.1,7.6s-7.1-3.4-7.1-7.6s2.6-7.6,7.1-7.6
		S290.1,877.2,290.1,881.4L290.1,881.4z M26,466.8c0,4.2-2.6,7.6-7.1,7.6s-7.1-3.4-7.1-7.6s2.6-7.6,7.1-7.6S26,462.6,26,466.8z
		 M26,504.9c0,4.2-2.6,7.6-7.1,7.6s-7.1-3.4-7.1-7.6s2.6-7.6,7.1-7.6S26,500.7,26,504.9L26,504.9z M26,541.9c0,4.2-2.6,7.6-7.1,7.6
		s-7.1-3.4-7.1-7.6s2.6-7.6,7.1-7.6S26,537.7,26,541.9L26,541.9z M26,580c0,4.2-2.6,7.6-7.1,7.6s-7.1-3.4-7.1-7.6s2.6-7.6,7.1-7.6
		S26,575.8,26,580L26,580z M26,618c0,4.2-2.6,7.6-7.1,7.6s-7.1-3.4-7.1-7.6s2.6-7.6,7.1-7.6S26,613.9,26,618L26,618z M26,655
		c0,4.2-2.6,7.6-7.1,7.6s-7.1-3.4-7.1-7.6s2.6-7.6,7.1-7.6S26,650.9,26,655L26,655z M26,693c0,4.2-2.6,7.6-7.1,7.6s-7.1-3.4-7.1-7.6
		s2.6-7.6,7.1-7.6S26,688.9,26,693L26,693z M26,730c0,4.2-2.6,7.6-7.1,7.6s-7.1-3.4-7.1-7.6s2.6-7.6,7.1-7.6S26,725.9,26,730L26,730
		z M26,768.2c0,4.2-2.6,7.6-7.1,7.6s-7.1-3.4-7.1-7.6s2.6-7.6,7.1-7.6S26,764,26,768.2L26,768.2z M26,806.3c0,4.2-2.6,7.6-7.1,7.6
		s-7.1-3.4-7.1-7.6s2.6-7.6,7.1-7.6S26,802,26,806.3L26,806.3z M26,843.3c0,4.2-2.6,7.6-7.1,7.6s-7.1-3.4-7.1-7.6s2.6-7.6,7.1-7.6
		S26,839,26,843.3L26,843.3z M26,881.4c0,4.2-2.6,7.6-7.1,7.6s-7.1-3.4-7.1-7.6s2.6-7.6,7.1-7.6S26,877.2,26,881.4L26,881.4z"/>
	<path id="圆角矩形_9_拷贝" class="st4" d="M292.3,441.1v462.8c0,0.8-0.7,1.5-1.5,1.5h-0.3c-0.8,0-1.5-0.7-1.5-1.5V441.1
		c0-0.8,0.7-1.5,1.5-1.5h0.3C291.6,439.6,292.3,440.3,292.3,441.1z M13,441.1v462.8c0,0.8-0.7,1.5-1.5,1.5h-0.3
		c-0.8,0-1.5-0.7-1.5-1.5V441.1c0-0.8,0.7-1.5,1.5-1.5h0.3C12.3,439.6,13,440.3,13,441.1L13,441.1L13,441.1z"/>
</g>
<linearGradient id="矩形_8_1_" gradientUnits="userSpaceOnUse" x1="589.2" y1="1096.4" x2="589.2" y2="957.3" gradientTransform="matrix(6.123234e-17 1 -1 6.123234e-17 1179.0499 362.95)">
	<stop  offset="0" style="stop-color:#000000"/>
	<stop  offset="1" style="stop-color:#4D4D4D"/>
</linearGradient>
<rect id="矩形_8" x="82.6" y="941.3" class="st5" width="139.1" height="21.8"/>
<g id="chezhou">
	<path id="圆角矩形_7" d="M224.9,90v14.8c0,2.2-1.8,4-4,4H111.5c-2.2,0-4-1.8-4-4V90c0-2.2,1.8-4,4-4h109.4
		C223.1,86,224.9,87.8,224.9,90z"/>
	<path id="圆角矩形_8_拷贝" d="M201,64v11.2c0,1.1-0.9,2-2,2h-61.2c-1.1,0-2-0.9-2-2V64c0-1.1,0.9-2,2-2H199
		C200.1,62,201,62.9,201,64z"/>
	
		<linearGradient id="圆角矩形_8_1_" gradientUnits="userSpaceOnUse" x1="-306.4" y1="1010.65" x2="-280.3" y2="1010.65" gradientTransform="matrix(6.123234e-17 1 -1 6.123234e-17 1179.0499 362.95)">
		<stop  offset="0" style="stop-color:#FFFFFF"/>
		<stop  offset="0.423" style="stop-color:#DBDBDB"/>
		<stop  offset="1" style="stop-color:#FFFFFF"/>
	</linearGradient>
	<path id="圆角矩形_8" class="st6" d="M190.1,60.6v18.1c0,2.2-1.8,4-4,4h-35.5c-2.2,0-4-1.8-4-4V60.6c0-2.2,1.8-4,4-4h35.5
		C188.3,56.6,190.1,58.4,190.1,60.6z"/>
</g>
<g id="jiashi">
	
		<linearGradient id="圆角矩形_9_拷贝_2_1_" gradientUnits="userSpaceOnUse" x1="450.35" y1="1154" x2="450.35" y2="1048.5649" gradientTransform="matrix(6.123234e-17 1 -1 6.123234e-17 1179.0499 362.95)">
		<stop  offset="0" style="stop-color:#FF2700"/>
		<stop  offset="1" style="stop-color:#FF5200"/>
	</linearGradient>
	<path id="圆角矩形_9_拷贝_2" class="st7" d="M130.3,768.2v90.3c0,2.4-1.9,4.4-4.3,4.4H29.3c-2.4,0-4.3-2-4.3-4.4v-76.2
		c0-2.4,8.5-18.5,10.9-18.5H126C128.4,763.9,130.3,765.8,130.3,768.2L130.3,768.2z"/>
	
		<linearGradient id="矩形_3_1_" gradientUnits="userSpaceOnUse" x1="415.55" y1="1169.2999" x2="415.55" y2="1049.7" gradientTransform="matrix(6.123234e-17 1 -1 6.123234e-17 1179.0499 362.95)">
		<stop  offset="0" style="stop-color:#FF1200"/>
		<stop  offset="1" style="stop-color:#FF2F00"/>
	</linearGradient>
	<path id="矩形_3" class="st8" d="M129.3,768.2v20.7H27.1L9.8,768.2H129.3z"/>
	
		<linearGradient id="圆角矩形_9_1_" gradientUnits="userSpaceOnUse" x1="345.95" y1="1169.2999" x2="345.95" y2="1053" gradientTransform="matrix(6.123234e-17 1 -1 6.123234e-17 1179.0499 362.95)">
		<stop  offset="0" style="stop-color:#FF2700"/>
		<stop  offset="1" style="stop-color:#FF5200"/>
	</linearGradient>
	<path id="圆角矩形_9" class="st9" d="M126,647.4v123c0,2.4-1.9,4.4-4.3,4.4H14c-2.4,0-4.3-2-4.3-4.4V661.5
		c0-2.4,8.5-18.5,10.9-18.5h101.1C124.1,643,126,645,126,647.4L126,647.4z"/>
</g>
<path id="chejiashichanghu" class="st10" d="M26,647.4l-5.4,12l89.1,1.1l5.4-12L26,647.4z M115.1,665.9l-3.3,21.8l1.1,70.7l8.7,12
	V655L115.1,665.9z"/>
<linearGradient id="yinying01_1_" gradientUnits="userSpaceOnUse" x1="380.25" y1="1070.4" x2="380.25" y2="1053" gradientTransform="matrix(6.123234e-17 1 -1 6.123234e-17 1179.0499 362.95)">
	<stop  offset="0" style="stop-color:#000000;stop-opacity:0"/>
	<stop  offset="1" style="stop-color:#000000"/>
</linearGradient>
<path id="yinying01" class="st11" d="M122.7,633.3v142.3c0,2.5,3.3,9.3,3.3,11.7c0,2.3-3.3,0.2-3.3,2.4v63.5h-14.1v-62.9
	c0-2.2,3.3-0.1,3.3-2.4c0-2.6-3.3-9.6-3.3-12.2V633.3H122.7z"/>
<linearGradient id="yinying02_1_" gradientUnits="userSpaceOnUse" x1="471.6" y1="1024.2" x2="485.746" y2="1024.2" gradientTransform="matrix(6.123234e-17 1 -1 6.123234e-17 1179.0499 362.95)">
	<stop  offset="0" style="stop-color:#000000;stop-opacity:0"/>
	<stop  offset="1" style="stop-color:#000000"/>
</linearGradient>
<path id="yinying02" class="st12" d="M284.8,848.7H25v-14.1h259.8V848.7z"/>
<g id="tou">
	<path id="圆角矩形_11_拷贝" class="st13" d="M239.3,167.6L239.3,167.6c0,1.8-1.8,3.3-4,3.3h-166c-2.2,0-4-1.5-4-3.3l0,0
		c0-1.8,1.8-3.3,4-3.3h166C237.6,164.3,239.3,165.8,239.3,167.6z"/>
	
		<linearGradient id="圆角矩形_11_1_" gradientUnits="userSpaceOnUse" x1="-176.95" y1="1177.8999" x2="-176.95" y2="879.1" gradientTransform="matrix(6.123234e-17 1 -1 6.123234e-17 1179.0499 362.95)">
		<stop  offset="0" style="stop-color:#FF2700"/>
		<stop  offset="0.146" style="stop-color:#FF0900"/>
		<stop  offset="0.879" style="stop-color:#FF3600"/>
		<stop  offset="1" style="stop-color:#FF5200"/>
	</linearGradient>
	<path id="圆角矩形_11" class="st14" d="M281.4,174.1l18.5,20.7c0,2.4-1.9,7.6-4.3,7.6H5.4c-2.4,0-4.3-5.2-4.3-7.6l26.1-20.7
		c0-2.4,1.9-4.4,4.3-4.4h245.6C279.5,169.7,281.4,171.7,281.4,174.1L281.4,174.1z"/>
	
		<linearGradient id="圆角矩形_10_1_" gradientUnits="userSpaceOnUse" x1="-40.35" y1="1178" x2="-40.35" y2="877.9999" gradientTransform="matrix(6.123234e-17 1 -1 6.123234e-17 1179.0499 362.95)">
		<stop  offset="0" style="stop-color:#FF2700"/>
		<stop  offset="1" style="stop-color:#FF5200"/>
	</linearGradient>
	<path id="圆角矩形_10" class="st15" d="M301,196.6v252.1c0,2.2-1.8,4-4,4H5c-2.2,0-4-1.8-4-4V196.6c0-2.2,1.8-4,4-4h292
		C299.3,192.6,301,194.4,301,196.6z"/>
</g>
<path id="j" class="st16" d="M248.8,361.3l10.9,91.4H43.4l10.9-91.4H248.8z"/>
<g id="tou2">
	
		<linearGradient id="矩形_4_1_" gradientUnits="userSpaceOnUse" x1="58.7" y1="1069.2999" x2="58.7" y2="955.2" gradientTransform="matrix(6.123234e-17 1 -1 6.123234e-17 1179.0499 362.95)">
		<stop  offset="0" style="stop-color:#FF0900"/>
		<stop  offset="0.254" style="stop-color:#FF5200"/>
		<stop  offset="0.839" style="stop-color:#FF3600"/>
		<stop  offset="1" style="stop-color:#FF0900"/>
	</linearGradient>
	<rect id="矩形_4" x="109.8" y="390.7" class="st17" width="114.1" height="62"/>
	<path id="矩形_5" class="st18" d="M264,195.9L246.7,296H57.6L36.9,195.9H264z"/>
	
		<linearGradient id="矩形_7_1_" gradientUnits="userSpaceOnUse" x1="-59.4" y1="487.1" x2="-27.838" y2="487.1" gradientTransform="matrix(6.123234e-17 1 -1 6.123234e-17 637.05 362.95)">
		<stop  offset="0" style="stop-color:#FF0000"/>
		<stop  offset="0.808" style="stop-color:#FF0000;stop-opacity:0"/>
	</linearGradient>
	<path id="矩形_7" class="st19" d="M233.6,303.6v31.6H201v-31.6H233.6z M104.2,304.7V333h-38v-28.3H104.2z"/>
</g>
<path id="cghetouchuNG" class="st16" d="M281.4,174.1l10.9,12H11.9l15.2-12H281.4z"/>
<g id="GG">
	
		<linearGradient id="圆角矩形_6_1_" gradientUnits="userSpaceOnUse" x1="-266.1" y1="1065" x2="-266.1" y2="959.4999" gradientTransform="matrix(6.123234e-17 1 -1 6.123234e-17 1179.0499 362.95)">
		<stop  offset="0" style="stop-color:#FF1A00"/>
		<stop  offset="1" style="stop-color:#FF641A"/>
	</linearGradient>
	<path id="圆角矩形_6" class="st20" d="M219.5,83.3v27.2c0,3.3-2.7,6-6,6H120c-3.3,0-6-2.7-6-6V83.3c0-3.3,2.7-6,6-6h93.5
		C216.8,77.3,219.5,79.9,219.5,83.3z"/>
	
		<linearGradient id="矩形_2_1_" gradientUnits="userSpaceOnUse" x1="104.3" y1="1056.2" x2="104.3" y2="968.2" gradientTransform="matrix(6.123234e-17 1 -1 6.123234e-17 1179.0499 362.95)">
		<stop  offset="0" style="stop-color:#FF2700"/>
		<stop  offset="1" style="stop-color:#FF5200"/>
	</linearGradient>
	<path id="矩形_2" class="st21" d="M210.8,82.3v770c0,2.2-1.8,4-4,4h-80c-2.2,0-4-1.8-4-4v-770c0-2.2,1.8-4,4-4h80
		C209,78.3,210.8,80.1,210.8,82.3z"/>
	
		<linearGradient id="圆角矩形_1_1_" gradientUnits="userSpaceOnUse" x1="533.65" y1="1158.3999" x2="533.65" y2="894.3" gradientTransform="matrix(6.123234e-17 1 -1 6.123234e-17 1179.0499 362.95)">
		<stop  offset="0" style="stop-color:#FF2700"/>
		<stop  offset="1" style="stop-color:#FF5200"/>
	</linearGradient>
	<path id="圆角矩形_1" class="st22" d="M284.8,852.5v88.1c0,3.3-2.7,6-6,6H26.6c-3.3,0-6-2.7-6-6v-88.1c0-3.3,2.7-6,6-6h252.1
		C282,846.5,284.8,849.2,284.8,852.5z"/>
	
		<linearGradient id="圆角矩形_2_1_" gradientUnits="userSpaceOnUse" x1="483.57" y1="1011.05" x2="517.302" y2="1011.05" gradientTransform="matrix(6.123234e-17 1 -1 6.123234e-17 1179.0499 362.95)">
		<stop  offset="0" style="stop-color:#FF5200"/>
		<stop  offset="1" style="stop-color:#FF0000"/>
	</linearGradient>
	<path id="圆角矩形_2" class="st23" d="M213,856.4V876c0,2.4-1.9,4.4-4.3,4.4l0,0h-81.5c-2.4,0-4.3-2-4.3-4.4v-20.7
		c0-2.4,1.9-4.4,4.3-4.4l5.4-4.4h71l5.1,5.4C211,852,213,854,213,856.4z"/>
	
		<linearGradient id="矩形_1_拷贝_1_" gradientUnits="userSpaceOnUse" x1="485.75" y1="469.15" x2="517.313" y2="469.15" gradientTransform="matrix(6.123234e-17 1 -1 6.123234e-17 637.05 362.95)">
		<stop  offset="0" style="stop-color:#FF81C2;stop-opacity:0"/>
		<stop  offset="1" style="stop-color:#CC0000"/>
	</linearGradient>
	<path id="矩形_1_拷贝" class="st24" d="M204.3,848.8v31.6h-2.2v-31.6H204.3z M133.6,848.8v31.6h-2.2v-31.6H133.6z"/>
	
		<linearGradient id="矩形_1_1_" gradientUnits="userSpaceOnUse" x1="491.2" y1="1011.15" x2="517.3" y2="1011.15" gradientTransform="matrix(6.123234e-17 1 -1 6.123234e-17 1179.0499 362.95)">
		<stop  offset="0" style="stop-color:#FF81C2;stop-opacity:0"/>
		<stop  offset="1" style="stop-color:#CE0000"/>
	</linearGradient>
	<rect id="矩形_1" x="133.6" y="854.2" class="st25" width="68.5" height="26.1"/>
	<circle id="椭圆_1" class="st26" cx="65.7" cy="908" r="12.5"/>
	<path id="圆角矩形_5_拷贝" class="st27" d="M174.9,41v800.5c0,2.2-1.8,4-4,4h-5c-2.2,0-4-1.8-4-4V41c0-2.2,1.8-4,4-4h5
		C173.1,37,174.9,38.8,174.9,41z"/>
</g>
<g id="组_3">
	<path id="圆角矩形_3" class="st28" d="M188,848.5V862c0,1.1-0.9,2-2,2h-34.1c-1.1,0-2-0.9-2-2v-13.4c0-1.1,0.9-2,2-2H186
		C187.1,846.5,188,847.5,188,848.5z"/>
	<path id="圆角矩形_3_拷贝" class="st29" d="M184.7,848.5v10.2c0,1.1-0.9,2-2,2h-27.5c-1.1,0-2-0.9-2-2v-10.2c0-1.1,0.9-2,2-2
		h27.5C183.8,846.5,184.7,847.5,184.7,848.5z"/>
	<path id="圆角矩形_4" class="st30" d="M193.4,819.9v20.6c0,3.3-2.7,6-6,6h-38c-3.3,0-6-2.7-6-6v-20.6c0-3.3,2.7-6,6-6h38
		C190.7,813.9,193.4,816.5,193.4,819.9z"/>
	<path id="多边形_1_拷贝" class="st31" d="M180.4,835l-3.9-2.3v-4.6l4-2.3l3.9,2.3v4.6L180.4,835z M156.5,835l-3.9-2.3v-4.6
		l4-2.3l3.9,2.3v4.6L156.5,835z"/>
	<path id="圆角矩形_5" d="M172.7,43.2v798.3c0,2.2-1.8,4-4,4H168c-2.2,0-4-1.8-4-4V43.2c0-2.2,1.8-4,4-4h0.7
		C171,39.2,172.7,41,172.7,43.2z"/>
	<g id="组_4">
		<path id="椭圆_2" d="M205.4,306.9c-1.1,1.8-4.9,1.6-8.5-0.5c-3.6-2.1-5.7-5.3-4.7-7.1s4.9-1.6,8.5,0.5
			C204.3,301.9,206.5,305,205.4,306.9z"/>
		<path id="椭圆_2_拷贝" d="M205.4,360.2c-1.1,1.8-4.9,1.6-8.5-0.5c-3.6-2.1-5.7-5.3-4.7-7.1s4.9-1.6,8.5,0.5
			C204.3,355.2,206.5,358.4,205.4,360.2z"/>
		<path id="椭圆_2_拷贝_2" d="M205.4,414.6c-1.1,1.8-4.9,1.6-8.5-0.5c-3.6-2.1-5.7-5.3-4.7-7.1s4.9-1.6,8.5,0.5
			C204.3,409.6,206.5,412.8,205.4,414.6z"/>
		<path id="椭圆_2_拷贝_3" d="M205.4,467.9c-1.1,1.8-4.9,1.6-8.5-0.5c-3.6-2.1-5.7-5.3-4.7-7.1s4.9-1.6,8.5,0.5
			C204.3,462.9,206.5,466.1,205.4,467.9z"/>
		<path id="椭圆_2_拷贝_4" d="M205.4,521.2c-1.1,1.8-4.9,1.6-8.5-0.5c-3.6-2.1-5.7-5.3-4.7-7.1c1-1.8,4.9-1.6,8.5,0.5
			C204.3,516.2,206.5,519.3,205.4,521.2z"/>
		<path id="椭圆_2_拷贝_5" d="M205.4,575.5c-1.1,1.8-4.9,1.6-8.5-0.5c-3.6-2.1-5.7-5.3-4.7-7.1s4.9-1.6,8.5,0.5
			C204.3,570.5,206.5,573.8,205.4,575.5z"/>
		<path id="椭圆_2_拷贝_6" d="M205.4,628.9c-1.1,1.8-4.9,1.6-8.5-0.5c-3.6-2.1-5.7-5.3-4.7-7.1s4.9-1.6,8.5,0.5
			C204.3,623.9,206.5,627,205.4,628.9z"/>
		<path id="椭圆_2_拷贝_7" d="M205.4,682.3c-1.1,1.8-4.9,1.6-8.5-0.5c-3.6-2.1-5.7-5.3-4.7-7.1s4.9-1.6,8.5,0.5
			C204.3,677.3,206.5,680.4,205.4,682.3z"/>
		<path id="椭圆_2_拷贝_8" d="M205.4,736.7c-1.1,1.8-4.9,1.6-8.5-0.5c-3.6-2.1-5.7-5.3-4.7-7.1s4.9-1.6,8.5,0.5
			C204.3,731.7,206.5,734.8,205.4,736.7z"/>
		<path id="椭圆_2_拷贝_9" d="M205.4,790c-1.1,1.8-4.9,1.6-8.5-0.5c-3.6-2.1-5.7-5.3-4.7-7.1s4.9-1.6,8.5,0.5
			C204.3,785,206.5,788.2,205.4,790z"/>
		<path id="椭圆_2_拷贝_10" d="M127.4,307c1.1,1.8,5,1.6,8.7-0.5s5.9-5.3,4.8-7.1s-5-1.6-8.7,0.5S126.3,305.2,127.4,307z"/>
		<path id="椭圆_2_拷贝_11" d="M127.4,360.3c1.1,1.8,5,1.6,8.7-0.5s5.9-5.3,4.8-7.1s-5-1.6-8.7,0.5S126.3,358.5,127.4,360.3z"/>
		<path id="椭圆_2_拷贝_12" d="M127.4,414.7c1.1,1.8,5,1.6,8.7-0.5s5.9-5.3,4.8-7.1s-5-1.6-8.7,0.5S126.3,412.9,127.4,414.7z"/>
		<path id="椭圆_2_拷贝_13" d="M127.4,468c1.1,1.8,5,1.6,8.7-0.5s5.9-5.3,4.8-7.1s-5-1.6-8.7,0.5S126.3,466.1,127.4,468z"/>
		<path id="椭圆_2_拷贝_14" d="M127.4,521.2c1.1,1.8,5,1.6,8.7-0.5c3.7-2.1,5.9-5.3,4.8-7.1c-1.1-1.8-5-1.6-8.7,0.5
			C128.5,516.2,126.3,519.3,127.4,521.2z"/>
		<path id="椭圆_2_拷贝_15" d="M127.4,575.5c1.1,1.8,5,1.6,8.7-0.5s5.9-5.3,4.8-7.1s-5-1.6-8.7,0.5S126.3,573.8,127.4,575.5z"/>
		<path id="椭圆_2_拷贝_16" d="M127.4,628.9c1.1,1.8,5,1.6,8.7-0.5s5.9-5.3,4.8-7.1s-5-1.6-8.7,0.5S126.3,627,127.4,628.9z"/>
		<path id="椭圆_2_拷贝_17" d="M127.4,682.2c1.1,1.8,5,1.6,8.7-0.5s5.9-5.3,4.8-7.1s-5-1.6-8.7,0.5S126.3,680.3,127.4,682.2z"/>
		<path id="椭圆_2_拷贝_18" d="M127.4,736.5c1.1,1.8,5,1.6,8.7-0.5s5.9-5.3,4.8-7.1s-5-1.6-8.7,0.5S126.3,734.7,127.4,736.5z"/>
		<path id="椭圆_2_拷贝_19" d="M127.4,789.8c1.1,1.8,5,1.6,8.7-0.5s5.9-5.3,4.8-7.1s-5-1.6-8.7,0.5S126.3,788,127.4,789.8z"/>
	</g>
</g>
</svg>
