<?xml version="1.0" encoding="utf-8"?>
<!-- Generator: Adobe Illustrator 22.1.0, SVG Export Plug-In . SVG Version: 6.00 Build 0)  -->
<svg version="1.1" id="组_2" xmlns="http://www.w3.org/2000/svg" xmlns:xlink="http://www.w3.org/1999/xlink" x="0px" y="0px"
	 viewBox="0 0 300 1000" style="enable-background:new 0 0 300 1000;" xml:space="preserve">
<style type="text/css">
	.st0{fill:#666666;}
	.st1{fill:#373737;}
	.st2{opacity:0.99;fill-opacity:0.3;enable-background:new    ;}
	.st3{fill:#FFFFFF;fill-opacity:0.3;}
	.st4{fill-opacity:0.4;}
	.st5{fill:url(#矩形_8_1_);}
	.st6{fill:url(#圆角矩形_8_1_);}
	.st7{fill:url(#圆角矩形_9_拷贝_2_1_);}
	.st8{fill:url(#矩形_3_1_);}
	.st9{fill:url(#圆角矩形_9_1_);}
	.st10{fill:#111111;}
	.st11{fill:url(#yinying01_1_);fill-opacity:0.3;}
	.st12{fill:url(#yinying02_1_);fill-opacity:0.3;}
	.st13{fill:url(#圆角矩形_11_1_);}
	.st14{fill:url(#圆角矩形_10_1_);}
	.st15{fill:#333333;}
	.st16{fill:url(#矩形_4_1_);}
	.st17{fill:none;stroke:#242424;stroke-width:4;}
	.st18{fill:url(#矩形_7_1_);fill-opacity:0.7;}
	.st19{fill:url(#圆角矩形_6_1_);}
	.st20{fill:url(#矩形_2_1_);}
	.st21{fill:url(#圆角矩形_1_1_);}
	.st22{fill:url(#圆角矩形_2_1_);}
	.st23{fill:url(#矩形_1_拷贝_1_);fill-opacity:0.2;}
	.st24{fill:url(#矩形_1_1_);}
	.st25{fill:#282828;}
	.st26{fill:#BBBBBB;}
	.st27{fill:#1F2A34;}
	.st28{fill:#DDDDDD;}
	.st29{fill:#6F6F6F;}
</style>
<g id="cheD">
	<path id="D" class="st0" d="M293.5,361.5v539.3c0,5.5-4.5,10-10,10H16.6c-5.5,0-10-4.5-10-10V361.5c0-5.5,4.5-10,10-10h266.9
		C289,351.5,293.5,355.9,293.5,361.5z"/>
	<rect id="D2" x="59.8" y="351.5" class="st1" width="182.6" height="559.3"/>
	<path id="形状_1_拷贝_5" class="st2" d="M272.8,507.1v2.2H23.9v-2.2H272.8z M272.8,575.5v2.2H23.9v-2.2H272.8L272.8,575.5z
		 M272.8,643v2.2H23.9V643H272.8z M272.8,711.5v2.2H23.9v-2.2H272.8z M272.8,779v2.2H23.9V779H272.8z M272.8,847.7v2.2H23.9v-2.2
		H272.8z"/>
	<path id="椭圆_3" class="st3" d="M289.1,466.8c0,4.2-2.6,7.6-7.1,7.6s-7-3.4-7-7.6s2.6-7.6,7.1-7.6S289.1,462.6,289.1,466.8z
		 M289.1,504.9c0,4.2-2.6,7.6-7.1,7.6s-7.1-3.4-7.1-7.6s2.6-7.6,7.1-7.6S289.1,500.7,289.1,504.9L289.1,504.9z M289.1,541.9
		c0,4.2-2.6,7.6-7.1,7.6s-7.1-3.4-7.1-7.6s2.6-7.6,7.1-7.6S289.1,537.7,289.1,541.9L289.1,541.9z M289.1,580c0,4.2-2.6,7.6-7.1,7.6
		s-7-3.4-7-7.6s2.6-7.6,7.1-7.6S289.1,575.8,289.1,580L289.1,580z M289.1,618c0,4.2-2.6,7.6-7.1,7.6s-7.1-3.4-7.1-7.6
		s2.6-7.6,7.1-7.6S289.1,613.9,289.1,618L289.1,618z M289.1,655c0,4.2-2.6,7.6-7.1,7.6s-7.1-3.4-7.1-7.6s2.6-7.6,7.1-7.6
		S289.1,650.9,289.1,655L289.1,655z M289.1,693c0,4.2-2.6,7.6-7.1,7.6s-7.1-3.4-7.1-7.6s2.6-7.6,7.1-7.6S289.1,688.9,289.1,693
		L289.1,693z M289.1,730c0,4.2-2.6,7.6-7.1,7.6s-7.1-3.4-7.1-7.6s2.6-7.6,7.1-7.6S289.1,725.9,289.1,730L289.1,730z M289.1,768.2
		c0,4.2-2.6,7.6-7.1,7.6s-7.1-3.4-7.1-7.6s2.6-7.6,7.1-7.6S289.1,764,289.1,768.2L289.1,768.2z M289.1,806.3c0,4.2-2.6,7.6-7.1,7.6
		s-7.1-3.4-7.1-7.6s2.6-7.6,7.1-7.6S289.1,802,289.1,806.3L289.1,806.3z M289.1,843.3c0,4.2-2.6,7.6-7.1,7.6s-7.1-3.4-7.1-7.6
		s2.6-7.6,7.1-7.6S289.1,839,289.1,843.3L289.1,843.3z M289.1,881.4c0,4.2-2.6,7.6-7.1,7.6s-7.1-3.4-7.1-7.6s2.6-7.6,7.1-7.6
		S289.1,877.2,289.1,881.4L289.1,881.4z M25,466.8c0,4.2-2.6,7.6-7.1,7.6s-7.1-3.4-7.1-7.6s2.6-7.6,7.1-7.6S25,462.6,25,466.8z
		 M25,504.9c0,4.2-2.6,7.6-7.1,7.6s-7.1-3.4-7.1-7.6s2.6-7.6,7.1-7.6S25,500.7,25,504.9L25,504.9z M25,541.9c0,4.2-2.6,7.6-7.1,7.6
		s-7.1-3.4-7.1-7.6s2.6-7.6,7.1-7.6S25,537.7,25,541.9L25,541.9z M25,580c0,4.2-2.6,7.6-7.1,7.6s-7.1-3.4-7.1-7.6s2.6-7.6,7.1-7.6
		S25,575.8,25,580L25,580z M25,618c0,4.2-2.6,7.6-7.1,7.6s-7.1-3.4-7.1-7.6s2.6-7.6,7.1-7.6S25,613.9,25,618L25,618z M25,655
		c0,4.2-2.6,7.6-7.1,7.6s-7.1-3.4-7.1-7.6s2.6-7.6,7.1-7.6S25,650.9,25,655L25,655z M25,693c0,4.2-2.6,7.6-7.1,7.6s-7.1-3.4-7.1-7.6
		s2.6-7.6,7.1-7.6S25,688.9,25,693L25,693z M25,730c0,4.2-2.6,7.6-7.1,7.6s-7.1-3.4-7.1-7.6s2.6-7.6,7.1-7.6S25,725.9,25,730L25,730
		z M25,768.2c0,4.2-2.6,7.6-7.1,7.6s-7.1-3.4-7.1-7.6s2.6-7.6,7.1-7.6S25,764,25,768.2L25,768.2z M25,806.3c0,4.2-2.6,7.6-7.1,7.6
		s-7.1-3.4-7.1-7.6s2.6-7.6,7.1-7.6S25,802,25,806.3L25,806.3z M25,843.3c0,4.2-2.6,7.6-7.1,7.6s-7.1-3.4-7.1-7.6s2.6-7.6,7.1-7.6
		S25,839,25,843.3L25,843.3z M25,881.4c0,4.2-2.6,7.6-7.1,7.6s-7.1-3.4-7.1-7.6s2.6-7.6,7.1-7.6S25,877.2,25,881.4L25,881.4z"/>
	<path id="圆角矩形_9_拷贝" class="st4" d="M291.3,441.1v462.8c0,0.8-0.7,1.5-1.5,1.5h-0.3c-0.8,0-1.5-0.7-1.5-1.5V441.1
		c0-0.8,0.7-1.5,1.5-1.5h0.3C290.6,439.6,291.3,440.3,291.3,441.1z M12,441.1v462.8c0,0.8-0.7,1.5-1.5,1.5h-0.3
		c-0.8,0-1.5-0.7-1.5-1.5V441.1c0-0.8,0.7-1.5,1.5-1.5h0.3C11.3,439.6,12,440.3,12,441.1L12,441.1L12,441.1z"/>
</g>
<linearGradient id="矩形_8_1_" gradientUnits="userSpaceOnUse" x1="589.2" y1="1097.4" x2="589.2" y2="958.3" gradientTransform="matrix(6.123234e-17 1 -1 6.123234e-17 1179.0499 362.95)">
	<stop  offset="0" style="stop-color:#000000"/>
	<stop  offset="1" style="stop-color:#4D4D4D"/>
</linearGradient>
<rect id="矩形_8" x="81.6" y="941.3" class="st5" width="139.1" height="21.8"/>
<g id="chezhou">
	<path id="圆角矩形_7" d="M223.9,90v14.8c0,2.2-1.8,4-4,4H110.5c-2.2,0-4-1.8-4-4V90c0-2.2,1.8-4,4-4h109.4
		C222.1,86,223.9,87.8,223.9,90z"/>
	<path id="圆角矩形_8_拷贝" d="M200,64v11.2c0,1.1-0.9,2-2,2h-61.2c-1.1,0-2-0.9-2-2V64c0-1.1,0.9-2,2-2H198
		C199.1,62,200,62.9,200,64z"/>
	
		<linearGradient id="圆角矩形_8_1_" gradientUnits="userSpaceOnUse" x1="-306.4" y1="1011.65" x2="-280.3" y2="1011.65" gradientTransform="matrix(6.123234e-17 1 -1 6.123234e-17 1179.0499 362.95)">
		<stop  offset="0" style="stop-color:#FFFFFF"/>
		<stop  offset="0.423" style="stop-color:#DBDBDB"/>
		<stop  offset="1" style="stop-color:#FFFFFF"/>
	</linearGradient>
	<path id="圆角矩形_8" class="st6" d="M189.1,60.6v18.1c0,2.2-1.8,4-4,4h-35.5c-2.2,0-4-1.8-4-4V60.6c0-2.2,1.8-4,4-4h35.5
		C187.3,56.6,189.1,58.4,189.1,60.6z"/>
</g>
<g id="jiashi">
	
		<linearGradient id="圆角矩形_9_拷贝_2_1_" gradientUnits="userSpaceOnUse" x1="450.35" y1="1155" x2="450.35" y2="1049.5649" gradientTransform="matrix(6.123234e-17 1 -1 6.123234e-17 1179.0499 362.95)">
		<stop  offset="0" style="stop-color:#A0A0A0"/>
		<stop  offset="1" style="stop-color:#BDBDBD"/>
	</linearGradient>
	<path id="圆角矩形_9_拷贝_2" class="st7" d="M129.3,768.2v90.3c0,2.4-1.9,4.4-4.3,4.4H28.3c-2.4,0-4.3-2-4.3-4.4v-76.2
		c0-2.4,8.5-18.5,10.9-18.5H125C127.4,763.9,129.3,765.8,129.3,768.2L129.3,768.2z"/>
	
		<linearGradient id="矩形_3_1_" gradientUnits="userSpaceOnUse" x1="415.55" y1="1170.2999" x2="415.55" y2="1050.7" gradientTransform="matrix(6.123234e-17 1 -1 6.123234e-17 1179.0499 362.95)">
		<stop  offset="0" style="stop-color:#898989"/>
		<stop  offset="1" style="stop-color:#9B9B9B"/>
	</linearGradient>
	<path id="矩形_3" class="st8" d="M128.3,768.2v20.7H26.1L8.8,768.2H128.3z"/>
	
		<linearGradient id="圆角矩形_9_1_" gradientUnits="userSpaceOnUse" x1="345.95" y1="1170.2999" x2="345.95" y2="1054" gradientTransform="matrix(6.123234e-17 1 -1 6.123234e-17 1179.0499 362.95)">
		<stop  offset="0" style="stop-color:#A0A0A0"/>
		<stop  offset="1" style="stop-color:#BDBDBD"/>
	</linearGradient>
	<path id="圆角矩形_9" class="st9" d="M125,647.4v123c0,2.4-1.9,4.4-4.3,4.4H13c-2.4,0-4.3-2-4.3-4.4V661.5
		c0-2.4,8.5-18.5,10.9-18.5h101.1C123.1,643,125,645,125,647.4L125,647.4z"/>
</g>
<path id="chejiashichanghu" class="st10" d="M25,647.4l-5.4,12l89.1,1.1l5.4-12L25,647.4z M114.1,665.9l-3.3,21.8l1.1,70.7l8.7,12
	V655L114.1,665.9z"/>
<linearGradient id="yinying01_1_" gradientUnits="userSpaceOnUse" x1="380.25" y1="1071.4" x2="380.25" y2="1054" gradientTransform="matrix(6.123234e-17 1 -1 6.123234e-17 1179.0499 362.95)">
	<stop  offset="0" style="stop-color:#000000;stop-opacity:0"/>
	<stop  offset="1" style="stop-color:#000000"/>
</linearGradient>
<path id="yinying01" class="st11" d="M121.7,633.3v142.3c0,2.5,3.3,9.3,3.3,11.7c0,2.3-3.3,0.2-3.3,2.4v63.5h-14.1v-62.9
	c0-2.2,3.3-0.1,3.3-2.4c0-2.6-3.3-9.6-3.3-12.2V633.3H121.7z"/>
<linearGradient id="yinying02_1_" gradientUnits="userSpaceOnUse" x1="471.6" y1="1025.2" x2="485.746" y2="1025.2" gradientTransform="matrix(6.123234e-17 1 -1 6.123234e-17 1179.0499 362.95)">
	<stop  offset="0" style="stop-color:#000000;stop-opacity:0"/>
	<stop  offset="1" style="stop-color:#000000"/>
</linearGradient>
<path id="yinying02" class="st12" d="M283.8,848.7H24v-14.1h259.8V848.7z"/>
<g id="tou">
	<path id="圆角矩形_11_拷贝" d="M238.3,167.6L238.3,167.6c0,1.8-1.8,3.3-4,3.3h-166c-2.2,0-4-1.5-4-3.3l0,0
		c0-1.8,1.8-3.3,4-3.3h166C236.6,164.3,238.3,165.8,238.3,167.6z"/>
	
		<linearGradient id="圆角矩形_11_1_" gradientUnits="userSpaceOnUse" x1="-176.95" y1="1178.8999" x2="-176.95" y2="880.1" gradientTransform="matrix(6.123234e-17 1 -1 6.123234e-17 1179.0499 362.95)">
		<stop  offset="0" style="stop-color:#A0A0A0"/>
		<stop  offset="0.146" style="stop-color:#909090"/>
		<stop  offset="0.879" style="stop-color:#B1B1B1"/>
		<stop  offset="1" style="stop-color:#BDBDBD"/>
	</linearGradient>
	<path id="圆角矩形_11" class="st13" d="M280.4,174.1l18.5,20.7c0,2.4-1.9,7.6-4.3,7.6H4.4c-2.4,0-4.3-5.2-4.3-7.6l26.1-20.7
		c0-2.4,1.9-4.4,4.3-4.4h245.6C278.5,169.7,280.4,171.7,280.4,174.1L280.4,174.1z"/>
	
		<linearGradient id="圆角矩形_10_1_" gradientUnits="userSpaceOnUse" x1="-40.35" y1="1179" x2="-40.35" y2="878.9999" gradientTransform="matrix(6.123234e-17 1 -1 6.123234e-17 1179.0499 362.95)">
		<stop  offset="0" style="stop-color:#A0A0A0"/>
		<stop  offset="1" style="stop-color:#BDBDBD"/>
	</linearGradient>
	<path id="圆角矩形_10" class="st14" d="M300,196.6v252.1c0,2.2-1.8,4-4,4H4c-2.2,0-4-1.8-4-4V196.6c0-2.2,1.8-4,4-4h292
		C298.3,192.6,300,194.4,300,196.6z"/>
</g>
<path id="j" class="st15" d="M247.8,361.3l10.9,91.4H42.4l10.9-91.4H247.8z"/>
<g id="tou2">
	
		<linearGradient id="矩形_4_1_" gradientUnits="userSpaceOnUse" x1="58.7" y1="1070.2999" x2="58.7" y2="956.2" gradientTransform="matrix(6.123234e-17 1 -1 6.123234e-17 1179.0499 362.95)">
		<stop  offset="0" style="stop-color:#909090"/>
		<stop  offset="0.254" style="stop-color:#BDBDBD"/>
		<stop  offset="0.839" style="stop-color:#B1B1B1"/>
		<stop  offset="1" style="stop-color:#909090"/>
	</linearGradient>
	<rect id="矩形_4" x="108.8" y="390.7" class="st16" width="114.1" height="62"/>
	<path id="矩形_5" class="st17" d="M263,195.9L245.7,296H56.6L35.9,195.9H263z"/>
	
		<linearGradient id="矩形_7_1_" gradientUnits="userSpaceOnUse" x1="-59.4" y1="488.1" x2="-27.838" y2="488.1" gradientTransform="matrix(6.123234e-17 1 -1 6.123234e-17 637.05 362.95)">
		<stop  offset="0" style="stop-color:#252525"/>
		<stop  offset="0.808" style="stop-color:#252525;stop-opacity:0"/>
	</linearGradient>
	<path id="矩形_7" class="st18" d="M232.6,303.6v31.6H200v-31.6H232.6z M103.2,304.7V333h-38v-28.3H103.2z"/>
</g>
<path id="cghetouchuNG" class="st15" d="M280.4,174.1l10.9,12H10.9l15.2-12H280.4z"/>
<g id="GG">
	
		<linearGradient id="圆角矩形_6_1_" gradientUnits="userSpaceOnUse" x1="-266.1" y1="1066" x2="-266.1" y2="960.4999" gradientTransform="matrix(6.123234e-17 1 -1 6.123234e-17 1179.0499 362.95)">
		<stop  offset="0" style="stop-color:#929292"/>
		<stop  offset="1" style="stop-color:#D0D0D0"/>
	</linearGradient>
	<path id="圆角矩形_6" class="st19" d="M218.5,83.3v27.2c0,3.3-2.7,6-6,6H119c-3.3,0-6-2.7-6-6V83.3c0-3.3,2.7-6,6-6h93.5
		C215.8,77.3,218.5,79.9,218.5,83.3z"/>
	
		<linearGradient id="矩形_2_1_" gradientUnits="userSpaceOnUse" x1="104.3" y1="1057.2" x2="104.3" y2="969.2" gradientTransform="matrix(6.123234e-17 1 -1 6.123234e-17 1179.0499 362.95)">
		<stop  offset="0" style="stop-color:#A0A0A0"/>
		<stop  offset="1" style="stop-color:#BDBDBD"/>
	</linearGradient>
	<path id="矩形_2" class="st20" d="M209.8,82.3v770c0,2.2-1.8,4-4,4h-80c-2.2,0-4-1.8-4-4v-770c0-2.2,1.8-4,4-4h80
		C208,78.3,209.8,80.1,209.8,82.3z"/>
	
		<linearGradient id="圆角矩形_1_1_" gradientUnits="userSpaceOnUse" x1="533.65" y1="1159.3999" x2="533.65" y2="895.3" gradientTransform="matrix(6.123234e-17 1 -1 6.123234e-17 1179.0499 362.95)">
		<stop  offset="0" style="stop-color:#A0A0A0"/>
		<stop  offset="1" style="stop-color:#BDBDBD"/>
	</linearGradient>
	<path id="圆角矩形_1" class="st21" d="M283.8,852.5v88.1c0,3.3-2.7,6-6,6H25.6c-3.3,0-6-2.7-6-6v-88.1c0-3.3,2.7-6,6-6h252.1
		C281,846.5,283.8,849.2,283.8,852.5z"/>
	
		<linearGradient id="圆角矩形_2_1_" gradientUnits="userSpaceOnUse" x1="483.57" y1="1012.05" x2="517.302" y2="1012.05" gradientTransform="matrix(6.123234e-17 1 -1 6.123234e-17 1179.0499 362.95)">
		<stop  offset="0" style="stop-color:#BDBDBD"/>
		<stop  offset="1" style="stop-color:#676767"/>
	</linearGradient>
	<path id="圆角矩形_2" class="st22" d="M212,856.4V876c0,2.4-1.9,4.4-4.3,4.4l0,0h-81.5c-2.4,0-4.3-2-4.3-4.4v-20.7
		c0-2.4,1.9-4.4,4.3-4.4l5.4-4.4h71l5.1,5.4C210,852,212,854,212,856.4z"/>
	
		<linearGradient id="矩形_1_拷贝_1_" gradientUnits="userSpaceOnUse" x1="485.75" y1="470.15" x2="517.313" y2="470.15" gradientTransform="matrix(6.123234e-17 1 -1 6.123234e-17 637.05 362.95)">
		<stop  offset="0" style="stop-color:#F0F0F0;stop-opacity:0"/>
		<stop  offset="1" style="stop-color:#000000"/>
	</linearGradient>
	<path id="矩形_1_拷贝" class="st23" d="M203.3,848.8v31.6h-2.2v-31.6H203.3z M132.6,848.8v31.6h-2.2v-31.6H132.6z"/>
	
		<linearGradient id="矩形_1_1_" gradientUnits="userSpaceOnUse" x1="491.2" y1="1012.15" x2="517.3" y2="1012.15" gradientTransform="matrix(6.123234e-17 1 -1 6.123234e-17 1179.0499 362.95)">
		<stop  offset="0" style="stop-color:#F0F0F0;stop-opacity:0"/>
		<stop  offset="1" style="stop-color:#090909"/>
	</linearGradient>
	<rect id="矩形_1" x="132.6" y="854.2" class="st24" width="68.5" height="26.1"/>
	<circle id="椭圆_1" class="st25" cx="64.7" cy="908" r="12.5"/>
	<path id="圆角矩形_5_拷贝" class="st26" d="M173.9,41v800.5c0,2.2-1.8,4-4,4h-5c-2.2,0-4-1.8-4-4V41c0-2.2,1.8-4,4-4h5
		C172.1,37,173.9,38.8,173.9,41z"/>
</g>
<g id="组_3">
	<path id="圆角矩形_3" class="st27" d="M187,848.5V862c0,1.1-0.9,2-2,2h-34.1c-1.1,0-2-0.9-2-2v-13.4c0-1.1,0.9-2,2-2H185
		C186.1,846.5,187,847.5,187,848.5z"/>
	<path id="圆角矩形_3_拷贝" class="st28" d="M183.7,848.5v10.2c0,1.1-0.9,2-2,2h-27.5c-1.1,0-2-0.9-2-2v-10.2c0-1.1,0.9-2,2-2
		h27.5C182.8,846.5,183.7,847.5,183.7,848.5z"/>
	<path id="圆角矩形_4" class="st25" d="M192.4,819.9v20.6c0,3.3-2.7,6-6,6h-38c-3.3,0-6-2.7-6-6v-20.6c0-3.3,2.7-6,6-6h38
		C189.7,813.9,192.4,816.5,192.4,819.9z"/>
	<path id="多边形_1_拷贝" class="st29" d="M179.4,835l-3.9-2.3v-4.6l4-2.3l3.9,2.3v4.6L179.4,835z M155.5,835l-3.9-2.3v-4.6
		l4-2.3l3.9,2.3v4.6L155.5,835z"/>
	<path id="圆角矩形_5" d="M171.7,43.2v798.3c0,2.2-1.8,4-4,4H167c-2.2,0-4-1.8-4-4V43.2c0-2.2,1.8-4,4-4h0.7
		C170,39.2,171.7,41,171.7,43.2z"/>
	<g id="组_4">
		<path id="椭圆_2" d="M204.4,306.9c-1.1,1.8-4.9,1.6-8.5-0.5c-3.6-2.1-5.7-5.3-4.7-7.1s4.9-1.6,8.5,0.5
			C203.3,301.9,205.5,305,204.4,306.9z"/>
		<path id="椭圆_2_拷贝" d="M204.4,360.2c-1.1,1.8-4.9,1.6-8.5-0.5c-3.6-2.1-5.7-5.3-4.7-7.1s4.9-1.6,8.5,0.5
			C203.3,355.2,205.5,358.4,204.4,360.2z"/>
		<path id="椭圆_2_拷贝_2" d="M204.4,414.6c-1.1,1.8-4.9,1.6-8.5-0.5c-3.6-2.1-5.7-5.3-4.7-7.1s4.9-1.6,8.5,0.5
			C203.3,409.6,205.5,412.8,204.4,414.6z"/>
		<path id="椭圆_2_拷贝_3" d="M204.4,467.9c-1.1,1.8-4.9,1.6-8.5-0.5c-3.6-2.1-5.7-5.3-4.7-7.1s4.9-1.6,8.5,0.5
			C203.3,462.9,205.5,466.1,204.4,467.9z"/>
		<path id="椭圆_2_拷贝_4" d="M204.4,521.2c-1.1,1.8-4.9,1.6-8.5-0.5c-3.6-2.1-5.7-5.3-4.7-7.1c1-1.8,4.9-1.6,8.5,0.5
			C203.3,516.2,205.5,519.3,204.4,521.2z"/>
		<path id="椭圆_2_拷贝_5" d="M204.4,575.5c-1.1,1.8-4.9,1.6-8.5-0.5c-3.6-2.1-5.7-5.3-4.7-7.1s4.9-1.6,8.5,0.5
			C203.3,570.5,205.5,573.8,204.4,575.5z"/>
		<path id="椭圆_2_拷贝_6" d="M204.4,628.9c-1.1,1.8-4.9,1.6-8.5-0.5c-3.6-2.1-5.7-5.3-4.7-7.1s4.9-1.6,8.5,0.5
			C203.3,623.9,205.5,627,204.4,628.9z"/>
		<path id="椭圆_2_拷贝_7" d="M204.4,682.3c-1.1,1.8-4.9,1.6-8.5-0.5c-3.6-2.1-5.7-5.3-4.7-7.1s4.9-1.6,8.5,0.5
			C203.3,677.3,205.5,680.4,204.4,682.3z"/>
		<path id="椭圆_2_拷贝_8" d="M204.4,736.7c-1.1,1.8-4.9,1.6-8.5-0.5c-3.6-2.1-5.7-5.3-4.7-7.1s4.9-1.6,8.5,0.5
			C203.3,731.7,205.5,734.8,204.4,736.7z"/>
		<path id="椭圆_2_拷贝_9" d="M204.4,790c-1.1,1.8-4.9,1.6-8.5-0.5c-3.6-2.1-5.7-5.3-4.7-7.1s4.9-1.6,8.5,0.5
			C203.3,785,205.5,788.2,204.4,790z"/>
		<path id="椭圆_2_拷贝_10" d="M126.4,307c1.1,1.8,5,1.6,8.7-0.5s5.9-5.3,4.8-7.1s-5-1.6-8.7,0.5S125.3,305.2,126.4,307z"/>
		<path id="椭圆_2_拷贝_11" d="M126.4,360.3c1.1,1.8,5,1.6,8.7-0.5s5.9-5.3,4.8-7.1s-5-1.6-8.7,0.5S125.3,358.5,126.4,360.3z"/>
		<path id="椭圆_2_拷贝_12" d="M126.4,414.7c1.1,1.8,5,1.6,8.7-0.5s5.9-5.3,4.8-7.1s-5-1.6-8.7,0.5S125.3,412.9,126.4,414.7z"/>
		<path id="椭圆_2_拷贝_13" d="M126.4,468c1.1,1.8,5,1.6,8.7-0.5s5.9-5.3,4.8-7.1s-5-1.6-8.7,0.5S125.3,466.1,126.4,468z"/>
		<path id="椭圆_2_拷贝_14" d="M126.4,521.2c1.1,1.8,5,1.6,8.7-0.5c3.7-2.1,5.9-5.3,4.8-7.1c-1.1-1.8-5-1.6-8.7,0.5
			C127.5,516.2,125.3,519.3,126.4,521.2z"/>
		<path id="椭圆_2_拷贝_15" d="M126.4,575.5c1.1,1.8,5,1.6,8.7-0.5s5.9-5.3,4.8-7.1s-5-1.6-8.7,0.5S125.3,573.8,126.4,575.5z"/>
		<path id="椭圆_2_拷贝_16" d="M126.4,628.9c1.1,1.8,5,1.6,8.7-0.5s5.9-5.3,4.8-7.1s-5-1.6-8.7,0.5S125.3,627,126.4,628.9z"/>
		<path id="椭圆_2_拷贝_17" d="M126.4,682.2c1.1,1.8,5,1.6,8.7-0.5s5.9-5.3,4.8-7.1s-5-1.6-8.7,0.5S125.3,680.3,126.4,682.2z"/>
		<path id="椭圆_2_拷贝_18" d="M126.4,736.5c1.1,1.8,5,1.6,8.7-0.5s5.9-5.3,4.8-7.1s-5-1.6-8.7,0.5S125.3,734.7,126.4,736.5z"/>
		<path id="椭圆_2_拷贝_19" d="M126.4,789.8c1.1,1.8,5,1.6,8.7-0.5s5.9-5.3,4.8-7.1s-5-1.6-8.7,0.5S125.3,788,126.4,789.8z"/>
	</g>
</g>
</svg>
