<?xml version="1.0" encoding="UTF-8" standalone="no"?>
<!DOCTYPE svg PUBLIC "-//W3C//DTD SVG 1.1//EN" "http://www.w3.org/Graphics/SVG/1.1/DTD/svg11.dtd">
<svg width="100%" height="100%" viewBox="0 0 1249 455" version="1.1" xmlns="http://www.w3.org/2000/svg" xmlns:xlink="http://www.w3.org/1999/xlink" xml:space="preserve" xmlns:serif="http://www.serif.com/" style="fill-rule:evenodd;clip-rule:evenodd;stroke-linejoin:round;stroke-miterlimit:2;">
    <g id="画板1" transform="matrix(1,0,0,1,389.142,-198.557)">
        <g transform="matrix(-1,-1.22465e-16,1.22465e-16,-1,436.752,853.274)">
            <rect x="-389.142" y="198.557" width="1248.23" height="454.208" style="fill:none;"/>
        </g>
        <g id="wei" transform="matrix(-1,-1.22465e-16,1.22465e-16,-1,435.894,852.718)">
            <g id="圆角矩形_3" transform="matrix(6.12323e-17,-1,1,6.12323e-17,-245.46,570.415)">
                <path d="M34,846.5C34,856.2 41.8,869 51.5,869L242.5,869C252.2,869 260,856.2 260,846.5L34,846.5Z" style="fill:rgb(1,20,28);fill-rule:nonzero;"/>
            </g>
            <g id="圆角矩形_3_拷贝_2" transform="matrix(6.12323e-17,-1,1,6.12323e-17,-245.46,570.415)">
                <path d="M45,847C45,837.5 52.2,825 61,825L236,825C244.9,825 252,837.5 252,847L45,847Z" style="fill:rgb(4,29,40);fill-rule:nonzero;"/>
            </g>
            <g id="圆角矩形_4" transform="matrix(6.12323e-17,-1,1,6.12323e-17,-245.46,570.415)">
                <path d="M231,868C231,868.6 230.6,869 230,869L220,869C219.4,869 219,868.6 219,868C219,867.4 219.4,867 220,867L230,867C230.6,867 231,867.4 231,868Z" style="fill:rgb(248,7,30);fill-rule:nonzero;"/>
            </g>
            <g id="圆角矩形_4_拷贝" transform="matrix(6.12323e-17,-1,1,6.12323e-17,-245.46,570.415)">
                <path d="M76,868C76,868.6 75.6,869 75,869L65,869C64.4,869 64,868.6 64,868C64,867.4 64.4,867 65,867L75,867C75.6,867 76,867.4 76,868Z" style="fill:rgb(248,7,30);fill-rule:nonzero;"/>
            </g>
        </g>
        <g id="chelun" transform="matrix(-1,-1.22465e-16,1.22465e-16,-1,435.894,852.718)">
            <g id="圆角矩形_5" transform="matrix(6.12323e-17,-1,1,6.12323e-17,-245.46,570.415)">
                <path d="M268,264L268,322C268,324.2 266.2,326 264,326L31,326C28.8,326 27,324.2 27,322L27,264C27,261.8 28.8,260 31,260L264,260C266.2,260 268,261.8 268,264Z" style="fill-rule:nonzero;"/>
            </g>
            <g id="圆角矩形_5_拷贝" transform="matrix(6.12323e-17,-1,1,6.12323e-17,-245.46,570.415)">
                <path d="M268,339L268,397C268,399.2 266.2,401 264,401L31,401C28.8,401 27,399.2 27,397L27,339C27,336.8 28.8,335 31,335L264,335C266.2,335 268,336.8 268,339Z" style="fill-rule:nonzero;"/>
            </g>
            <g id="圆角矩形_5_拷贝_2" transform="matrix(6.12323e-17,-1,1,6.12323e-17,-245.46,570.415)">
                <path d="M268,623L268,681C268,683.2 266.2,685 264,685L31,685C28.8,685 27,683.2 27,681L27,623C27,620.8 28.8,619 31,619L264,619C266.2,619 268,620.8 268,623Z" style="fill-rule:nonzero;"/>
            </g>
            <g id="圆角矩形_5_拷贝_3" transform="matrix(6.12323e-17,-1,1,6.12323e-17,-245.46,570.415)">
                <path d="M268,697L268,755C268,757.2 266.2,759 264,759L31,759C28.8,759 27,757.2 27,755L27,697C27,694.8 28.8,693 31,693L264,693C266.2,693 268,694.8 268,697Z" style="fill-rule:nonzero;"/>
            </g>
        </g>
        <g id="GG" transform="matrix(-1,-1.22465e-16,1.22465e-16,-1,435.894,852.718)">
            <g id="chelianjie" transform="matrix(6.12323e-17,-1,1,6.12323e-17,-245.46,570.415)">
                <path id="矩形_2" d="M230,227C230,232 226,236 221,236L78,236C73,236 69,232 69,227C69,222 73,218 78,218L221,218C226,218 230,222 230,227ZM221,203L221,220L77,220L77,203L221,203Z" style="fill:rgb(0,0,22);fill-rule:nonzero;"/>
                <path id="矩形_4" d="M218,205L218,234L205,234L205,205L218,205ZM225,220L225,234L209,234L209,220L225,220Z" style="fill:rgb(0,0,83);fill-rule:nonzero;"/>
                <path id="矩形_4_拷贝" d="M94,205L94,234L81,234L81,205L94,205ZM90,220L90,234L74,234L74,220L90,220Z" style="fill:rgb(0,0,83);fill-rule:nonzero;"/>
                <rect id="矩形_5" x="100" y="210" width="100" height="19" style="fill:rgb(0,1,142);"/>
                <path id="圆角矩形_6_拷贝_5" d="M187,215L187,225C187,225.6 186.6,226 186,226C185.4,226 185,225.6 185,225L185,215C185,214.4 185.4,214 186,214C186.6,214 187,214.4 187,215ZM182,215L182,225C182,225.6 181.6,226 181,226C180.4,226 180,225.6 180,225L180,215C180,214.4 180.4,214 181,214C181.6,214 182,214.4 182,215ZM161,215L161,225C161,225.6 160.6,226 160,226C159.4,226 159,225.6 159,225L159,215C159,214.4 159.4,214 160,214C160.6,214 161,214.4 161,215ZM140,215L140,225C140,225.6 139.6,226 139,226C138.4,226 138,225.6 138,225L138,215C138,214.4 138.4,214 139,214C139.6,214 140,214.4 140,215ZM119,215L119,225C119,225.6 118.6,226 118,226C117.4,226 117,225.6 117,225L117,215C117,214.4 117.4,214 118,214C118.6,214 119,214.4 119,215ZM114,215L114,225C114,225.6 113.6,226 113,226C112.4,226 112,225.6 112,225L112,215C112,214.4 112.4,214 113,214C113.6,214 114,214.4 114,215Z" style="fill:rgb(0,0,54);fill-rule:nonzero;"/>
            </g>
            <g id="圆角矩形_1" transform="matrix(6.12323e-17,-1,1,6.12323e-17,-245.46,570.415)">
                <path d="M252,245.7L252,795.5C252,852.7 205.7,899 148.5,899C91.3,899 45,852.7 45,795.5L45,245.7C45,238.7 50.7,233 57.7,233L239.3,233C246.3,233 252,238.7 252,245.7Z" style="fill:rgb(0,106,242);fill-rule:nonzero;"/>
            </g>
            <g id="圆角矩形_6" transform="matrix(6.12323e-17,-1,1,6.12323e-17,-245.46,570.415)">
                <path d="M253,48L253,194C253,200.6 247.6,206 241,206L54,206C47.4,206 42,200.6 42,194L42,48C42,29.2 57.2,14 76,14L219,14C237.8,14 253,29.2 253,48Z" style="fill:rgb(0,106,242);fill-rule:nonzero;"/>
            </g>
            <g id="圆角矩形_6_拷贝" transform="matrix(6.12323e-17,-1,1,6.12323e-17,-245.46,570.415)">
                <path d="M223.5,76.9L223.5,169.2C223.5,175.8 218.1,181.2 211.5,181.2L83.6,181.2C77,181.2 71.6,175.8 71.6,169.2L71.6,76.9C71.6,58.1 86.8,42.9 105.6,42.9L189.5,42.9C208.2,42.9 223.5,58.1 223.5,76.9Z" style="fill:rgb(0,69,213);fill-rule:nonzero;"/>
            </g>
            <g id="组_2" transform="matrix(6.12323e-17,-1,1,6.12323e-17,-245.46,570.415)">
                <rect id="矩形_1" x="45" y="346" width="207" height="4" style="fill:rgb(0,80,220);"/>
                <rect id="矩形_1_拷贝" x="45" y="350" width="207" height="4" style="fill:rgb(0,111,247);"/>
                <rect id="矩形_1_拷贝_2" x="45" y="475" width="207" height="4" style="fill:rgb(0,80,220);"/>
                <rect id="矩形_1_拷贝_3" x="45" y="479" width="207" height="4" style="fill:rgb(0,111,247);"/>
                <rect id="矩形_1_拷贝_4" x="45" y="604" width="207" height="4" style="fill:rgb(0,80,220);"/>
                <rect id="矩形_1_拷贝_4-2" x="45" y="608" width="207" height="4" style="fill:rgb(0,111,247);"/>
                <rect id="矩形_1_拷贝_5" x="45" y="733" width="207" height="4" style="fill:rgb(0,80,220);"/>
                <rect id="矩形_1_拷贝_5-2" x="45" y="737" width="207" height="4" style="fill:rgb(0,111,247);"/>
            </g>
            <g id="圆角矩形_2" transform="matrix(6.12323e-17,-1,1,6.12323e-17,-245.46,570.415)">
                <path d="M227,294.5L227,800.5C227,805.7 222.7,810 217.5,810C212.3,810 208,805.7 208,800.5L208,294.5C208,289.3 212.3,285 217.5,285C222.7,285 227,289.3 227,294.5Z" style="fill:rgb(0,80,220);fill-rule:nonzero;"/>
            </g>
            <g id="圆角矩形_10" transform="matrix(6.12323e-17,-1,1,6.12323e-17,-245.46,570.415)">
                <path d="M279,47.5C279,50.5 276.5,53 273.5,53L257.5,53C254.5,53 252,50.5 252,47.5C252,44.5 254.5,42 257.5,42L273.5,42C276.5,42 279,44.5 279,47.5Z" style="fill:rgb(0,47,181);fill-rule:nonzero;"/>
            </g>
            <g id="圆角矩形_9" transform="matrix(6.12323e-17,-1,1,6.12323e-17,-245.46,570.415)">
                <path d="M264,42.5C264,43.9 262.9,45 261.5,45L245.5,45C244.1,45 243,43.9 243,42.5C243,41.1 244.1,40 245.5,40L261.5,40C262.9,40 264,41.1 264,42.5Z" style="fill:rgb(0,69,213);fill-rule:nonzero;"/>
            </g>
            <g id="圆角矩形_10_拷贝" transform="matrix(6.12323e-17,-1,1,6.12323e-17,-245.46,570.415)">
                <path d="M42,47.5C42,50.5 39.5,53 36.5,53L20.5,53C17.5,53 15,50.5 15,47.5C15,44.5 17.5,42 20.5,42L36.5,42C39.5,42 42,44.5 42,47.5Z" style="fill:rgb(0,47,181);fill-rule:nonzero;"/>
            </g>
            <g id="圆角矩形_9_拷贝" transform="matrix(6.12323e-17,-1,1,6.12323e-17,-245.46,570.415)">
                <path d="M51,42.5C51,43.9 49.9,45 48.5,45L32.5,45C31.1,45 30,43.9 30,42.5C30,41.1 31.1,40 32.5,40L48.5,40C49.9,40 51,41.1 51,42.5Z" style="fill:rgb(0,69,213);fill-rule:nonzero;"/>
            </g>
        </g>
        <g id="bai" transform="matrix(-1.83697e-16,1,-1,-1.83697e-16,681.354,282.303)">
            <path d="M87,358.5L87,390.5C87,395.7 82.7,400 77.5,400C72.3,400 68,395.7 68,390.5L68,358.5C68,353.3 72.3,349 77.5,349C82.7,349 87,353.3 87,358.5ZM87,432.5L87,546.5C87,551.7 82.7,556 77.5,556C72.3,556 68,551.7 68,546.5L68,432.5C68,427.3 72.3,423 77.5,423C82.7,423 87,427.3 87,432.5ZM87,683.5L87,797.5C87,802.7 82.7,807 77.5,807C72.3,807 68,802.7 68,797.5L68,683.5C68,678.3 72.3,674 77.5,674C82.7,674 87,678.3 87,683.5Z" style="fill:white;fill-rule:nonzero;"/>
        </g>
        <g id="gai" transform="matrix(-1,-1.22465e-16,1.22465e-16,-1,435.894,852.718)">
            <g id="椭圆_1_拷贝" transform="matrix(6.12323e-17,-1,1,6.12323e-17,-245.46,570.415)">
                <path d="M186,412C186,432.4 169.4,449 149,449C128.6,449 112,432.4 112,412C112,391.6 128.6,375 149,375C169.4,375 186,391.6 186,412ZM186,673C186,693.4 169.4,710 149,710C128.6,710 112,693.4 112,673C112,652.6 128.6,636 149,636C169.4,636 186,652.6 186,673Z" style="fill:rgb(28,41,49);fill-rule:nonzero;"/>
            </g>
            <g id="椭圆_1_拷贝_3" transform="matrix(6.12323e-17,-1,1,6.12323e-17,-245.46,570.415)">
                <path d="M177.9,673C177.9,688.9 165,701.9 149,701.9C133.1,701.9 120.1,689 120.1,673C120.1,657.1 133,644.1 149,644.1C164.9,644.1 177.9,657.1 177.9,673ZM178.9,412C178.9,427.9 166,440.9 150,440.9C134,440.9 121.1,428 121.1,412C121.1,396 134,383.1 150,383.1C165.9,383.1 178.9,396.1 178.9,412Z" style="fill:rgb(9,18,24);fill-rule:nonzero;"/>
            </g>
            <g id="椭圆_1_拷贝_5" transform="matrix(6.12323e-17,-1,1,6.12323e-17,-245.46,570.415)">
                <path d="M174.3,412C174.3,425.4 163.4,436.3 150,436.3C136.6,436.3 125.7,425.4 125.7,412C125.7,398.6 136.6,387.7 150,387.7C163.4,387.8 174.3,398.6 174.3,412ZM173.3,673C173.3,686.4 162.4,697.3 149,697.3C135.6,697.3 124.7,686.4 124.7,673C124.7,659.6 135.6,648.7 149,648.7C162.4,648.7 173.3,659.6 173.3,673Z" style="fill:rgb(101,121,134);fill-rule:nonzero;"/>
            </g>
            <g id="圆角矩形_3_拷贝" transform="matrix(6.12323e-17,-1,1,6.12323e-17,-245.46,570.415)">
                <path d="M154,436.5L154,449.5C154,452 152,454 149.5,454C147,454 145,452 145,449.5L145,436.5C145,434 147,432 149.5,432C152,432 154,434 154,436.5ZM154,697.5L154,710.5C154,713 152,715 149.5,715C147,715 145,713 145,710.5L145,697.5C145,695 147,693 149.5,693C152,693 154,695 154,697.5Z" style="fill:rgb(170,189,200);fill-rule:nonzero;"/>
            </g>
        </g>
        <g id="组_3" transform="matrix(-1,-1.22465e-16,1.22465e-16,-1,435.894,852.718)">
            <g id="圆角矩形_7" transform="matrix(6.12323e-17,-1,1,6.12323e-17,-245.46,570.415)">
                <path d="M253,62.5L253,133.5C253,136.5 251.4,139 249.5,139C247.6,139 246,136.5 246,133.5L246,62.5C246,59.5 247.6,57 249.5,57C251.4,57 253,59.5 253,62.5Z" style="fill:rgb(8,20,26);fill-rule:nonzero;"/>
            </g>
            <g id="椭圆_1" transform="matrix(6.12323e-17,-1,1,6.12323e-17,-245.46,570.415)">
                <path d="M253,163C248.3,163 246,159.8 246,157C246,154.2 248.4,151 253,151L253,163Z" style="fill:rgb(8,20,26);fill-rule:nonzero;"/>
            </g>
            <g id="圆角矩形_7_拷贝" transform="matrix(6.12323e-17,-1,1,6.12323e-17,-245.46,570.415)">
                <path d="M253,185C258.1,185 257,182.5 257,179.5L257,128.5C257,125.5 258.1,123 253,123L253,185Z" style="fill:rgb(3,32,47);fill-rule:nonzero;"/>
            </g>
        </g>
        <g id="组_3_拷贝" transform="matrix(-1,-1.22465e-16,1.22465e-16,-1,435.894,852.718)">
            <g id="圆角矩形_7-2" transform="matrix(6.12323e-17,-1,1,6.12323e-17,-245.46,570.415)">
                <path d="M48,62.5L48,133.5C48,136.5 46.4,139 44.5,139C42.6,139 41,136.5 41,133.5L41,62.5C41,59.5 42.6,57 44.5,57C46.4,57 48,59.5 48,62.5Z" style="fill:rgb(8,20,26);fill-rule:nonzero;"/>
            </g>
            <g id="椭圆_1-2" transform="matrix(6.12323e-17,-1,1,6.12323e-17,-245.46,570.415)">
                <path d="M41.1,163C45.7,163 48,159.8 48,157C48,154.2 45.6,151 41.1,151L41.1,163Z" style="fill:rgb(8,20,26);fill-rule:nonzero;"/>
            </g>
            <g id="圆角矩形_7_拷贝-2" transform="matrix(6.12323e-17,-1,1,6.12323e-17,-245.46,570.415)">
                <path d="M41.1,185C36.1,185 37.1,182.5 37.1,179.5L37.1,128.5C37.1,125.5 36.1,123 41.1,123L41.1,185Z" style="fill:rgb(3,32,47);fill-rule:nonzero;"/>
            </g>
        </g>
        <g id="椭圆_2" transform="matrix(-1.83697e-16,1,-1,-1.83697e-16,681.354,282.303)">
            <ellipse cx="147.5" cy="15" rx="78.5" ry="6" style="fill:rgb(8,20,26);"/>
        </g>
        <g id="圆角矩形_8" transform="matrix(-1.83697e-16,1,-1,-1.83697e-16,681.354,282.303)">
            <path d="M200,11.5C200,14 198,16 195.5,16L98.5,16C96,16 94,14 94,11.5C94,9 96,7 98.5,7L195.5,7C198,7 200,9 200,11.5Z" style="fill:rgb(8,20,26);fill-rule:nonzero;"/>
        </g>
        <g id="deng" transform="matrix(-1.83697e-16,1,-1,-1.83697e-16,681.354,282.303)">
            <path d="M247,194.5C247,197 245,199 242.5,199C240,199 238,197 238,194.5C238,192 240,190 242.5,190C245,190 247,192 247,194.5ZM57,194.5C57,197 55,199 52.5,199C50,199 48,197 48,194.5C48,192 50,190 52.5,190C55,190 57,192 57,194.5Z" style="fill:rgb(255,84,88);fill-rule:nonzero;"/>
        </g>
    </g>
</svg>
