<?xml version="1.0" encoding="UTF-8" standalone="no"?>
<!DOCTYPE svg PUBLIC "-//W3C//DTD SVG 1.1//EN" "http://www.w3.org/Graphics/SVG/1.1/DTD/svg11.dtd">
<svg width="100%" height="100%" viewBox="0 0 354 136" version="1.1" xmlns="http://www.w3.org/2000/svg" xmlns:xlink="http://www.w3.org/1999/xlink" xml:space="preserve" xmlns:serif="http://www.serif.com/" style="fill-rule:evenodd;clip-rule:evenodd;">
    <g id="画板1" transform="matrix(0.886814,0,0,1,101.466,-61.4268)">
        <g transform="matrix(-1,-1.08603e-16,1.38095e-16,-1,167.781,257.653)">
            <rect x="-114.416" y="61.427" width="399.02" height="135.93" style="fill:none;"/>
        </g>
        <g id="diandlun" transform="matrix(-1.12763,-1.22464e-16,1.38095e-16,-1,152.519,257.226)">
            <g id="圆角矩形_5" transform="matrix(6.12323e-17,-1,1,6.12323e-17,-88.4466,179.116)">
                <path d="M87.9,87.8C87.9,92.4 84.2,96.1 79.6,96.1L20.6,96.1C16,96.1 12.3,92.4 12.3,87.8C12.3,83.2 16,79.5 20.6,79.5L79.6,79.5C84.2,79.4 87.9,83.2 87.9,87.8Z" style="fill-rule:nonzero;"/>
            </g>
            <g id="圆角矩形_6_拷贝_3" transform="matrix(6.12323e-17,-1,1,6.12323e-17,-88.4466,179.116)">
                <path d="M99.9,111.4L99.9,138.1C99.9,138.8 99.3,139.4 98.6,139.4L84.9,139.4C84.2,139.4 83.6,138.8 83.6,138.1L83.6,111.4C83.6,110.7 84.2,110.1 84.9,110.1L98.6,110.1C99.3,110.1 99.9,110.7 99.9,111.4ZM99.9,145.1L99.9,171.8C99.9,172.5 99.3,173.1 98.6,173.1L84.9,173.1C84.2,173.1 83.6,172.5 83.6,171.8L83.6,145.1C83.6,144.4 84.2,143.8 84.9,143.8L98.6,143.8C99.3,143.8 99.9,144.4 99.9,145.1ZM99.9,215.4L99.9,242.1C99.9,242.8 99.3,243.4 98.6,243.4L84.9,243.4C84.2,243.4 83.6,242.8 83.6,242.1L83.6,215.4C83.6,214.7 84.2,214.1 84.9,214.1L98.6,214.1C99.3,214.1 99.9,214.7 99.9,215.4ZM99.9,249.1L99.9,275.8C99.9,276.5 99.3,277.1 98.6,277.1L84.9,277.1C84.2,277.1 83.6,276.5 83.6,275.8L83.6,249.1C83.6,248.4 84.2,247.8 84.9,247.8L98.6,247.8C99.3,247.8 99.9,248.4 99.9,249.1ZM16.2,111.4L16.2,138.1C16.2,138.8 15.6,139.4 14.9,139.4L1.2,139.4C0.5,139.4 -0.1,138.8 -0.1,138.1L-0.1,111.4C-0.1,110.7 0.5,110.1 1.2,110.1L14.9,110.1C15.6,110.1 16.2,110.7 16.2,111.4ZM16.2,145.1L16.2,171.8C16.2,172.5 15.6,173.1 14.9,173.1L1.2,173.1C0.5,173.1 -0.1,172.5 -0.1,171.8L-0.1,145.1C-0.1,144.4 0.5,143.8 1.2,143.8L14.9,143.8C15.6,143.8 16.2,144.4 16.2,145.1ZM16.2,215.4L16.2,242.1C16.2,242.8 15.6,243.4 14.9,243.4L1.2,243.4C0.5,243.4 -0.1,242.8 -0.1,242.1L-0.1,215.4C-0.1,214.7 0.5,214.1 1.2,214.1L14.9,214.1C15.6,214.1 16.2,214.7 16.2,215.4ZM16.2,249.1L16.2,275.8C16.2,276.5 15.6,277.1 14.9,277.1L1.2,277.1C0.5,277.1 -0.1,276.5 -0.1,275.8L-0.1,249.1C-0.1,248.4 0.5,247.8 1.2,247.8L14.9,247.8C15.6,247.8 16.2,248.4 16.2,249.1Z" style="fill-rule:nonzero;"/>
            </g>
            <g id="圆角矩形_6_拷贝_4" transform="matrix(6.12323e-17,-1,1,6.12323e-17,-88.4466,179.116)">
                <path d="M87.9,48.8L87.9,75.5C87.9,76.2 87.3,76.8 86.6,76.8L72.9,76.8C72.2,76.8 71.6,76.2 71.6,75.5L71.6,48.8C71.6,48.1 72.2,47.5 72.9,47.5L86.6,47.5C87.3,47.4 87.9,48 87.9,48.8ZM29.1,48.8L29.1,75.5C29.1,76.2 28.5,76.8 27.8,76.8L14.1,76.8C13.4,76.8 12.8,76.2 12.8,75.5L12.8,48.8C12.8,48.1 13.4,47.5 14.1,47.5L27.8,47.5C28.5,47.4 29.1,48 29.1,48.8Z" style="fill-rule:nonzero;"/>
            </g>
        </g>
        <g id="组_5" transform="matrix(-1.12763,-1.22464e-16,1.38095e-16,-1,152.519,257.226)">
            <g id="圆角矩形_1" transform="matrix(6.12323e-17,-1,1,6.12323e-17,-88.4466,179.116)">
                <path d="M97.2,94.4L97.2,292.1C97.2,295 94.8,297.4 91.9,297.4L8.9,297.4C6,297.4 3.6,295 3.6,292.1L3.6,94.4C3.6,91.5 6,89.1 8.9,89.1L91.9,89.1C94.8,89.1 97.2,91.5 97.2,94.4Z" style="fill:rgb(34,114,237);fill-rule:nonzero;stroke:rgb(0,56,181);stroke-width:0.67px;"/>
            </g>
            <g id="圆角矩形_1_拷贝" transform="matrix(6.12323e-17,-1,1,6.12323e-17,-88.4466,179.116)">
                <path d="M93.2,96.8L93.2,289.8C93.2,291.6 91.7,293.1 89.9,293.1L11.2,293.1C9.4,293.1 7.9,291.6 7.9,289.8L7.9,96.8C7.9,95 9.4,93.5 11.2,93.5L89.9,93.5C91.7,93.4 93.2,94.9 93.2,96.8Z" style="fill:rgb(0,28,153);fill-opacity:0.4;fill-rule:nonzero;"/>
            </g>
            <g id="圆角矩形_2" transform="matrix(6.12323e-17,-1,1,6.12323e-17,-88.4466,179.116)">
                <path d="M91.2,96.8L91.2,289.8C91.2,290.5 90.6,291.1 89.9,291.1L84.2,291.1C83.5,291.1 82.9,290.5 82.9,289.8L82.9,96.8C82.9,96.1 83.5,95.5 84.2,95.5L89.9,95.5C90.6,95.4 91.2,96 91.2,96.8Z" style="fill:url(#_Linear1);fill-rule:nonzero;"/>
            </g>
            <g id="圆角矩形_2_拷贝_2" transform="matrix(6.12323e-17,-1,1,6.12323e-17,-88.4466,179.116)">
                <path d="M81.9,96.8L81.9,289.8C81.9,290.5 81.3,291.1 80.6,291.1L74.9,291.1C74.2,291.1 73.6,290.5 73.6,289.8L73.6,96.8C73.6,96.1 74.2,95.5 74.9,95.5L80.6,95.5C81.3,95.4 81.9,96 81.9,96.8Z" style="fill:url(#_Linear2);fill-rule:nonzero;"/>
            </g>
            <g id="圆角矩形_2_拷贝_3" transform="matrix(6.12323e-17,-1,1,6.12323e-17,-88.4466,179.116)">
                <path d="M72.9,96.8L72.9,289.8C72.9,290.5 72.3,291.1 71.6,291.1L65.9,291.1C65.2,291.1 64.6,290.5 64.6,289.8L64.6,96.8C64.6,96.1 65.2,95.5 65.9,95.5L71.6,95.5C72.3,95.4 72.9,96 72.9,96.8Z" style="fill:url(#_Linear3);fill-rule:nonzero;"/>
            </g>
            <g id="圆角矩形_2_拷贝_4" transform="matrix(6.12323e-17,-1,1,6.12323e-17,-88.4466,179.116)">
                <path d="M63.6,96.8L63.6,289.8C63.6,290.5 63,291.1 62.3,291.1L56.6,291.1C55.9,291.1 55.3,290.5 55.3,289.8L55.3,96.8C55.3,96.1 55.9,95.5 56.6,95.5L62.3,95.5C63,95.4 63.6,96 63.6,96.8Z" style="fill:url(#_Linear4);fill-rule:nonzero;"/>
            </g>
            <g id="圆角矩形_2_拷贝_5" transform="matrix(6.12323e-17,-1,1,6.12323e-17,-88.4466,179.116)">
                <path d="M54.6,96.8L54.6,289.8C54.6,290.5 54,291.1 53.3,291.1L47.6,291.1C46.9,291.1 46.3,290.5 46.3,289.8L46.3,96.8C46.3,96.1 46.9,95.5 47.6,95.5L53.3,95.5C54,95.4 54.6,96 54.6,96.8Z" style="fill:url(#_Linear5);fill-rule:nonzero;"/>
            </g>
            <g id="圆角矩形_2_拷贝_6" transform="matrix(6.12323e-17,-1,1,6.12323e-17,-88.4466,179.116)">
                <path d="M45.2,96.8L45.2,289.8C45.2,290.5 44.6,291.1 43.9,291.1L38.2,291.1C37.5,291.1 36.9,290.5 36.9,289.8L36.9,96.8C36.9,96.1 37.5,95.5 38.2,95.5L43.9,95.5C44.6,95.4 45.2,96 45.2,96.8Z" style="fill:url(#_Linear6);fill-rule:nonzero;"/>
            </g>
            <g id="圆角矩形_2_拷贝_7" transform="matrix(6.12323e-17,-1,1,6.12323e-17,-88.4466,179.116)">
                <path d="M36.2,96.8L36.2,289.8C36.2,290.5 35.6,291.1 34.9,291.1L29.2,291.1C28.5,291.1 27.9,290.5 27.9,289.8L27.9,96.8C27.9,96.1 28.5,95.5 29.2,95.5L34.9,95.5C35.6,95.4 36.2,96 36.2,96.8Z" style="fill:url(#_Linear7);fill-rule:nonzero;"/>
            </g>
            <g id="圆角矩形_2_拷贝_8" transform="matrix(6.12323e-17,-1,1,6.12323e-17,-88.4466,179.116)">
                <path d="M26.9,96.8L26.9,289.8C26.9,290.5 26.3,291.1 25.6,291.1L19.9,291.1C19.2,291.1 18.6,290.5 18.6,289.8L18.6,96.8C18.6,96.1 19.2,95.5 19.9,95.5L25.6,95.5C26.3,95.4 26.9,96 26.9,96.8Z" style="fill:url(#_Linear8);fill-rule:nonzero;"/>
            </g>
            <g id="圆角矩形_2_拷贝_9" transform="matrix(6.12323e-17,-1,1,6.12323e-17,-88.4466,179.116)">
                <path d="M17.9,96.8L17.9,289.8C17.9,290.5 17.3,291.1 16.6,291.1L10.9,291.1C10.2,291.1 9.6,290.5 9.6,289.8L9.6,96.8C9.6,96.1 10.2,95.5 10.9,95.5L16.6,95.5C17.3,95.4 17.9,96 17.9,96.8Z" style="fill:url(#_Linear9);fill-rule:nonzero;"/>
            </g>
        </g>
        <g id="jiodeng" transform="matrix(-1.12763,-1.22464e-16,1.38095e-16,-1,152.519,257.226)">
            <g id="形状_1" transform="matrix(6.12323e-17,-1,1,6.12323e-17,-88.4466,179.116)">
                <path d="M83.2,59.4L89.9,67.1L90.2,74.4L82.9,75.7L83.2,59.4Z" style="fill:rgb(124,124,124);fill-rule:nonzero;"/>
            </g>
            <g id="圆角矩形_6" transform="matrix(6.12323e-17,-1,1,6.12323e-17,-88.4466,179.116)">
                <path d="M90.2,67.1L90.2,74.1C90.2,74.8 89.6,75.4 88.9,75.4C88.2,75.4 87.6,74.8 87.6,74.1L87.6,67.1C87.6,66.4 88.2,65.8 88.9,65.8C89.6,65.8 90.2,66.4 90.2,67.1Z" style="fill:rgb(169,170,170);fill-rule:nonzero;"/>
            </g>
            <g id="形状_1_拷贝" transform="matrix(6.12323e-17,-1,1,6.12323e-17,-88.4466,179.116)">
                <path d="M16.6,59.4L9.9,67.1L9.6,74.4L16.9,75.7L16.6,59.4Z" style="fill:rgb(124,124,124);fill-rule:nonzero;"/>
            </g>
            <g id="圆角矩形_6_拷贝" transform="matrix(6.12323e-17,-1,1,6.12323e-17,-88.4466,179.116)">
                <path d="M9.6,67.1L9.6,74.1C9.6,74.8 10.2,75.4 10.9,75.4C11.6,75.4 12.2,74.8 12.2,74.1L12.2,67.1C12.2,66.4 11.6,65.8 10.9,65.8C10.2,65.8 9.6,66.4 9.6,67.1Z" style="fill:rgb(169,170,170);fill-rule:nonzero;"/>
            </g>
        </g>
        <g id="形状_2" transform="matrix(-2.07143e-16,1,-1.12763,-1.83697e-16,252.255,78.1095)">
            <path d="M11.9,38.8C11.9,38.8 11.1,42.7 11.6,43.5C12.1,44.1 12.8,44.4 13.6,44.5C13.6,44.5 14.4,44 15.3,45.2C16.2,46.4 15.6,46.9 15.6,46.9L15.9,49.1L16.2,51.4L16.5,54.1C16.5,54.1 16.1,56 16.8,56.8C17.5,57.6 83.4,58.1 84.1,57.5C84.8,56.9 84.8,54.5 84.8,54.5L84.8,49.5C84.8,48 84.9,46.6 85.1,45.2C85.3,44.8 85.7,44.4 86.1,44.2C86.8,44.1 87.5,43.8 88.1,43.5C88.5,42.6 88.8,41.7 89.1,40.8C89.1,40.8 89.5,21.8 89.1,20.5C87.7,17.4 86,14.4 84.1,11.5C82,9.4 79.6,7.5 77.1,5.8C76.1,5.3 71.9,4.3 70.4,4.5C68.9,4.7 67.7,6.5 67.7,6.5C67.7,6.5 65.3,8 64,7.5C62.7,7 63.8,3.7 63,3.2C62.2,2.7 38.6,2.2 37.6,2.8C36.6,3.4 36.8,6.7 35.9,7.1C35,7.5 33.9,6.1 33.9,6.1C32,5.6 30.1,5.3 28.2,5.1C26.3,5 22.6,6.6 21.2,7.4C19.8,8.2 18.8,9.5 17.2,11.1C15.6,12.7 15.6,13.9 14.9,14.8C14.2,15.7 11.8,17.4 11.6,19.1C11.4,20.8 11.9,38.8 11.9,38.8Z" style="fill:rgb(0,58,183);fill-rule:nonzero;"/>
        </g>
        <g id="形状_2_拷贝" transform="matrix(-2.07143e-16,1,-1.12763,-1.83697e-16,252.255,78.1095)">
            <path d="M15.7,40.6L17.2,45.7C17.2,45.7 17.9,45.3 18.7,46.3C19.5,47.3 19,47.8 19,47.8L19.6,52L19.9,54.4C19.9,54.4 19.6,56.1 20.2,56.8C20.8,57.5 81.1,58 81.8,57.4C82.5,56.8 82.4,54.7 82.4,54.7L82.4,50.2C82.4,48.9 82.5,47.6 82.7,46.3C82.9,45.9 83.2,45.6 83.6,45.4L86.4,42.4C86.4,42.4 86.8,25.2 86.4,24C85.1,21.2 83.6,18.4 81.8,15.9C79.9,14 77.7,12.2 75.4,10.8C71.6,8.8 69.5,9.1 62.6,8.3C61.7,8.2 40.2,7.8 39.1,8C36.1,8.6 31.3,10 30.6,10.1C28.4,10.5 26.2,11.3 24.2,12.2C22.9,12.9 22,14.1 20.5,15.5C19,16.9 19,18 18.4,18.8C17.8,19.6 15.5,21.2 15.4,22.7C15.3,24.2 15.7,40.6 15.7,40.6Z" style="fill:rgb(14,98,223);fill-rule:nonzero;"/>
        </g>
        <g id="组5" transform="matrix(-1.12763,-1.22464e-16,1.38095e-16,-1,152.519,257.226)">
            <g opacity="0.5">
                <g id="椭圆_1" transform="matrix(6.12323e-17,-1,1,6.12323e-17,-88.4466,179.116)">
                    <path d="M58.2,32.3C58.2,33.3 57.9,33.8 57.6,33.8C57.3,33.8 57,33.3 57,32.3C57,31.3 57.2,11.8 57.5,11.8C57.8,11.8 58.2,31.3 58.2,32.3Z" style="fill:url(#_Linear10);fill-rule:nonzero;"/>
                </g>
                <g id="椭圆_1_拷贝" transform="matrix(6.12323e-17,-1,1,6.12323e-17,-88.4466,179.116)">
                    <path d="M55.4,32.3C55.4,33.3 55.1,33.8 54.8,33.8C54.5,33.8 54.2,33.3 54.2,32.3C54.2,31.3 54.4,11.8 54.7,11.8C55,11.8 55.4,31.3 55.4,32.3Z" style="fill:url(#_Linear11);fill-rule:nonzero;"/>
                </g>
                <g id="椭圆_1_拷贝_2" transform="matrix(6.12323e-17,-1,1,6.12323e-17,-88.4466,179.116)">
                    <path d="M52.6,32.3C52.6,33.3 52.3,33.8 52,33.8C51.7,33.8 51.4,33.3 51.4,32.3C51.4,31.3 51.6,11.8 51.9,11.8C52.2,11.8 52.6,31.3 52.6,32.3Z" style="fill:url(#_Linear12);fill-rule:nonzero;"/>
                </g>
                <g id="椭圆_1_拷贝_3" transform="matrix(6.12323e-17,-1,1,6.12323e-17,-88.4466,179.116)">
                    <path d="M49.8,32.3C49.8,33.3 49.5,33.8 49.2,33.8C48.9,33.8 48.6,33.3 48.6,32.3C48.6,31.3 48.8,11.8 49.1,11.8C49.4,11.8 49.8,31.3 49.8,32.3Z" style="fill:url(#_Linear13);fill-rule:nonzero;"/>
                </g>
                <g id="椭圆_1_拷贝_4" transform="matrix(6.12323e-17,-1,1,6.12323e-17,-88.4466,179.116)">
                    <path d="M47,32.3C47,33.3 46.7,33.8 46.4,33.8C46.1,33.8 45.8,33.3 45.8,32.3C45.8,31.3 45.9,11.8 46.2,11.8C46.5,11.8 47,31.3 47,32.3Z" style="fill:url(#_Linear14);fill-rule:nonzero;"/>
                </g>
                <g id="椭圆_1_拷贝_11" transform="matrix(6.12323e-17,-1,1,6.12323e-17,-88.4466,179.116)">
                    <path d="M44.2,32.3C44.2,33.3 43.9,33.8 43.6,33.8C43.3,33.8 42.9,33.3 42.9,32.3C42.9,31.3 43.1,11.8 43.4,11.8C43.7,11.8 44.2,31.3 44.2,32.3Z" style="fill:url(#_Linear15);fill-rule:nonzero;"/>
                </g>
                <g id="椭圆_1_拷贝_12" transform="matrix(6.12323e-17,-1,1,6.12323e-17,-88.4466,179.116)">
                    <path d="M74.9,32.3C74.9,33.3 74.6,33.8 74.3,33.8C74,33.8 73.7,33.3 73.7,32.3C73.7,31.9 77.7,29 77.8,25.5C77.9,19.5 74,11.8 74.2,11.8C74.4,11.8 78.7,19.5 78.8,25.5C78.8,29 74.9,31.9 74.9,32.3Z" style="fill:url(#_Linear16);fill-rule:nonzero;"/>
                </g>
                <g id="椭圆_1_拷贝_13" transform="matrix(6.12323e-17,-1,1,6.12323e-17,-88.4466,179.116)">
                    <path d="M27.2,32.3C27.2,33.3 26.9,33.8 26.6,33.8C26.3,33.8 26,33.3 26,32.3C26,32 22,28.4 22.1,25.5C22.2,19.4 26.3,11.8 26.6,11.8C26.9,11.8 23.1,19.5 23.3,25.5C23.2,28.4 27.2,32 27.2,32.3Z" style="fill:url(#_Linear17);fill-rule:nonzero;"/>
                </g>
                <g id="椭圆_1_拷贝_14" transform="matrix(6.12323e-17,-1,1,6.12323e-17,-88.4466,179.116)">
                    <path d="M74.9,28.9C74.9,29.9 74.6,30.4 74.3,30.4C74,30.4 73.7,29.9 73.7,28.9C73.7,28.5 74.4,28.9 74.4,25.4C74.5,19.4 69.3,11.7 69.5,11.7C69.7,11.7 75.3,19.4 75.5,25.4C75.5,29 74.9,28.6 74.9,28.9Z" style="fill:url(#_Linear18);fill-rule:nonzero;"/>
                </g>
                <g id="椭圆_1_拷贝_15" transform="matrix(6.12323e-17,-1,1,6.12323e-17,-88.4466,179.116)">
                    <path d="M27.2,28.9C27.2,29.9 26.9,30.4 26.6,30.4C26.3,30.4 26,29.9 26,28.9C25.5,27.8 25.2,26.6 25.4,25.5C25.5,19.4 31,11.8 31.2,11.8C31.4,11.8 26.4,19.5 26.5,25.5C26.4,26.7 26.6,27.9 27.2,28.9Z" style="fill:url(#_Linear19);fill-rule:nonzero;"/>
                </g>
                <g id="椭圆_1_拷贝_16" transform="matrix(6.12323e-17,-1,1,6.12323e-17,-88.4466,179.116)">
                    <path d="M71.6,28.9C71.6,29.9 71.3,30.4 71,30.4C70.7,30.4 70.4,29.9 70.4,28.9C70.4,28.5 71.1,28.9 71.1,25.4C71.2,19.4 66,11.7 66.2,11.7C66.4,11.7 72,19.4 72.2,25.4C72.2,29 71.6,28.6 71.6,28.9Z" style="fill:url(#_Linear20);fill-rule:nonzero;"/>
                </g>
                <g id="椭圆_1_拷贝_17" transform="matrix(6.12323e-17,-1,1,6.12323e-17,-88.4466,179.116)">
                    <path d="M30.6,28.9C30.6,29.9 30.3,30.4 30,30.4C29.7,30.4 29.4,29.9 29.4,28.9C28.9,27.8 28.6,26.6 28.8,25.5C28.9,19.4 34.4,11.8 34.6,11.8C34.8,11.8 29.8,19.5 29.9,25.5C29.7,26.7 30,27.9 30.6,28.9Z" style="fill:url(#_Linear21);fill-rule:nonzero;"/>
                </g>
                <g id="椭圆_1_拷贝_18" transform="matrix(6.12323e-17,-1,1,6.12323e-17,-88.4466,179.116)">
                    <path d="M68.2,28.9C68.2,29.9 67.9,30.4 67.6,30.4C67.3,30.4 67,29.9 67,28.9C67,28.5 67.7,28.9 67.7,25.4C67.8,19.4 62.6,11.7 62.8,11.7C63,11.7 68.6,19.4 68.8,25.4C68.8,29 68.2,28.6 68.2,28.9Z" style="fill:url(#_Linear22);fill-rule:nonzero;"/>
                </g>
                <g id="椭圆_1_拷贝_18-2" transform="matrix(6.12323e-17,-1,1,6.12323e-17,-88.4466,179.116)">
                    <path d="M33.9,28.9C33.9,29.9 33.6,30.4 33.3,30.4C33,30.4 32.7,29.9 32.7,28.9C32.2,27.8 31.9,26.6 32.1,25.5C32.2,19.4 37.7,11.8 37.9,11.8C38.1,11.8 33.1,19.5 33.2,25.5C33,26.7 33.3,27.9 33.9,28.9Z" style="fill:url(#_Linear23);fill-rule:nonzero;"/>
                </g>
                <g id="圆角矩形_7" transform="matrix(6.12323e-17,-1,1,6.12323e-17,-88.4466,179.116)">
                    <path d="M72.9,32.1C72.9,32.5 72.6,32.8 72.2,32.8L28.5,32.8C28.1,32.8 27.8,32.5 27.8,32.2C27.8,31.8 28.1,31.5 28.4,31.5L72.2,31.5C72.6,31.4 72.9,31.7 72.9,32.1Z" style="fill:url(#_Linear24);fill-rule:nonzero;"/>
                </g>
                <g id="圆角矩形_7_拷贝" transform="matrix(6.12323e-17,-1,1,6.12323e-17,-88.4466,179.116)">
                    <path d="M65.9,29.1C65.9,29.5 65.6,29.8 65.2,29.8L35.9,29.8C35.5,29.8 35.2,29.5 35.3,29.1C35.3,28.8 35.6,28.5 35.9,28.5L65.2,28.5C65.6,28.4 65.9,28.7 65.9,29.1Z" style="fill:url(#_Linear25);fill-rule:nonzero;"/>
                </g>
                <g id="圆角矩形_7_拷贝_2" transform="matrix(6.12323e-17,-1,1,6.12323e-17,-88.4466,179.116)">
                    <path d="M62.6,10.4C62.6,10.8 62.3,11.1 61.9,11.1L39.2,11.1C38.8,11.1 38.5,10.8 38.5,10.4C38.5,10 38.8,9.7 39.2,9.7L61.9,9.7C62.3,9.8 62.6,10.1 62.6,10.4Z" style="fill:url(#_Linear26);fill-rule:nonzero;"/>
                </g>
                <g id="圆角矩形_7_拷贝_3" transform="matrix(6.12323e-17,-1,1,6.12323e-17,-88.4466,179.116)">
                    <path d="M65.6,25.4C65.6,25.8 65.3,26.1 64.9,26.1L60.2,26.1C59.8,26.1 59.5,25.8 59.5,25.4C59.5,25 59.8,24.7 60.2,24.7L64.9,24.7C65.3,24.8 65.6,25.1 65.6,25.4Z" style="fill:url(#_Linear27);fill-rule:nonzero;"/>
                </g>
                <g id="圆角矩形_7_拷贝_4" transform="matrix(6.12323e-17,-1,1,6.12323e-17,-88.4466,179.116)">
                    <path d="M41.2,25.4C41.2,25.8 40.9,26.1 40.5,26.1L35.9,26.1C35.5,26.1 35.2,25.8 35.2,25.4C35.2,25 35.5,24.7 35.9,24.7L40.6,24.7C40.9,24.8 41.2,25.1 41.2,25.4Z" style="fill:url(#_Linear28);fill-rule:nonzero;"/>
                </g>
                <g id="圆角矩形_7_拷贝_5" transform="matrix(6.12323e-17,-1,1,6.12323e-17,-88.4466,179.116)">
                    <path d="M64.2,21.8C64.2,22.2 63.9,22.5 63.5,22.5L60.2,22.5C59.8,22.5 59.5,22.2 59.6,21.8C59.6,21.5 59.9,21.2 60.2,21.2L63.5,21.2C63.9,21.1 64.2,21.4 64.2,21.8Z" style="fill:url(#_Linear29);fill-rule:nonzero;"/>
                </g>
                <g id="圆角矩形_7_拷贝_5-2" transform="matrix(6.12323e-17,-1,1,6.12323e-17,-88.4466,179.116)">
                    <path d="M41.2,21.8C41.2,22.2 40.9,22.5 40.5,22.5L37.2,22.5C36.8,22.5 36.5,22.2 36.6,21.8C36.6,21.5 36.9,21.2 37.2,21.2L40.5,21.2C40.9,21.1 41.2,21.4 41.2,21.8Z" style="fill:url(#_Linear30);fill-rule:nonzero;"/>
                </g>
                <g id="圆角矩形_7_拷贝_6" transform="matrix(6.12323e-17,-1,1,6.12323e-17,-88.4466,179.116)">
                    <path d="M62.9,18.1C62.9,18.5 62.6,18.8 62.2,18.8L60.2,18.8C59.8,18.8 59.5,18.5 59.6,18.1C59.6,17.8 59.9,17.5 60.2,17.5L62.2,17.5C62.6,17.4 62.9,17.7 62.9,18.1Z" style="fill:url(#_Linear31);fill-rule:nonzero;"/>
                </g>
                <g id="圆角矩形_7_拷贝_6-2" transform="matrix(6.12323e-17,-1,1,6.12323e-17,-88.4466,179.116)">
                    <path d="M41.2,18.1C41.2,18.5 40.9,18.8 40.5,18.8L38.5,18.8C38.1,18.8 37.8,18.5 37.8,18.2C37.8,17.8 38.1,17.5 38.4,17.5L40.5,17.5C40.9,17.4 41.2,17.7 41.2,18.1Z" style="fill:url(#_Linear32);fill-rule:nonzero;"/>
                </g>
            </g>
        </g>
        <g id="圆角矩形_8" transform="matrix(-2.07143e-16,1,-1.12763,-1.83697e-16,252.255,78.1095)">
            <path d="M60.6,3.4C60.6,3.8 60.3,4.1 59.9,4.1L40.9,4.1C40.5,4.1 40.2,3.8 40.2,3.4C40.2,3 40.5,2.7 40.9,2.7L59.9,2.7C60.3,2.8 60.6,3.1 60.6,3.4Z" style="fill:rgb(255,174,0);fill-rule:nonzero;"/>
        </g>
        <g id="chengdeng" transform="matrix(-2.07143e-16,1,-1.12763,-1.83697e-16,252.255,78.1095)">
            <path d="M72.9,10.4C72.9,10.4 80.6,12.5 83.5,14.5C89.4,18.5 86.5,22.9 86.5,22.9C86.5,22.9 83.2,30.7 79.8,24.5C79.2,23.5 72.9,10.4 72.9,10.4ZM27.9,11.1C27.9,11.1 20.2,12.5 17.3,14.5C11.4,18.4 14.3,22.8 14.3,22.8C14.3,22.8 17.6,30.5 21,24.4C21.6,23.4 27.9,11.1 27.9,11.1Z" style="fill:rgb(255,201,107);fill-rule:nonzero;"/>
        </g>
        <g id="chengdeng3" transform="matrix(-2.07143e-16,1,-1.12763,-1.83697e-16,252.255,78.1095)">
            <path d="M82.4,15.8L85.4,17.8C87.2,19 86.3,20.3 86.3,20.3C86.3,20.3 85.3,22.6 84.3,20.8C84,20.5 82.4,15.8 82.4,15.8ZM18.5,16.1L15.5,18.1C13.7,19.3 14.6,20.6 14.6,20.6C14.6,20.6 15.6,22.9 16.6,21.1C16.8,20.8 18.5,16.1 18.5,16.1Z" style="fill:white;fill-rule:nonzero;"/>
        </g>
        <g id="形状_3" transform="matrix(-2.07143e-16,1,-1.12763,-1.83697e-16,252.255,78.1095)">
            <path d="M17.1,18.7C14.9,22.8 15.6,26.4 15.4,27.9C15.4,28.3 15.2,28.6 15,28.3C14.2,26.1 14.3,21.2 16.3,17.5C18.3,13.8 22.3,10.9 23.8,11.9C24,12 23.8,12.4 23.6,12.5C20.8,13.8 18.6,16 17.1,18.7ZM84.3,18.7C86.5,22.8 85.9,26.3 86,27.9C86,28.3 86.2,28.6 86.4,28.3C87.2,26.1 87.1,21.3 85.1,17.6C83.1,13.9 79,11.1 77.5,12C77.3,12.1 77.5,12.5 77.7,12.6C80.5,13.9 82.8,16 84.3,18.7Z" style="fill-opacity:0.1;fill-rule:nonzero;"/>
        </g>
        <g id="chengdeng-2" transform="matrix(-2.07143e-16,1,-1.12763,-1.83697e-16,252.255,78.1095)">
            <path d="M87.2,58.9C87.2,60.5 85.9,61.7 84.4,61.7C82.9,61.7 81.6,60.4 81.6,58.9C81.6,57.4 82.8,56.1 84.4,56.1C86,56.1 87.2,57.4 87.2,58.9ZM18.9,58.9C18.9,60.5 17.6,61.7 16.1,61.7C14.6,61.7 13.3,60.4 13.3,58.9C13.3,57.4 14.5,56.1 16.1,56.1C17.7,56.1 18.9,57.4 18.9,58.9Z" style="fill:rgb(219,124,0);fill-rule:nonzero;"/>
        </g>
        <g id="圆角矩形_3" transform="matrix(-2.07143e-16,1,-1.12763,-1.83697e-16,252.255,78.1095)">
            <path d="M85.2,60.4L85.2,79.4C85.2,82.3 82.8,84.7 79.9,84.7L20.2,84.7C17.3,84.7 14.9,82.3 14.9,79.4L14.9,60.4C14.9,57.5 17.3,55.1 20.2,55.1L79.9,55.1C82.8,55.1 85.2,57.5 85.2,60.4Z" style="fill:url(#_Linear33);fill-rule:nonzero;"/>
        </g>
        <g id="chechuang" transform="matrix(-2.07143e-16,1,-1.12763,-1.83697e-16,252.255,78.1095)">
            <path d="M81.2,40.1L81.2,53.8C81.2,55.3 80,56.5 78.5,56.5C78.5,56.5 65.4,49.2 51.2,49.2C36.4,49.2 20.5,56.5 20.5,56.5C19,56.5 17.8,55.3 17.8,53.8L17.8,40.8C17.8,39.3 19,38.1 20.5,38.1C20.5,38.1 36.3,34.4 51.1,34.4C60.3,34.5 69.5,35.5 78.5,37.4C80,37.4 81.2,38.6 81.2,40.1Z" style="fill-rule:nonzero;"/>
        </g>
        <g id="椭圆_2" transform="matrix(-2.07143e-16,1,-1.12763,-1.83697e-16,252.255,78.1095)">
            <path d="M85.2,60.6C85.2,67.5 69.5,73.1 50,73.1C30.5,73.1 14.9,67.5 14.9,60.6C14.9,53.7 30.6,48.1 50.1,48.1C69.6,48.1 85.2,53.7 85.2,60.6Z" style="fill:url(#_Linear34);fill-rule:nonzero;"/>
        </g>
        <g id="组_4" transform="matrix(-1.12763,-1.22464e-16,1.38095e-16,-1,152.519,257.226)">
            <g id="组_2" transform="matrix(6.12323e-17,-1,1,6.12323e-17,-88.4466,179.116)">
                <path id="椭圆_1-2" d="M72.6,81.8C72.6,82.9 72.2,83.5 71.8,83.5C71.4,83.5 70.9,82.9 70.9,81.8C70.9,80.7 71.1,58.8 71.6,58.8C72.1,58.8 72.6,80.7 72.6,81.8Z" style="fill:url(#_Linear35);fill-rule:nonzero;"/>
                <path id="椭圆_1_拷贝-2" d="M68.9,81.8C68.9,82.9 68.5,83.5 68.1,83.5C67.6,83.5 67.3,82.9 67.3,81.8C67.3,80.7 67.5,58.8 68,58.8C68.5,58.8 68.9,80.7 68.9,81.8Z" style="fill:url(#_Linear36);fill-rule:nonzero;"/>
                <path id="椭圆_1_拷贝_2-2" d="M65.2,81.8C65.2,82.9 64.8,83.5 64.4,83.5C64,83.5 63.6,82.9 63.6,81.8C63.6,80.7 63.8,58.8 64.3,58.8C64.8,58.8 65.2,80.7 65.2,81.8Z" style="fill:url(#_Linear37);fill-rule:nonzero;"/>
                <path id="椭圆_1_拷贝_3-2" d="M61.6,81.8C61.6,82.9 61.2,83.5 60.8,83.5C60.4,83.5 59.9,82.9 59.9,81.8C59.9,80.7 60.1,58.8 60.6,58.8C61.1,58.8 61.6,80.7 61.6,81.8Z" style="fill:url(#_Linear38);fill-rule:nonzero;"/>
                <path id="椭圆_1_拷贝_4-2" d="M57.9,81.8C57.9,82.9 57.5,83.5 57.1,83.5C56.7,83.5 56.3,82.9 56.3,81.8C56.3,80.7 56.5,58.8 57,58.8C57.5,58.8 57.9,80.7 57.9,81.8Z" style="fill:url(#_Linear39);fill-rule:nonzero;"/>
                <path id="椭圆_1_拷贝_11-2" d="M54.2,81.8C54.2,82.9 53.8,83.5 53.4,83.5C53,83.5 52.6,82.9 52.6,81.8C52.6,80.7 52.8,58.8 53.3,58.8C53.8,58.8 54.2,80.7 54.2,81.8Z" style="fill:url(#_Linear40);fill-rule:nonzero;"/>
            </g>
            <g id="组_3" transform="matrix(6.12323e-17,-1,1,6.12323e-17,-88.4466,179.116)">
                <path id="椭圆_1_拷贝_5" d="M47.6,81.8C47.6,82.9 47.2,83.5 46.8,83.5C46.4,83.5 45.9,82.9 45.9,81.8C45.9,80.7 46.1,58.8 46.6,58.8C47.1,58.8 47.6,80.7 47.6,81.8Z" style="fill:url(#_Linear41);fill-rule:nonzero;"/>
                <path id="椭圆_1_拷贝_6" d="M43.9,81.8C43.9,82.9 43.5,83.5 43.1,83.5C42.7,83.5 42.3,82.9 42.3,81.8C42.3,80.7 42.5,58.8 43,58.8C43.5,58.8 43.9,80.7 43.9,81.8Z" style="fill:url(#_Linear42);fill-rule:nonzero;"/>
                <path id="椭圆_1_拷贝_7" d="M40.2,81.8C40.2,82.9 39.8,83.5 39.4,83.5C39,83.5 38.6,82.9 38.6,81.8C38.6,80.7 38.8,58.8 39.3,58.8C39.8,58.8 40.2,80.7 40.2,81.8Z" style="fill:url(#_Linear43);fill-rule:nonzero;"/>
                <path id="椭圆_1_拷贝_8" d="M36.6,81.8C36.6,82.9 36.2,83.5 35.8,83.5C35.4,83.5 34.9,82.9 34.9,81.8C34.9,80.7 35.1,58.8 35.6,58.8C36.1,58.8 36.6,80.7 36.6,81.8Z" style="fill:url(#_Linear44);fill-rule:nonzero;"/>
                <path id="椭圆_1_拷贝_9" d="M32.9,81.8C32.9,82.9 32.5,83.5 32.1,83.5C31.7,83.5 31.3,82.9 31.3,81.8C31.3,80.7 31.5,58.8 32,58.8C32.5,58.8 32.9,80.7 32.9,81.8Z" style="fill:url(#_Linear45);fill-rule:nonzero;"/>
                <path id="椭圆_1_拷贝_10" d="M29.2,81.8C29.2,82.9 28.8,83.5 28.4,83.5C28,83.5 27.6,82.9 27.6,81.8C27.6,80.7 27.8,58.8 28.3,58.8C28.8,58.8 29.2,80.7 29.2,81.8Z" style="fill:url(#_Linear46);fill-rule:nonzero;"/>
            </g>
        </g>
        <g id="chechaung" transform="matrix(-2.07143e-16,1,-1.12763,-1.83697e-16,252.255,78.1095)">
            <path d="M15.2,65.4L15.2,71.7C15.1,73 15,74.4 14.7,75.7C14.5,75.7 14.5,75.4 14.5,75L14.5,62.1C14.5,61.7 14.5,61.4 14.7,61.4C15,62.8 15.2,64.1 15.2,65.4Z" style="fill-rule:nonzero;"/>
        </g>
        <g id="chechaung-2" transform="matrix(-2.07143e-16,1,-1.12763,-1.83697e-16,252.255,78.1095)">
            <path d="M84.6,65.8L84.6,72.1C84.7,73.4 84.8,74.8 85.1,76.1C85.3,76.1 85.3,75.8 85.3,75.4L85.3,62.4C85.3,62 85.3,61.7 85.1,61.7C84.8,63.1 84.6,64.4 84.6,65.8Z" style="fill-rule:nonzero;"/>
        </g>
        <g id="圆角矩形_9" transform="matrix(-2.07143e-16,1,-1.12763,-1.83697e-16,252.255,78.1095)">
            <path d="M93.2,52C92.4,52.9 91,52.9 90.1,52.1L83.8,46.2C82.9,45.4 82.8,44 83.7,43.1C84.5,42.2 85.9,42.1 86.8,43L93.1,48.9C93.9,49.8 94,51.2 93.2,52Z" style="fill:rgb(14,98,223);fill-rule:nonzero;"/>
        </g>
        <g id="圆角矩形_9_拷贝" transform="matrix(-2.07143e-16,1,-1.12763,-1.83697e-16,252.255,78.1095)">
            <path d="M7.8,51.7C8.6,52.6 10,52.6 10.8,51.8L17.1,45.8C18,45 18,43.6 17.2,42.7C16.4,41.8 15,41.8 14.2,42.6L7.9,48.6C7.1,49.5 7,50.9 7.8,51.7Z" style="fill:rgb(14,98,223);fill-rule:nonzero;"/>
        </g>
        <g id="圆角矩形_4" transform="matrix(-2.07143e-16,1,-1.12763,-1.83697e-16,252.255,78.1095)">
            <path d="M87.2,74.1C88.1,74.5 89.6,75.5 89.2,76.4C89.4,79 89.2,81.6 88.5,84.1C88.2,85.3 85.3,88.1 80.8,88.1L25.5,88.1C16.4,89.4 10.6,85.5 11.1,81.8L11.1,75.9C11.1,74.9 11.9,74.1 12.9,74.1C13.9,74.1 14.7,74.9 14.7,75.9L14.7,80.4C14.7,81.7 17.7,84.4 19.2,84.4L80.7,84.4C83.2,84.2 85.1,82.2 85.2,79.7C85.3,78.6 85.3,77.5 85.2,76.4C85.6,75.5 86.3,73.7 87.2,74.1Z" style="fill:url(#_Linear47);fill-rule:nonzero;"/>
        </g>
    </g>
    <defs>
        <linearGradient id="_Linear1" x1="0" y1="0" x2="1" y2="0" gradientUnits="userSpaceOnUse" gradientTransform="matrix(8.344,0,0,8.344,82.863,193.332)"><stop offset="0" style="stop-color:rgb(0,2,127);stop-opacity:0.8"/><stop offset="0.09" style="stop-color:rgb(0,2,127);stop-opacity:1"/><stop offset="0.28" style="stop-color:rgb(46,130,255);stop-opacity:1"/><stop offset="0.54" style="stop-color:rgb(46,130,255);stop-opacity:1"/><stop offset="0.76" style="stop-color:rgb(10,94,219);stop-opacity:1"/><stop offset="1" style="stop-color:rgb(46,130,255);stop-opacity:1"/></linearGradient>
        <linearGradient id="_Linear2" x1="0" y1="0" x2="1" y2="0" gradientUnits="userSpaceOnUse" gradientTransform="matrix(8.3441,0,0,8.3441,73.5189,193.332)"><stop offset="0" style="stop-color:rgb(0,2,127);stop-opacity:0.8"/><stop offset="0.09" style="stop-color:rgb(0,2,127);stop-opacity:1"/><stop offset="0.28" style="stop-color:rgb(46,130,255);stop-opacity:1"/><stop offset="0.54" style="stop-color:rgb(46,130,255);stop-opacity:1"/><stop offset="0.76" style="stop-color:rgb(10,94,219);stop-opacity:1"/><stop offset="1" style="stop-color:rgb(46,130,255);stop-opacity:1"/></linearGradient>
        <linearGradient id="_Linear3" x1="0" y1="0" x2="1" y2="0" gradientUnits="userSpaceOnUse" gradientTransform="matrix(8.3441,0,0,8.3441,64.5189,193.332)"><stop offset="0" style="stop-color:rgb(0,2,127);stop-opacity:0.8"/><stop offset="0.09" style="stop-color:rgb(0,2,127);stop-opacity:1"/><stop offset="0.28" style="stop-color:rgb(46,130,255);stop-opacity:1"/><stop offset="0.54" style="stop-color:rgb(46,130,255);stop-opacity:1"/><stop offset="0.76" style="stop-color:rgb(10,94,219);stop-opacity:1"/><stop offset="1" style="stop-color:rgb(46,130,255);stop-opacity:1"/></linearGradient>
        <linearGradient id="_Linear4" x1="0" y1="0" x2="1" y2="0" gradientUnits="userSpaceOnUse" gradientTransform="matrix(8.3119,0,0,8.3119,55.207,193.332)"><stop offset="0" style="stop-color:rgb(0,2,127);stop-opacity:0.8"/><stop offset="0.09" style="stop-color:rgb(0,2,127);stop-opacity:1"/><stop offset="0.28" style="stop-color:rgb(46,130,255);stop-opacity:1"/><stop offset="0.54" style="stop-color:rgb(46,130,255);stop-opacity:1"/><stop offset="0.76" style="stop-color:rgb(10,94,219);stop-opacity:1"/><stop offset="1" style="stop-color:rgb(46,130,255);stop-opacity:1"/></linearGradient>
        <linearGradient id="_Linear5" x1="0" y1="0" x2="1" y2="0" gradientUnits="userSpaceOnUse" gradientTransform="matrix(8.3119,0,0,8.3119,46.207,193.332)"><stop offset="0" style="stop-color:rgb(0,2,127);stop-opacity:0.8"/><stop offset="0.09" style="stop-color:rgb(0,2,127);stop-opacity:1"/><stop offset="0.28" style="stop-color:rgb(46,130,255);stop-opacity:1"/><stop offset="0.54" style="stop-color:rgb(46,130,255);stop-opacity:1"/><stop offset="0.76" style="stop-color:rgb(10,94,219);stop-opacity:1"/><stop offset="1" style="stop-color:rgb(46,130,255);stop-opacity:1"/></linearGradient>
        <linearGradient id="_Linear6" x1="0" y1="0" x2="1" y2="0" gradientUnits="userSpaceOnUse" gradientTransform="matrix(8.344,0,0,8.344,36.863,193.332)"><stop offset="0" style="stop-color:rgb(0,2,127);stop-opacity:0.8"/><stop offset="0.09" style="stop-color:rgb(0,2,127);stop-opacity:1"/><stop offset="0.28" style="stop-color:rgb(46,130,255);stop-opacity:1"/><stop offset="0.54" style="stop-color:rgb(46,130,255);stop-opacity:1"/><stop offset="0.76" style="stop-color:rgb(10,94,219);stop-opacity:1"/><stop offset="1" style="stop-color:rgb(46,130,255);stop-opacity:1"/></linearGradient>
        <linearGradient id="_Linear7" x1="0" y1="0" x2="1" y2="0" gradientUnits="userSpaceOnUse" gradientTransform="matrix(8.344,0,0,8.344,27.863,193.332)"><stop offset="0" style="stop-color:rgb(0,2,127);stop-opacity:0.8"/><stop offset="0.09" style="stop-color:rgb(0,2,127);stop-opacity:1"/><stop offset="0.28" style="stop-color:rgb(46,130,255);stop-opacity:1"/><stop offset="0.54" style="stop-color:rgb(46,130,255);stop-opacity:1"/><stop offset="0.76" style="stop-color:rgb(10,94,219);stop-opacity:1"/><stop offset="1" style="stop-color:rgb(46,130,255);stop-opacity:1"/></linearGradient>
        <linearGradient id="_Linear8" x1="0" y1="0" x2="1" y2="0" gradientUnits="userSpaceOnUse" gradientTransform="matrix(8.3441,0,0,8.3441,18.5189,193.332)"><stop offset="0" style="stop-color:rgb(0,2,127);stop-opacity:0.8"/><stop offset="0.09" style="stop-color:rgb(0,2,127);stop-opacity:1"/><stop offset="0.28" style="stop-color:rgb(46,130,255);stop-opacity:1"/><stop offset="0.54" style="stop-color:rgb(46,130,255);stop-opacity:1"/><stop offset="0.76" style="stop-color:rgb(10,94,219);stop-opacity:1"/><stop offset="1" style="stop-color:rgb(46,130,255);stop-opacity:1"/></linearGradient>
        <linearGradient id="_Linear9" x1="0" y1="0" x2="1" y2="0" gradientUnits="userSpaceOnUse" gradientTransform="matrix(8.344,0,0,8.344,9.519,193.332)"><stop offset="0" style="stop-color:rgb(0,2,127);stop-opacity:0.8"/><stop offset="0.09" style="stop-color:rgb(0,2,127);stop-opacity:1"/><stop offset="0.28" style="stop-color:rgb(46,130,255);stop-opacity:1"/><stop offset="0.54" style="stop-color:rgb(46,130,255);stop-opacity:1"/><stop offset="0.76" style="stop-color:rgb(10,94,219);stop-opacity:1"/><stop offset="1" style="stop-color:rgb(46,130,255);stop-opacity:1"/></linearGradient>
        <linearGradient id="_Linear10" x1="0" y1="0" x2="1" y2="0" gradientUnits="userSpaceOnUse" gradientTransform="matrix(1.34711e-15,22,-22,1.34711e-15,57.5629,11.8041)"><stop offset="0" style="stop-color:rgb(0,0,83);stop-opacity:0.12"/><stop offset="1" style="stop-color:rgb(0,0,83);stop-opacity:0.36"/></linearGradient>
        <linearGradient id="_Linear11" x1="0" y1="0" x2="1" y2="0" gradientUnits="userSpaceOnUse" gradientTransform="matrix(1.34711e-15,22,-22,1.34711e-15,54.7629,11.8041)"><stop offset="0" style="stop-color:rgb(0,0,83);stop-opacity:0.12"/><stop offset="1" style="stop-color:rgb(0,0,83);stop-opacity:0.36"/></linearGradient>
        <linearGradient id="_Linear12" x1="0" y1="0" x2="1" y2="0" gradientUnits="userSpaceOnUse" gradientTransform="matrix(1.34711e-15,22,-22,1.34711e-15,51.9629,11.8041)"><stop offset="0" style="stop-color:rgb(0,0,83);stop-opacity:0.12"/><stop offset="1" style="stop-color:rgb(0,0,83);stop-opacity:0.36"/></linearGradient>
        <linearGradient id="_Linear13" x1="0" y1="0" x2="1" y2="0" gradientUnits="userSpaceOnUse" gradientTransform="matrix(1.34711e-15,22,-22,1.34711e-15,49.1629,11.8041)"><stop offset="0" style="stop-color:rgb(0,0,83);stop-opacity:0.12"/><stop offset="1" style="stop-color:rgb(0,0,83);stop-opacity:0.36"/></linearGradient>
        <linearGradient id="_Linear14" x1="0" y1="0" x2="1" y2="0" gradientUnits="userSpaceOnUse" gradientTransform="matrix(1.34711e-15,22,-22,1.34711e-15,46.363,11.8041)"><stop offset="0" style="stop-color:rgb(0,0,83);stop-opacity:0.12"/><stop offset="1" style="stop-color:rgb(0,0,83);stop-opacity:0.36"/></linearGradient>
        <linearGradient id="_Linear15" x1="0" y1="0" x2="1" y2="0" gradientUnits="userSpaceOnUse" gradientTransform="matrix(1.34711e-15,22,-22,1.34711e-15,43.5129,11.8041)"><stop offset="0" style="stop-color:rgb(0,0,83);stop-opacity:0.12"/><stop offset="1" style="stop-color:rgb(0,0,83);stop-opacity:0.36"/></linearGradient>
        <linearGradient id="_Linear16" x1="0" y1="0" x2="1" y2="0" gradientUnits="userSpaceOnUse" gradientTransform="matrix(1.34711e-15,22,-22,1.34711e-15,76.2129,11.8041)"><stop offset="0" style="stop-color:rgb(0,0,83);stop-opacity:0.12"/><stop offset="1" style="stop-color:rgb(0,0,83);stop-opacity:0.36"/></linearGradient>
        <linearGradient id="_Linear17" x1="0" y1="0" x2="1" y2="0" gradientUnits="userSpaceOnUse" gradientTransform="matrix(1.34711e-15,22,-22,1.34711e-15,24.612,11.8031)"><stop offset="0" style="stop-color:rgb(0,0,83);stop-opacity:0.12"/><stop offset="1" style="stop-color:rgb(0,0,83);stop-opacity:0.36"/></linearGradient>
        <linearGradient id="_Linear18" x1="0" y1="0" x2="1" y2="0" gradientUnits="userSpaceOnUse" gradientTransform="matrix(1.14504e-15,18.7,-18.7,1.14504e-15,72.4601,11.8031)"><stop offset="0" style="stop-color:rgb(0,0,83);stop-opacity:0.12"/><stop offset="1" style="stop-color:rgb(0,0,83);stop-opacity:0.36"/></linearGradient>
        <linearGradient id="_Linear19" x1="0" y1="0" x2="1" y2="0" gradientUnits="userSpaceOnUse" gradientTransform="matrix(1.14431e-15,18.688,-18.688,1.14431e-15,28.2345,11.8031)"><stop offset="0" style="stop-color:rgb(0,0,83);stop-opacity:0.12"/><stop offset="1" style="stop-color:rgb(0,0,83);stop-opacity:0.36"/></linearGradient>
        <linearGradient id="_Linear20" x1="0" y1="0" x2="1" y2="0" gradientUnits="userSpaceOnUse" gradientTransform="matrix(1.14504e-15,18.7,-18.7,1.14504e-15,69.1601,11.8031)"><stop offset="0" style="stop-color:rgb(0,0,83);stop-opacity:0.12"/><stop offset="1" style="stop-color:rgb(0,0,83);stop-opacity:0.36"/></linearGradient>
        <linearGradient id="_Linear21" x1="0" y1="0" x2="1" y2="0" gradientUnits="userSpaceOnUse" gradientTransform="matrix(1.14431e-15,18.688,-18.688,1.14431e-15,31.6346,11.8031)"><stop offset="0" style="stop-color:rgb(0,0,83);stop-opacity:0.12"/><stop offset="1" style="stop-color:rgb(0,0,83);stop-opacity:0.36"/></linearGradient>
        <linearGradient id="_Linear22" x1="0" y1="0" x2="1" y2="0" gradientUnits="userSpaceOnUse" gradientTransform="matrix(1.14504e-15,18.7,-18.7,1.14504e-15,65.7601,11.8031)"><stop offset="0" style="stop-color:rgb(0,0,83);stop-opacity:0.12"/><stop offset="1" style="stop-color:rgb(0,0,83);stop-opacity:0.36"/></linearGradient>
        <linearGradient id="_Linear23" x1="0" y1="0" x2="1" y2="0" gradientUnits="userSpaceOnUse" gradientTransform="matrix(1.14431e-15,18.688,-18.688,1.14431e-15,34.9346,11.8031)"><stop offset="0" style="stop-color:rgb(0,0,83);stop-opacity:0.12"/><stop offset="1" style="stop-color:rgb(0,0,83);stop-opacity:0.36"/></linearGradient>
        <linearGradient id="_Linear24" x1="0" y1="0" x2="1" y2="0" gradientUnits="userSpaceOnUse" gradientTransform="matrix(8.03368e-17,1.312,-1.312,8.03368e-17,50.3129,31.4811)"><stop offset="0" style="stop-color:rgb(0,0,83);stop-opacity:0.2"/><stop offset="1" style="stop-color:rgb(0,0,83);stop-opacity:0.6"/></linearGradient>
        <linearGradient id="_Linear25" x1="0" y1="0" x2="1" y2="0" gradientUnits="userSpaceOnUse" gradientTransform="matrix(8.03368e-17,1.312,-1.312,8.03368e-17,50.5533,28.4811)"><stop offset="0" style="stop-color:rgb(0,0,83);stop-opacity:0.2"/><stop offset="1" style="stop-color:rgb(0,0,83);stop-opacity:0.6"/></linearGradient>
        <linearGradient id="_Linear26" x1="0" y1="0" x2="1" y2="0" gradientUnits="userSpaceOnUse" gradientTransform="matrix(8.22963e-17,1.344,-1.344,8.22963e-17,50.5129,9.7931)"><stop offset="0" style="stop-color:rgb(0,0,83);stop-opacity:0.2"/><stop offset="1" style="stop-color:rgb(0,0,83);stop-opacity:0.6"/></linearGradient>
        <linearGradient id="_Linear27" x1="0" y1="0" x2="1" y2="0" gradientUnits="userSpaceOnUse" gradientTransform="matrix(8.22963e-17,1.344,-1.344,8.22963e-17,62.5129,24.7931)"><stop offset="0" style="stop-color:rgb(0,0,83);stop-opacity:0.2"/><stop offset="1" style="stop-color:rgb(0,0,83);stop-opacity:0.6"/></linearGradient>
        <linearGradient id="_Linear28" x1="0" y1="0" x2="1" y2="0" gradientUnits="userSpaceOnUse" gradientTransform="matrix(8.22963e-17,1.344,-1.344,8.22963e-17,38.1629,24.7931)"><stop offset="0" style="stop-color:rgb(0,0,83);stop-opacity:0.2"/><stop offset="1" style="stop-color:rgb(0,0,83);stop-opacity:0.6"/></linearGradient>
        <linearGradient id="_Linear29" x1="0" y1="0" x2="1" y2="0" gradientUnits="userSpaceOnUse" gradientTransform="matrix(8.22963e-17,1.344,-1.344,8.22963e-17,61.8533,21.1381)"><stop offset="0" style="stop-color:rgb(0,0,83);stop-opacity:0.2"/><stop offset="1" style="stop-color:rgb(0,0,83);stop-opacity:0.6"/></linearGradient>
        <linearGradient id="_Linear30" x1="0" y1="0" x2="1" y2="0" gradientUnits="userSpaceOnUse" gradientTransform="matrix(8.22963e-17,1.344,-1.344,8.22963e-17,38.8533,21.1381)"><stop offset="0" style="stop-color:rgb(0,0,83);stop-opacity:0.2"/><stop offset="1" style="stop-color:rgb(0,0,83);stop-opacity:0.6"/></linearGradient>
        <linearGradient id="_Linear31" x1="0" y1="0" x2="1" y2="0" gradientUnits="userSpaceOnUse" gradientTransform="matrix(8.03368e-17,1.312,-1.312,8.03368e-17,61.2032,17.4811)"><stop offset="0" style="stop-color:rgb(0,0,83);stop-opacity:0.2"/><stop offset="1" style="stop-color:rgb(0,0,83);stop-opacity:0.6"/></linearGradient>
        <linearGradient id="_Linear32" x1="0" y1="0" x2="1" y2="0" gradientUnits="userSpaceOnUse" gradientTransform="matrix(8.03368e-17,1.312,-1.312,8.03368e-17,39.4629,17.4811)"><stop offset="0" style="stop-color:rgb(0,0,83);stop-opacity:0.2"/><stop offset="1" style="stop-color:rgb(0,0,83);stop-opacity:0.6"/></linearGradient>
        <linearGradient id="_Linear33" x1="0" y1="0" x2="1" y2="0" gradientUnits="userSpaceOnUse" gradientTransform="matrix(1.81658e-15,29.667,-29.667,1.81658e-15,50.0129,55.1371)"><stop offset="0" style="stop-color:rgb(30,114,239);stop-opacity:1"/><stop offset="0.9" style="stop-color:rgb(19,103,228);stop-opacity:1"/><stop offset="1" style="stop-color:rgb(0,70,195);stop-opacity:1"/></linearGradient>
        <linearGradient id="_Linear34" x1="0" y1="0" x2="1" y2="0" gradientUnits="userSpaceOnUse" gradientTransform="matrix(1.53081e-15,25,-25,1.53081e-15,50.0129,48.1371)"><stop offset="0" style="stop-color:rgb(46,130,255);stop-opacity:1"/><stop offset="1" style="stop-color:rgb(23,107,233);stop-opacity:1"/></linearGradient>
        <linearGradient id="_Linear35" x1="0" y1="0" x2="1" y2="0" gradientUnits="userSpaceOnUse" gradientTransform="matrix(1.51042e-15,24.667,-24.667,1.51042e-15,71.7129,58.8041)"><stop offset="0" style="stop-color:rgb(0,0,83);stop-opacity:0.12"/><stop offset="1" style="stop-color:rgb(0,0,83);stop-opacity:0.36"/></linearGradient>
        <linearGradient id="_Linear36" x1="0" y1="0" x2="1" y2="0" gradientUnits="userSpaceOnUse" gradientTransform="matrix(1.51042e-15,24.667,-24.667,1.51042e-15,68.0629,58.8041)"><stop offset="0" style="stop-color:rgb(0,0,83);stop-opacity:0.12"/><stop offset="1" style="stop-color:rgb(0,0,83);stop-opacity:0.36"/></linearGradient>
        <linearGradient id="_Linear37" x1="0" y1="0" x2="1" y2="0" gradientUnits="userSpaceOnUse" gradientTransform="matrix(1.51042e-15,24.667,-24.667,1.51042e-15,64.363,58.8041)"><stop offset="0" style="stop-color:rgb(0,0,83);stop-opacity:0.12"/><stop offset="1" style="stop-color:rgb(0,0,83);stop-opacity:0.36"/></linearGradient>
        <linearGradient id="_Linear38" x1="0" y1="0" x2="1" y2="0" gradientUnits="userSpaceOnUse" gradientTransform="matrix(1.51042e-15,24.667,-24.667,1.51042e-15,60.7129,58.8041)"><stop offset="0" style="stop-color:rgb(0,0,83);stop-opacity:0.12"/><stop offset="1" style="stop-color:rgb(0,0,83);stop-opacity:0.36"/></linearGradient>
        <linearGradient id="_Linear39" x1="0" y1="0" x2="1" y2="0" gradientUnits="userSpaceOnUse" gradientTransform="matrix(1.51042e-15,24.667,-24.667,1.51042e-15,57.0629,58.8041)"><stop offset="0" style="stop-color:rgb(0,0,83);stop-opacity:0.12"/><stop offset="1" style="stop-color:rgb(0,0,83);stop-opacity:0.36"/></linearGradient>
        <linearGradient id="_Linear40" x1="0" y1="0" x2="1" y2="0" gradientUnits="userSpaceOnUse" gradientTransform="matrix(1.51042e-15,24.667,-24.667,1.51042e-15,53.363,58.8041)"><stop offset="0" style="stop-color:rgb(0,0,83);stop-opacity:0.12"/><stop offset="1" style="stop-color:rgb(0,0,83);stop-opacity:0.36"/></linearGradient>
        <linearGradient id="_Linear41" x1="0" y1="0" x2="1" y2="0" gradientUnits="userSpaceOnUse" gradientTransform="matrix(1.51042e-15,24.667,-24.667,1.51042e-15,46.7129,58.8041)"><stop offset="0" style="stop-color:rgb(0,0,83);stop-opacity:0.12"/><stop offset="1" style="stop-color:rgb(0,0,83);stop-opacity:0.36"/></linearGradient>
        <linearGradient id="_Linear42" x1="0" y1="0" x2="1" y2="0" gradientUnits="userSpaceOnUse" gradientTransform="matrix(1.51042e-15,24.667,-24.667,1.51042e-15,43.0629,58.8041)"><stop offset="0" style="stop-color:rgb(0,0,83);stop-opacity:0.12"/><stop offset="1" style="stop-color:rgb(0,0,83);stop-opacity:0.36"/></linearGradient>
        <linearGradient id="_Linear43" x1="0" y1="0" x2="1" y2="0" gradientUnits="userSpaceOnUse" gradientTransform="matrix(1.51042e-15,24.667,-24.667,1.51042e-15,39.363,58.8041)"><stop offset="0" style="stop-color:rgb(0,0,83);stop-opacity:0.12"/><stop offset="1" style="stop-color:rgb(0,0,83);stop-opacity:0.36"/></linearGradient>
        <linearGradient id="_Linear44" x1="0" y1="0" x2="1" y2="0" gradientUnits="userSpaceOnUse" gradientTransform="matrix(1.51042e-15,24.667,-24.667,1.51042e-15,35.7129,58.8041)"><stop offset="0" style="stop-color:rgb(0,0,83);stop-opacity:0.12"/><stop offset="1" style="stop-color:rgb(0,0,83);stop-opacity:0.36"/></linearGradient>
        <linearGradient id="_Linear45" x1="0" y1="0" x2="1" y2="0" gradientUnits="userSpaceOnUse" gradientTransform="matrix(1.51042e-15,24.667,-24.667,1.51042e-15,32.0629,58.8041)"><stop offset="0" style="stop-color:rgb(0,0,83);stop-opacity:0.12"/><stop offset="1" style="stop-color:rgb(0,0,83);stop-opacity:0.36"/></linearGradient>
        <linearGradient id="_Linear46" x1="0" y1="0" x2="1" y2="0" gradientUnits="userSpaceOnUse" gradientTransform="matrix(1.51042e-15,24.667,-24.667,1.51042e-15,28.363,58.8041)"><stop offset="0" style="stop-color:rgb(0,0,83);stop-opacity:0.12"/><stop offset="1" style="stop-color:rgb(0,0,83);stop-opacity:0.36"/></linearGradient>
        <linearGradient id="_Linear47" x1="0" y1="0" x2="1" y2="0" gradientUnits="userSpaceOnUse" gradientTransform="matrix(8.75267e-16,14.2942,-14.2942,8.75267e-16,50.1347,74.08)"><stop offset="0" style="stop-color:rgb(46,130,255);stop-opacity:1"/><stop offset="1" style="stop-color:rgb(0,0,65);stop-opacity:1"/></linearGradient>
    </defs>
</svg>
